STARTFONT 2.1
COMMENT
COMMENT Converted from TrueType font "times.ttf" by "ttf2bdf 2.6".
COMMENT
FONT -FreeType-Times New Roman-Medium-R-Normal--19-140-100-100-P-94-ISO10646-1
SIZE 14 100 100
FONTBOUNDINGBOX 33 28 -12 -8
STARTPROPERTIES 22
FOUNDRY "FreeType"
FAMILY_NAME "Times New Roman"
WEIGHT_NAME "Medium"
SLANT "R"
SETWIDTH_NAME "Normal"
ADD_STYLE_NAME ""
PIXEL_SIZE 19
POINT_SIZE 140
RESOLUTION_X 100
RESOLUTION_Y 100
SPACING "P"
AVERAGE_WIDTH 94
CHARSET_REGISTRY "ISO10646"
CHARSET_ENCODING "1"
FONT_ASCENT 16
FONT_DESCENT 4
COPYRIGHT "Typeface © The Monotype Corporation plc. Data © The Monotype Corporation plc/Type Solutions Inc. 1990-1992. All Rights Reserved"
_TTF_FONTFILE "times.ttf"
_TTF_PSNAME "TimesNewRomanPSMT"
_XFREE86_GLYPH_RANGES "32_126 160_383 399 402 416_417 431_432 461_476 506_511 601 710_711 713 728_733 768_769 771 777 803 894 900_906 908 910_929 931_974 1025_1036 1038_1103 1105_1116 1118_1119 1168_1171 1174_1175 1178_1181 1186_1187 1198_1203 1208_1211 1240_1241 1256_1257 1456_1475 1488_1514 1520_1524 1548 1563 1567 1569_1594 1600_1621 1632_1773 1776_1790 7808_7813 7840_7929 8204_8207 8211_8213 8215_8222 8224_8226 8230 8234_8238 8240 8242_8243 8249_8250 8252 8254 8260 8298_8303 8319 8355_8356 8359"
_XFREE86_GLYPH_RANGES "8362_8364 8453 8467 8470 8482 8486 8494 8531_8532 8539_8542 8592_8597 8616 8706 8710 8719 8721_8722 8725 8729_8730 8734_8735 8745 8747 8776 8800_8801 8804_8805 8962 8976 8992_8993 9472 9474 9484 9488 9492 9496 9500 9508 9516 9524 9532 9552_9580 9600 9604 9608 9612 9616_9619 9632_9633 9642_9644 9650 9658 9660 9668 9674_9675 9679 9688_9689 9702 9786_9788 9792 9794 9824 9827 9829_9830 9834_9835 59393_59397 59416 59450 61441_61442 61444_61489 64257_64258 64285_64288 64298_64310"
_XFREE86_GLYPH_RANGES "64312_64316 64318 64320_64321 64323_64324 64326_64433 64467_64487 64508_64511 64606_64610 64830_64831 65010 65152_65276 65532"
ENDPROPERTIES
CHARS 1419
STARTCHAR 0020
ENCODING 32
SWIDTH 257 0
DWIDTH 5 0
BBX 1 1 0 0
BITMAP
00
ENDCHAR
STARTCHAR 0021
ENCODING 33
SWIDTH 308 0
DWIDTH 6 0
BBX 2 12 2 0
BITMAP
C0
C0
C0
C0
C0
80
80
80
00
00
C0
C0
ENDCHAR
STARTCHAR 0022
ENCODING 34
SWIDTH 411 0
DWIDTH 8 0
BBX 6 5 1 7
BITMAP
CC
CC
CC
88
88
ENDCHAR
STARTCHAR 0023
ENCODING 35
SWIDTH 514 0
DWIDTH 10 0
BBX 10 13 0 0
BITMAP
0880
0880
1100
1100
FFC0
1100
2200
2200
FFC0
2200
2200
4400
4400
ENDCHAR
STARTCHAR 0024
ENCODING 36
SWIDTH 462 0
DWIDTH 9 0
BBX 7 14 1 -1
BITMAP
10
7C
D6
D2
D0
70
30
18
1C
16
96
D6
7C
10
ENDCHAR
STARTCHAR 0025
ENCODING 37
SWIDTH 822 0
DWIDTH 16 0
BBX 16 12 0 0
BITMAP
7808
CC10
CC20
CC40
CC40
CC9E
7933
0233
0433
0833
0833
101E
ENDCHAR
STARTCHAR 0026
ENCODING 38
SWIDTH 771 0
DWIDTH 15 0
BBX 13 12 1 0
BITMAP
0F00
1880
1880
1880
1B00
0C78
1E20
6620
C340
C380
E388
7C70
ENDCHAR
STARTCHAR 0027
ENCODING 39
SWIDTH 205 0
DWIDTH 4 0
BBX 2 5 1 7
BITMAP
C0
C0
C0
80
80
ENDCHAR
STARTCHAR 0028
ENCODING 40
SWIDTH 308 0
DWIDTH 6 0
BBX 5 17 1 -4
BITMAP
08
10
20
60
40
C0
C0
C0
C0
C0
C0
C0
40
60
20
10
08
ENDCHAR
STARTCHAR 0029
ENCODING 41
SWIDTH 308 0
DWIDTH 6 0
BBX 5 17 0 -4
BITMAP
80
40
20
30
10
18
18
18
18
18
18
18
10
30
20
40
80
ENDCHAR
STARTCHAR 002A
ENCODING 42
SWIDTH 462 0
DWIDTH 9 0
BBX 7 8 1 5
BITMAP
10
10
D6
38
38
D6
10
10
ENDCHAR
STARTCHAR 002B
ENCODING 43
SWIDTH 565 0
DWIDTH 11 0
BBX 11 11 0 1
BITMAP
0400
0400
0400
0400
0400
FFE0
0400
0400
0400
0400
0400
ENDCHAR
STARTCHAR 002C
ENCODING 44
SWIDTH 257 0
DWIDTH 5 0
BBX 3 5 1 -3
BITMAP
C0
E0
20
40
80
ENDCHAR
STARTCHAR 002D
ENCODING 45
SWIDTH 308 0
DWIDTH 6 0
BBX 4 2 1 4
BITMAP
F0
F0
ENDCHAR
STARTCHAR 002E
ENCODING 46
SWIDTH 257 0
DWIDTH 5 0
BBX 2 2 1 0
BITMAP
C0
C0
ENDCHAR
STARTCHAR 002F
ENCODING 47
SWIDTH 257 0
DWIDTH 5 0
BBX 5 13 0 0
BITMAP
08
08
10
10
10
20
20
20
40
40
40
80
80
ENDCHAR
STARTCHAR 0030
ENCODING 48
SWIDTH 462 0
DWIDTH 9 0
BBX 8 12 0 0
BITMAP
3C
66
42
C3
C3
C3
C3
C3
C3
42
66
3C
ENDCHAR
STARTCHAR 0031
ENCODING 49
SWIDTH 462 0
DWIDTH 9 0
BBX 6 12 1 0
BITMAP
30
F0
30
30
30
30
30
30
30
30
30
FC
ENDCHAR
STARTCHAR 0032
ENCODING 50
SWIDTH 462 0
DWIDTH 9 0
BBX 8 12 0 0
BITMAP
3C
4E
86
06
06
04
08
18
10
21
7F
FE
ENDCHAR
STARTCHAR 0033
ENCODING 51
SWIDTH 462 0
DWIDTH 9 0
BBX 8 12 0 0
BITMAP
3C
CE
86
06
0C
1E
07
03
03
03
C6
F8
ENDCHAR
STARTCHAR 0034
ENCODING 52
SWIDTH 462 0
DWIDTH 9 0
BBX 8 12 0 0
BITMAP
06
06
0E
16
26
26
46
86
FF
06
06
06
ENDCHAR
STARTCHAR 0035
ENCODING 53
SWIDTH 462 0
DWIDTH 9 0
BBX 7 12 0 0
BITMAP
1E
3E
20
30
7C
0E
06
02
02
02
C4
F8
ENDCHAR
STARTCHAR 0036
ENCODING 54
SWIDTH 462 0
DWIDTH 9 0
BBX 8 12 0 0
BITMAP
07
1C
30
60
5C
E6
C3
C3
C3
C3
66
3C
ENDCHAR
STARTCHAR 0037
ENCODING 55
SWIDTH 462 0
DWIDTH 9 0
BBX 8 12 0 0
BITMAP
7F
7E
82
04
04
04
08
08
10
10
10
20
ENDCHAR
STARTCHAR 0038
ENCODING 56
SWIDTH 462 0
DWIDTH 9 0
BBX 7 12 1 0
BITMAP
7C
C6
C6
C6
68
38
6C
C6
C6
C6
E6
78
ENDCHAR
STARTCHAR 0039
ENCODING 57
SWIDTH 462 0
DWIDTH 9 0
BBX 8 12 0 0
BITMAP
3C
66
C3
C3
C3
C3
63
3E
06
0C
18
E0
ENDCHAR
STARTCHAR 003A
ENCODING 58
SWIDTH 205 0
DWIDTH 4 0
BBX 2 9 1 0
BITMAP
C0
C0
00
00
00
00
00
C0
C0
ENDCHAR
STARTCHAR 003B
ENCODING 59
SWIDTH 257 0
DWIDTH 5 0
BBX 3 12 1 -3
BITMAP
C0
C0
00
00
00
00
00
C0
E0
20
40
80
ENDCHAR
STARTCHAR 003C
ENCODING 60
SWIDTH 565 0
DWIDTH 11 0
BBX 10 9 0 2
BITMAP
0040
0380
0C00
7000
8000
7000
0C00
0380
0040
ENDCHAR
STARTCHAR 003D
ENCODING 61
SWIDTH 565 0
DWIDTH 11 0
BBX 10 4 0 4
BITMAP
FFC0
0000
0000
FFC0
ENDCHAR
STARTCHAR 003E
ENCODING 62
SWIDTH 565 0
DWIDTH 11 0
BBX 10 9 0 2
BITMAP
8000
7000
0C00
0380
0040
0380
0C00
7000
8000
ENDCHAR
STARTCHAR 003F
ENCODING 63
SWIDTH 411 0
DWIDTH 8 0
BBX 7 12 1 0
BITMAP
78
8C
C6
C6
04
08
10
20
20
00
30
30
ENDCHAR
STARTCHAR 0040
ENCODING 64
SWIDTH 874 0
DWIDTH 17 0
BBX 16 18 1 -5
BITMAP
03E0
0C18
100C
2194
4372
4632
CC22
8C22
9862
9844
98C4
9BC8
8CF1
4002
4004
2008
1810
07E0
ENDCHAR
STARTCHAR 0041
ENCODING 65
SWIDTH 668 0
DWIDTH 13 0
BBX 13 12 0 0
BITMAP
0300
0300
0580
0580
0980
08C0
10C0
1FC0
1060
2060
6070
F0F8
ENDCHAR
STARTCHAR 0042
ENCODING 66
SWIDTH 617 0
DWIDTH 12 0
BBX 11 12 0 0
BITMAP
FF80
30C0
30C0
30C0
30C0
3F80
30C0
3060
3060
3060
30C0
FF80
ENDCHAR
STARTCHAR 0043
ENCODING 67
SWIDTH 668 0
DWIDTH 13 0
BBX 11 12 1 0
BITMAP
0F20
30E0
6020
4020
C000
C000
C000
C000
C000
6020
3040
1F80
ENDCHAR
STARTCHAR 0044
ENCODING 68
SWIDTH 668 0
DWIDTH 13 0
BBX 12 12 0 0
BITMAP
FF80
30C0
3060
3030
3030
3030
3030
3030
3030
3060
30C0
FF00
ENDCHAR
STARTCHAR 0045
ENCODING 69
SWIDTH 565 0
DWIDTH 11 0
BBX 11 12 0 0
BITMAP
FFC0
3040
3040
3100
3100
3F00
3100
3100
3000
3020
3040
FFC0
ENDCHAR
STARTCHAR 0046
ENCODING 70
SWIDTH 565 0
DWIDTH 11 0
BBX 10 12 0 0
BITMAP
FFC0
3040
3040
3100
3100
3F00
3100
3100
3000
3000
3000
FC00
ENDCHAR
STARTCHAR 0047
ENCODING 71
SWIDTH 720 0
DWIDTH 14 0
BBX 13 12 1 0
BITMAP
0F20
30E0
6020
4020
C000
C1F8
C060
C060
E060
6060
3860
0FC0
ENDCHAR
STARTCHAR 0048
ENCODING 72
SWIDTH 668 0
DWIDTH 13 0
BBX 13 12 0 0
BITMAP
FDF8
3060
3060
3060
3060
3FE0
3060
3060
3060
3060
3060
FDF8
ENDCHAR
STARTCHAR 0049
ENCODING 73
SWIDTH 308 0
DWIDTH 6 0
BBX 6 12 0 0
BITMAP
FC
30
30
30
30
30
30
30
30
30
30
FC
ENDCHAR
STARTCHAR 004A
ENCODING 74
SWIDTH 360 0
DWIDTH 7 0
BBX 7 12 0 0
BITMAP
7E
18
18
18
18
18
18
18
18
18
D0
70
ENDCHAR
STARTCHAR 004B
ENCODING 75
SWIDTH 668 0
DWIDTH 13 0
BBX 13 12 0 0
BITMAP
FCF0
3060
3080
3100
3200
3C00
3600
3300
3180
30C0
3060
FCF8
ENDCHAR
STARTCHAR 004C
ENCODING 76
SWIDTH 565 0
DWIDTH 11 0
BBX 11 12 0 0
BITMAP
FC00
3000
3000
3000
3000
3000
3000
3000
3020
3020
3040
FFC0
ENDCHAR
STARTCHAR 004D
ENCODING 77
SWIDTH 822 0
DWIDTH 16 0
BBX 16 12 0 0
BITMAP
F00F
381C
381C
2C2C
2C2C
244C
264C
264C
238C
238C
210C
F93F
ENDCHAR
STARTCHAR 004E
ENCODING 78
SWIDTH 668 0
DWIDTH 13 0
BBX 13 12 0 0
BITMAP
E0F8
7020
3820
3C20
2C20
2620
2320
21A0
21E0
20E0
2060
F820
ENDCHAR
STARTCHAR 004F
ENCODING 79
SWIDTH 720 0
DWIDTH 14 0
BBX 12 12 1 0
BITMAP
0F80
30C0
6060
6030
C030
C030
C030
C030
C020
6060
30C0
0F00
ENDCHAR
STARTCHAR 0050
ENCODING 80
SWIDTH 565 0
DWIDTH 11 0
BBX 10 12 0 0
BITMAP
FF00
3180
30C0
30C0
30C0
3180
3F00
3000
3000
3000
3000
FC00
ENDCHAR
STARTCHAR 0051
ENCODING 81
SWIDTH 720 0
DWIDTH 14 0
BBX 12 16 1 -4
BITMAP
0F00
30C0
6060
4020
C030
C030
C030
C030
C020
6060
30C0
1F00
0E00
0300
01C0
0070
ENDCHAR
STARTCHAR 0052
ENCODING 82
SWIDTH 668 0
DWIDTH 13 0
BBX 13 12 0 0
BITMAP
FF00
3180
30C0
30C0
30C0
3180
3E00
3300
3180
30C0
3060
FC38
ENDCHAR
STARTCHAR 0053
ENCODING 83
SWIDTH 565 0
DWIDTH 11 0
BBX 9 12 1 0
BITMAP
3D00
6300
C100
C100
7000
3C00
0F00
0380
8180
8180
E300
9E00
ENDCHAR
STARTCHAR 0054
ENCODING 84
SWIDTH 617 0
DWIDTH 12 0
BBX 12 12 0 0
BITMAP
FFF0
C630
8610
0600
0600
0600
0600
0600
0600
0600
0600
1F80
ENDCHAR
STARTCHAR 0055
ENCODING 85
SWIDTH 668 0
DWIDTH 13 0
BBX 13 12 0 0
BITMAP
FCF8
3020
3020
3020
3020
3020
3020
3020
3020
3020
1840
0F80
ENDCHAR
STARTCHAR 0056
ENCODING 86
SWIDTH 668 0
DWIDTH 13 0
BBX 13 12 0 0
BITMAP
F878
3010
3020
1820
1840
0C40
0C40
0680
0680
0300
0300
0100
ENDCHAR
STARTCHAR 0057
ENCODING 87
SWIDTH 925 0
DWIDTH 18 0
BBX 18 12 0 0
BITMAP
FBE3C0
30C180
304100
186100
18E200
18A200
0CB600
0D3400
0D1400
061C00
061800
020800
ENDCHAR
STARTCHAR 0058
ENCODING 88
SWIDTH 668 0
DWIDTH 13 0
BBX 13 12 0 0
BITMAP
FC78
3020
1840
0C80
0F00
0600
0300
0580
0980
10C0
2060
F0F8
ENDCHAR
STARTCHAR 0059
ENCODING 89
SWIDTH 668 0
DWIDTH 13 0
BBX 13 12 0 0
BITMAP
FC78
3010
1820
0C40
0C40
0680
0300
0300
0300
0300
0300
0FC0
ENDCHAR
STARTCHAR 005A
ENCODING 90
SWIDTH 565 0
DWIDTH 11 0
BBX 11 12 0 0
BITMAP
7FE0
40C0
4180
0300
0300
0600
0C00
1800
3000
3020
6060
FFC0
ENDCHAR
STARTCHAR 005B
ENCODING 91
SWIDTH 308 0
DWIDTH 6 0
BBX 4 17 1 -4
BITMAP
F0
C0
C0
C0
C0
C0
C0
C0
C0
C0
C0
C0
C0
C0
C0
C0
F0
ENDCHAR
STARTCHAR 005C
ENCODING 92
SWIDTH 257 0
DWIDTH 5 0
BBX 5 13 0 0
BITMAP
80
80
40
40
40
20
20
20
10
10
10
08
08
ENDCHAR
STARTCHAR 005D
ENCODING 93
SWIDTH 308 0
DWIDTH 6 0
BBX 4 17 1 -4
BITMAP
F0
30
30
30
30
30
30
30
30
30
30
30
30
30
30
30
F0
ENDCHAR
STARTCHAR 005E
ENCODING 94
SWIDTH 411 0
DWIDTH 8 0
BBX 8 7 0 5
BITMAP
18
24
24
64
42
42
81
ENDCHAR
STARTCHAR 005F
ENCODING 95
SWIDTH 514 0
DWIDTH 10 0
BBX 10 1 0 -4
BITMAP
FFC0
ENDCHAR
STARTCHAR 0060
ENCODING 96
SWIDTH 308 0
DWIDTH 6 0
BBX 3 3 1 10
BITMAP
C0
40
20
ENDCHAR
STARTCHAR 0061
ENCODING 97
SWIDTH 411 0
DWIDTH 8 0
BBX 6 9 1 0
BITMAP
78
CC
CC
1C
6C
CC
CC
CC
7C
ENDCHAR
STARTCHAR 0062
ENCODING 98
SWIDTH 514 0
DWIDTH 10 0
BBX 9 13 0 0
BITMAP
6000
E000
6000
6000
6E00
7300
6180
6180
6180
6180
6180
6300
3E00
ENDCHAR
STARTCHAR 0063
ENCODING 99
SWIDTH 462 0
DWIDTH 9 0
BBX 7 9 1 0
BITMAP
3C
66
C2
C0
C0
C0
E2
7C
38
ENDCHAR
STARTCHAR 0064
ENCODING 100
SWIDTH 514 0
DWIDTH 10 0
BBX 9 13 1 0
BITMAP
0300
0700
0300
0300
3B00
6700
C300
C300
C300
C300
C300
6780
3B00
ENDCHAR
STARTCHAR 0065
ENCODING 101
SWIDTH 411 0
DWIDTH 8 0
BBX 7 9 1 0
BITMAP
38
64
C6
FE
C0
C0
E2
7C
38
ENDCHAR
STARTCHAR 0066
ENCODING 102
SWIDTH 308 0
DWIDTH 6 0
BBX 8 13 0 0
BITMAP
0E
13
30
30
FC
30
30
30
30
30
30
30
FC
ENDCHAR
STARTCHAR 0067
ENCODING 103
SWIDTH 462 0
DWIDTH 9 0
BBX 9 13 0 -4
BITMAP
3C00
6780
6300
6300
3300
3E00
4000
7F00
3F80
4080
8080
C100
7E00
ENDCHAR
STARTCHAR 0068
ENCODING 104
SWIDTH 462 0
DWIDTH 9 0
BBX 9 13 0 0
BITMAP
6000
E000
6000
6000
6E00
7300
6300
6300
6300
6300
6300
6300
F780
ENDCHAR
STARTCHAR 0069
ENCODING 105
SWIDTH 205 0
DWIDTH 4 0
BBX 4 13 0 0
BITMAP
60
60
00
00
60
E0
60
60
60
60
60
60
F0
ENDCHAR
STARTCHAR 006A
ENCODING 106
SWIDTH 205 0
DWIDTH 4 0
BBX 5 17 -2 -4
BITMAP
18
18
00
00
18
38
18
18
18
18
18
18
18
18
18
D0
E0
ENDCHAR
STARTCHAR 006B
ENCODING 107
SWIDTH 462 0
DWIDTH 9 0
BBX 9 13 0 0
BITMAP
6000
E000
6000
6000
6780
6200
6400
6800
7800
6C00
6600
6300
F780
ENDCHAR
STARTCHAR 006C
ENCODING 108
SWIDTH 205 0
DWIDTH 4 0
BBX 4 13 0 0
BITMAP
60
E0
60
60
60
60
60
60
60
60
60
60
F0
ENDCHAR
STARTCHAR 006D
ENCODING 109
SWIDTH 720 0
DWIDTH 14 0
BBX 14 9 0 0
BITMAP
6E70
F398
6318
6318
6318
6318
6318
6318
F7BC
ENDCHAR
STARTCHAR 006E
ENCODING 110
SWIDTH 462 0
DWIDTH 9 0
BBX 9 9 0 0
BITMAP
6E00
F300
6300
6300
6300
6300
6300
6300
F780
ENDCHAR
STARTCHAR 006F
ENCODING 111
SWIDTH 514 0
DWIDTH 10 0
BBX 8 9 1 0
BITMAP
3C
66
C3
C3
C3
C3
C3
66
3C
ENDCHAR
STARTCHAR 0070
ENCODING 112
SWIDTH 514 0
DWIDTH 10 0
BBX 9 13 0 -4
BITMAP
6E00
F300
6180
6180
6180
6180
6180
7300
6E00
6000
6000
6000
F000
ENDCHAR
STARTCHAR 0071
ENCODING 113
SWIDTH 514 0
DWIDTH 10 0
BBX 9 13 1 -4
BITMAP
3B00
6700
C300
C300
C300
C300
C300
6700
3B00
0300
0300
0300
0780
ENDCHAR
STARTCHAR 0072
ENCODING 114
SWIDTH 308 0
DWIDTH 6 0
BBX 6 9 0 0
BITMAP
6C
F4
60
60
60
60
60
60
F0
ENDCHAR
STARTCHAR 0073
ENCODING 115
SWIDTH 411 0
DWIDTH 8 0
BBX 6 9 1 0
BITMAP
74
8C
84
E0
78
1C
84
C4
B8
ENDCHAR
STARTCHAR 0074
ENCODING 116
SWIDTH 257 0
DWIDTH 5 0
BBX 5 12 0 0
BITMAP
20
60
60
F8
60
60
60
60
60
60
68
70
ENDCHAR
STARTCHAR 0075
ENCODING 117
SWIDTH 462 0
DWIDTH 9 0
BBX 9 9 0 0
BITMAP
E700
6300
6300
6300
6300
6300
6300
6780
3B00
ENDCHAR
STARTCHAR 0076
ENCODING 118
SWIDTH 462 0
DWIDTH 9 0
BBX 9 9 0 0
BITMAP
F380
6100
6100
3200
3200
3200
1C00
1C00
0800
ENDCHAR
STARTCHAR 0077
ENCODING 119
SWIDTH 668 0
DWIDTH 13 0
BBX 13 9 0 0
BITMAP
F7B8
6310
6310
33A0
35A0
35A0
1CE0
18C0
0840
ENDCHAR
STARTCHAR 0078
ENCODING 120
SWIDTH 462 0
DWIDTH 9 0
BBX 9 9 0 0
BITMAP
F780
6200
3400
1800
0800
1C00
2600
4300
E780
ENDCHAR
STARTCHAR 0079
ENCODING 121
SWIDTH 462 0
DWIDTH 9 0
BBX 10 13 -1 -4
BITMAP
F9C0
7080
3080
1900
1900
0E00
0E00
0600
0400
0400
0C00
7800
7000
ENDCHAR
STARTCHAR 007A
ENCODING 122
SWIDTH 411 0
DWIDTH 8 0
BBX 8 9 0 0
BITMAP
7F
46
06
0C
18
30
30
61
FF
ENDCHAR
STARTCHAR 007B
ENCODING 123
SWIDTH 462 0
DWIDTH 9 0
BBX 6 17 1 -4
BITMAP
0C
18
30
30
30
30
30
60
80
60
30
30
30
30
30
18
0C
ENDCHAR
STARTCHAR 007C
ENCODING 124
SWIDTH 154 0
DWIDTH 3 0
BBX 1 17 1 -4
BITMAP
80
80
80
80
80
80
80
80
80
80
80
80
80
80
80
80
80
ENDCHAR
STARTCHAR 007D
ENCODING 125
SWIDTH 462 0
DWIDTH 9 0
BBX 6 17 2 -4
BITMAP
C0
60
30
30
30
30
30
18
04
18
30
30
30
30
30
60
C0
ENDCHAR
STARTCHAR 007E
ENCODING 126
SWIDTH 514 0
DWIDTH 10 0
BBX 9 3 0 3
BITMAP
7080
9C80
8700
ENDCHAR
STARTCHAR 00A0
ENCODING 160
SWIDTH 257 0
DWIDTH 5 0
BBX 1 1 0 0
BITMAP
00
ENDCHAR
STARTCHAR 00A1
ENCODING 161
SWIDTH 308 0
DWIDTH 6 0
BBX 2 13 2 -4
BITMAP
C0
C0
00
00
40
40
40
40
C0
C0
C0
C0
C0
ENDCHAR
STARTCHAR 00A2
ENCODING 162
SWIDTH 462 0
DWIDTH 9 0
BBX 7 15 1 -3
BITMAP
02
04
04
3C
6E
CE
D0
D0
D2
E6
7C
78
40
40
80
ENDCHAR
STARTCHAR 00A3
ENCODING 163
SWIDTH 514 0
DWIDTH 10 0
BBX 10 12 0 0
BITMAP
0700
0980
1800
1800
1800
1800
7E00
1800
1800
7840
BF80
E780
ENDCHAR
STARTCHAR 00A4
ENCODING 164
SWIDTH 514 0
DWIDTH 10 0
BBX 8 8 1 2
BITMAP
BD
42
81
81
81
81
42
BD
ENDCHAR
STARTCHAR 00A5
ENCODING 165
SWIDTH 514 0
DWIDTH 10 0
BBX 10 12 0 0
BITMAP
F1C0
6080
3100
3100
1A00
1A00
7F80
0C00
7F80
0C00
0C00
3F00
ENDCHAR
STARTCHAR 00A6
ENCODING 166
SWIDTH 154 0
DWIDTH 3 0
BBX 1 17 1 -4
BITMAP
80
80
80
80
80
80
80
00
00
00
80
80
80
80
80
80
80
ENDCHAR
STARTCHAR 00A7
ENCODING 167
SWIDTH 462 0
DWIDTH 9 0
BBX 7 16 1 -4
BITMAP
3C
46
46
60
30
58
8C
86
C2
E2
74
18
0C
C4
C4
78
ENDCHAR
STARTCHAR 00A8
ENCODING 168
SWIDTH 360 0
DWIDTH 7 0
BBX 5 2 1 10
BITMAP
D8
D8
ENDCHAR
STARTCHAR 00A9
ENCODING 169
SWIDTH 720 0
DWIDTH 14 0
BBX 12 12 1 0
BITMAP
0F00
30C0
4FA0
58A0
B010
B010
B010
B010
58A0
4F20
30C0
0F00
ENDCHAR
STARTCHAR 00AA
ENCODING 170
SWIDTH 257 0
DWIDTH 5 0
BBX 5 6 0 6
BITMAP
70
90
30
50
90
F8
ENDCHAR
STARTCHAR 00AB
ENCODING 171
SWIDTH 514 0
DWIDTH 10 0
BBX 9 9 0 0
BITMAP
0880
1100
2200
6600
CC00
6600
2200
1100
0880
ENDCHAR
STARTCHAR 00AC
ENCODING 172
SWIDTH 565 0
DWIDTH 11 0
BBX 10 4 0 4
BITMAP
FFC0
0040
0040
0040
ENDCHAR
STARTCHAR 00AD
ENCODING 173
SWIDTH 308 0
DWIDTH 6 0
BBX 4 2 1 4
BITMAP
F0
F0
ENDCHAR
STARTCHAR 00AE
ENCODING 174
SWIDTH 720 0
DWIDTH 14 0
BBX 13 12 1 0
BITMAP
0F80
3060
7FB0
4CD0
8CC8
8F08
8F08
8D88
4CD0
7E70
3060
0F80
ENDCHAR
STARTCHAR 00AF
ENCODING 175
SWIDTH 514 0
DWIDTH 10 0
BBX 10 1 0 14
BITMAP
FFC0
ENDCHAR
STARTCHAR 00B0
ENCODING 176
SWIDTH 411 0
DWIDTH 8 0
BBX 6 6 1 6
BITMAP
78
CC
84
84
CC
78
ENDCHAR
STARTCHAR 00B1
ENCODING 177
SWIDTH 514 0
DWIDTH 10 0
BBX 9 10 0 1
BITMAP
0800
0800
0800
0800
FF80
0800
0800
0800
0800
FF80
ENDCHAR
STARTCHAR 00B2
ENCODING 178
SWIDTH 308 0
DWIDTH 6 0
BBX 5 7 0 5
BITMAP
70
88
08
10
20
40
F8
ENDCHAR
STARTCHAR 00B3
ENCODING 179
SWIDTH 257 0
DWIDTH 5 0
BBX 4 7 0 5
BITMAP
60
90
20
60
10
10
E0
ENDCHAR
STARTCHAR 00B4
ENCODING 180
SWIDTH 308 0
DWIDTH 6 0
BBX 3 3 2 10
BITMAP
60
C0
80
ENDCHAR
STARTCHAR 00B5
ENCODING 181
SWIDTH 565 0
DWIDTH 11 0
BBX 10 13 1 -4
BITMAP
6300
6300
6300
6300
6300
6300
6300
6740
7B80
4000
C000
C000
C000
ENDCHAR
STARTCHAR 00B6
ENCODING 182
SWIDTH 462 0
DWIDTH 9 0
BBX 9 16 0 -4
BITMAP
3F80
7900
F900
F900
F900
7900
3900
0900
0900
0900
0900
0900
0900
0900
0900
0900
ENDCHAR
STARTCHAR 00B7
ENCODING 183
SWIDTH 257 0
DWIDTH 5 0
BBX 2 2 1 5
BITMAP
C0
C0
ENDCHAR
STARTCHAR 00B8
ENCODING 184
SWIDTH 308 0
DWIDTH 6 0
BBX 3 4 2 -4
BITMAP
40
C0
60
C0
ENDCHAR
STARTCHAR 00B9
ENCODING 185
SWIDTH 308 0
DWIDTH 6 0
BBX 3 7 1 5
BITMAP
40
C0
40
40
40
40
E0
ENDCHAR
STARTCHAR 00BA
ENCODING 186
SWIDTH 308 0
DWIDTH 6 0
BBX 5 6 0 6
BITMAP
70
98
88
88
C8
70
ENDCHAR
STARTCHAR 00BB
ENCODING 187
SWIDTH 514 0
DWIDTH 10 0
BBX 9 9 0 0
BITMAP
8800
4400
2200
3300
1980
3300
2200
4400
8800
ENDCHAR
STARTCHAR 00BC
ENCODING 188
SWIDTH 771 0
DWIDTH 15 0
BBX 14 12 1 0
BITMAP
4010
C020
4040
4040
4080
4108
E218
0428
0848
087C
1008
2008
ENDCHAR
STARTCHAR 00BD
ENCODING 189
SWIDTH 720 0
DWIDTH 14 0
BBX 12 12 1 0
BITMAP
4040
C080
4080
4100
4200
42E0
E510
0810
0820
1040
2080
41F0
ENDCHAR
STARTCHAR 00BE
ENCODING 190
SWIDTH 720 0
DWIDTH 14 0
BBX 14 12 0 0
BITMAP
6020
9020
2040
7080
1100
1108
E218
0428
0448
087C
1008
2008
ENDCHAR
STARTCHAR 00BF
ENCODING 191
SWIDTH 411 0
DWIDTH 8 0
BBX 7 13 0 -4
BITMAP
18
18
00
08
08
10
20
40
C0
C6
C6
62
3C
ENDCHAR
STARTCHAR 00C0
ENCODING 192
SWIDTH 668 0
DWIDTH 13 0
BBX 13 16 0 0
BITMAP
0600
0200
0100
0000
0300
0300
0580
0580
0980
08C0
10C0
1FC0
1060
2060
6070
F0F8
ENDCHAR
STARTCHAR 00C1
ENCODING 193
SWIDTH 668 0
DWIDTH 13 0
BBX 13 16 0 0
BITMAP
0180
0300
0200
0000
0300
0300
0580
0580
0980
08C0
10C0
1FC0
1060
2060
6070
F0F8
ENDCHAR
STARTCHAR 00C2
ENCODING 194
SWIDTH 668 0
DWIDTH 13 0
BBX 13 16 0 0
BITMAP
0380
0280
0440
0000
0300
0300
0580
0580
0980
08C0
10C0
1FC0
1060
2060
6070
F0F8
ENDCHAR
STARTCHAR 00C3
ENCODING 195
SWIDTH 668 0
DWIDTH 13 0
BBX 13 15 0 0
BITMAP
0640
0980
0000
0300
0300
0580
0580
0980
08C0
10C0
1FC0
1060
2060
6070
F0F8
ENDCHAR
STARTCHAR 00C4
ENCODING 196
SWIDTH 668 0
DWIDTH 13 0
BBX 13 15 0 0
BITMAP
06C0
06C0
0000
0300
0300
0580
0580
0980
08C0
10C0
1FC0
1060
2060
6070
F0F8
ENDCHAR
STARTCHAR 00C5
ENCODING 197
SWIDTH 668 0
DWIDTH 13 0
BBX 13 15 0 0
BITMAP
0300
0480
0480
0300
0300
0580
0580
0980
08C0
10C0
1FC0
1060
2060
6070
F0F8
ENDCHAR
STARTCHAR 00C6
ENCODING 198
SWIDTH 925 0
DWIDTH 18 0
BBX 18 12 0 0
BITMAP
07FF80
01C180
02C080
02C200
04C200
08FE00
0FC200
10C200
10C000
20C040
60C080
F3FF80
ENDCHAR
STARTCHAR 00C7
ENCODING 199
SWIDTH 668 0
DWIDTH 13 0
BBX 11 16 1 -4
BITMAP
0F20
30E0
6020
4020
C000
C000
C000
C000
C000
6020
3040
1F80
0400
0C00
0600
0C00
ENDCHAR
STARTCHAR 00C8
ENCODING 200
SWIDTH 565 0
DWIDTH 11 0
BBX 11 16 0 0
BITMAP
0C00
0400
0200
0000
FFC0
3040
3040
3100
3100
3F00
3100
3100
3000
3020
3040
FFC0
ENDCHAR
STARTCHAR 00C9
ENCODING 201
SWIDTH 565 0
DWIDTH 11 0
BBX 11 16 0 0
BITMAP
0300
0600
0400
0000
FFC0
3040
3040
3100
3100
3F00
3100
3100
3000
3020
3040
FFC0
ENDCHAR
STARTCHAR 00CA
ENCODING 202
SWIDTH 565 0
DWIDTH 11 0
BBX 11 16 0 0
BITMAP
0700
0500
0880
0000
FFC0
3040
3040
3100
3100
3F00
3100
3100
3000
3020
3040
FFC0
ENDCHAR
STARTCHAR 00CB
ENCODING 203
SWIDTH 565 0
DWIDTH 11 0
BBX 11 15 0 0
BITMAP
0D80
0D80
0000
FFC0
3040
3040
3100
3100
3F00
3100
3100
3000
3020
3040
FFC0
ENDCHAR
STARTCHAR 00CC
ENCODING 204
SWIDTH 308 0
DWIDTH 6 0
BBX 6 16 0 0
BITMAP
60
20
10
00
FC
30
30
30
30
30
30
30
30
30
30
FC
ENDCHAR
STARTCHAR 00CD
ENCODING 205
SWIDTH 308 0
DWIDTH 6 0
BBX 6 16 0 0
BITMAP
18
30
20
00
FC
30
30
30
30
30
30
30
30
30
30
FC
ENDCHAR
STARTCHAR 00CE
ENCODING 206
SWIDTH 308 0
DWIDTH 6 0
BBX 6 16 0 0
BITMAP
38
28
44
00
FC
30
30
30
30
30
30
30
30
30
30
FC
ENDCHAR
STARTCHAR 00CF
ENCODING 207
SWIDTH 308 0
DWIDTH 6 0
BBX 6 15 0 0
BITMAP
6C
6C
00
FC
30
30
30
30
30
30
30
30
30
30
FC
ENDCHAR
STARTCHAR 00D0
ENCODING 208
SWIDTH 720 0
DWIDTH 14 0
BBX 13 12 0 0
BITMAP
FF80
30E0
3030
3038
3018
FF18
3018
3018
3030
3030
30E0
FF80
ENDCHAR
STARTCHAR 00D1
ENCODING 209
SWIDTH 668 0
DWIDTH 13 0
BBX 13 15 0 0
BITMAP
0640
0980
0000
E0F8
7020
3820
3C20
2C20
2620
2320
21A0
21E0
20E0
2060
F820
ENDCHAR
STARTCHAR 00D2
ENCODING 210
SWIDTH 720 0
DWIDTH 14 0
BBX 12 16 1 0
BITMAP
0C00
0400
0200
0000
0F80
30C0
6060
6030
C030
C030
C030
C030
C020
6060
30C0
0F00
ENDCHAR
STARTCHAR 00D3
ENCODING 211
SWIDTH 720 0
DWIDTH 14 0
BBX 12 16 1 0
BITMAP
0300
0600
0400
0000
0F80
30C0
6060
6030
C030
C030
C030
C030
C020
6060
30C0
0F00
ENDCHAR
STARTCHAR 00D4
ENCODING 212
SWIDTH 720 0
DWIDTH 14 0
BBX 12 16 1 0
BITMAP
0700
0500
0880
0000
0F80
30C0
6060
6030
C030
C030
C030
C030
C020
6060
30C0
0F00
ENDCHAR
STARTCHAR 00D5
ENCODING 213
SWIDTH 720 0
DWIDTH 14 0
BBX 12 15 1 0
BITMAP
0C80
1300
0000
0F80
30C0
6060
6030
C030
C030
C030
C030
C020
6060
30C0
0F00
ENDCHAR
STARTCHAR 00D6
ENCODING 214
SWIDTH 720 0
DWIDTH 14 0
BBX 12 15 1 0
BITMAP
0D80
0D80
0000
0F80
30C0
6060
6030
C030
C030
C030
C030
C020
6060
30C0
0F00
ENDCHAR
STARTCHAR 00D7
ENCODING 215
SWIDTH 565 0
DWIDTH 11 0
BBX 8 8 1 2
BITMAP
81
42
24
18
18
24
42
81
ENDCHAR
STARTCHAR 00D8
ENCODING 216
SWIDTH 720 0
DWIDTH 14 0
BBX 12 12 1 0
BITMAP
1F20
30E0
6060
C0A0
C130
C230
C430
C830
5030
6060
70C0
4F00
ENDCHAR
STARTCHAR 00D9
ENCODING 217
SWIDTH 668 0
DWIDTH 13 0
BBX 13 16 0 0
BITMAP
0600
0200
0100
0000
FCF8
3020
3020
3020
3020
3020
3020
3020
3020
3020
1840
0F80
ENDCHAR
STARTCHAR 00DA
ENCODING 218
SWIDTH 668 0
DWIDTH 13 0
BBX 13 16 0 0
BITMAP
0180
0300
0200
0000
FCF8
3020
3020
3020
3020
3020
3020
3020
3020
3020
1840
0F80
ENDCHAR
STARTCHAR 00DB
ENCODING 219
SWIDTH 668 0
DWIDTH 13 0
BBX 13 16 0 0
BITMAP
0700
0500
0880
0000
FCF8
3020
3020
3020
3020
3020
3020
3020
3020
3020
1840
0F80
ENDCHAR
STARTCHAR 00DC
ENCODING 220
SWIDTH 668 0
DWIDTH 13 0
BBX 13 15 0 0
BITMAP
06C0
06C0
0000
FCF8
3020
3020
3020
3020
3020
3020
3020
3020
3020
1840
0F80
ENDCHAR
STARTCHAR 00DD
ENCODING 221
SWIDTH 668 0
DWIDTH 13 0
BBX 13 16 0 0
BITMAP
00C0
0180
0100
0000
FC78
3010
1820
0C40
0C40
0680
0300
0300
0300
0300
0300
0FC0
ENDCHAR
STARTCHAR 00DE
ENCODING 222
SWIDTH 565 0
DWIDTH 11 0
BBX 10 12 0 0
BITMAP
FC00
3000
3000
3F00
31C0
30C0
30C0
31C0
3F00
3000
3000
FC00
ENDCHAR
STARTCHAR 00DF
ENCODING 223
SWIDTH 462 0
DWIDTH 9 0
BBX 8 13 0 0
BITMAP
3C
66
66
66
64
6C
66
63
63
63
63
7A
EC
ENDCHAR
STARTCHAR 00E0
ENCODING 224
SWIDTH 411 0
DWIDTH 8 0
BBX 6 13 1 0
BITMAP
60
20
10
00
78
CC
CC
1C
6C
CC
CC
CC
7C
ENDCHAR
STARTCHAR 00E1
ENCODING 225
SWIDTH 411 0
DWIDTH 8 0
BBX 6 13 1 0
BITMAP
18
30
20
00
78
CC
CC
1C
6C
CC
CC
CC
7C
ENDCHAR
STARTCHAR 00E2
ENCODING 226
SWIDTH 411 0
DWIDTH 8 0
BBX 6 13 1 0
BITMAP
38
28
44
00
78
CC
CC
1C
6C
CC
CC
CC
7C
ENDCHAR
STARTCHAR 00E3
ENCODING 227
SWIDTH 411 0
DWIDTH 8 0
BBX 6 12 1 0
BITMAP
64
98
00
78
CC
CC
1C
6C
CC
CC
CC
7C
ENDCHAR
STARTCHAR 00E4
ENCODING 228
SWIDTH 411 0
DWIDTH 8 0
BBX 6 12 1 0
BITMAP
6C
6C
00
78
CC
CC
1C
6C
CC
CC
CC
7C
ENDCHAR
STARTCHAR 00E5
ENCODING 229
SWIDTH 411 0
DWIDTH 8 0
BBX 6 14 1 0
BITMAP
30
48
48
30
00
78
CC
CC
1C
6C
CC
CC
CC
7C
ENDCHAR
STARTCHAR 00E6
ENCODING 230
SWIDTH 668 0
DWIDTH 13 0
BBX 11 9 1 0
BITMAP
7B80
CC40
CC60
1FE0
6C00
CC00
CE20
CFC0
7380
ENDCHAR
STARTCHAR 00E7
ENCODING 231
SWIDTH 462 0
DWIDTH 9 0
BBX 7 13 1 -4
BITMAP
3C
66
C2
C0
C0
C0
E2
7C
38
10
30
18
30
ENDCHAR
STARTCHAR 00E8
ENCODING 232
SWIDTH 411 0
DWIDTH 8 0
BBX 7 13 1 0
BITMAP
60
20
10
00
38
64
C6
FE
C0
C0
E2
7C
38
ENDCHAR
STARTCHAR 00E9
ENCODING 233
SWIDTH 411 0
DWIDTH 8 0
BBX 7 13 1 0
BITMAP
0C
18
10
00
38
64
C6
FE
C0
C0
E2
7C
38
ENDCHAR
STARTCHAR 00EA
ENCODING 234
SWIDTH 411 0
DWIDTH 8 0
BBX 7 13 1 0
BITMAP
38
28
44
00
38
64
C6
FE
C0
C0
E2
7C
38
ENDCHAR
STARTCHAR 00EB
ENCODING 235
SWIDTH 411 0
DWIDTH 8 0
BBX 7 12 1 0
BITMAP
6C
6C
00
38
64
C6
FE
C0
C0
E2
7C
38
ENDCHAR
STARTCHAR 00EC
ENCODING 236
SWIDTH 308 0
DWIDTH 6 0
BBX 4 13 1 0
BITMAP
C0
40
20
00
60
E0
60
60
60
60
60
60
F0
ENDCHAR
STARTCHAR 00ED
ENCODING 237
SWIDTH 308 0
DWIDTH 6 0
BBX 4 13 1 0
BITMAP
30
60
40
00
60
E0
60
60
60
60
60
60
F0
ENDCHAR
STARTCHAR 00EE
ENCODING 238
SWIDTH 308 0
DWIDTH 6 0
BBX 5 13 0 0
BITMAP
70
50
88
00
30
70
30
30
30
30
30
30
78
ENDCHAR
STARTCHAR 00EF
ENCODING 239
SWIDTH 308 0
DWIDTH 6 0
BBX 5 12 0 0
BITMAP
D8
D8
00
30
70
30
30
30
30
30
30
78
ENDCHAR
STARTCHAR 00F0
ENCODING 240
SWIDTH 514 0
DWIDTH 10 0
BBX 8 13 1 0
BITMAP
24
18
28
0C
3E
66
C3
C3
C3
C3
C3
66
3C
ENDCHAR
STARTCHAR 00F1
ENCODING 241
SWIDTH 462 0
DWIDTH 9 0
BBX 9 12 0 0
BITMAP
1900
2600
0000
6E00
F300
6300
6300
6300
6300
6300
6300
F780
ENDCHAR
STARTCHAR 00F2
ENCODING 242
SWIDTH 514 0
DWIDTH 10 0
BBX 8 13 1 0
BITMAP
30
10
08
00
3C
66
C3
C3
C3
C3
C3
66
3C
ENDCHAR
STARTCHAR 00F3
ENCODING 243
SWIDTH 514 0
DWIDTH 10 0
BBX 8 13 1 0
BITMAP
0C
18
10
00
3C
66
C3
C3
C3
C3
C3
66
3C
ENDCHAR
STARTCHAR 00F4
ENCODING 244
SWIDTH 514 0
DWIDTH 10 0
BBX 8 13 1 0
BITMAP
38
28
44
00
3C
66
C3
C3
C3
C3
C3
66
3C
ENDCHAR
STARTCHAR 00F5
ENCODING 245
SWIDTH 514 0
DWIDTH 10 0
BBX 8 12 1 0
BITMAP
32
4C
00
3C
66
C3
C3
C3
C3
C3
66
3C
ENDCHAR
STARTCHAR 00F6
ENCODING 246
SWIDTH 514 0
DWIDTH 10 0
BBX 8 12 1 0
BITMAP
36
36
00
3C
66
C3
C3
C3
C3
C3
66
3C
ENDCHAR
STARTCHAR 00F7
ENCODING 247
SWIDTH 514 0
DWIDTH 10 0
BBX 9 9 0 2
BITMAP
0C00
0C00
0000
0000
FF80
0000
0000
0C00
0C00
ENDCHAR
STARTCHAR 00F8
ENCODING 248
SWIDTH 514 0
DWIDTH 10 0
BBX 9 9 1 0
BITMAP
3C80
6700
C200
C700
CB00
D300
6300
6600
9C00
ENDCHAR
STARTCHAR 00F9
ENCODING 249
SWIDTH 462 0
DWIDTH 9 0
BBX 9 13 0 0
BITMAP
3000
1000
0800
0000
E700
6300
6300
6300
6300
6300
6300
6780
3B00
ENDCHAR
STARTCHAR 00FA
ENCODING 250
SWIDTH 462 0
DWIDTH 9 0
BBX 9 13 0 0
BITMAP
0C00
1800
1000
0000
E700
6300
6300
6300
6300
6300
6300
6780
3B00
ENDCHAR
STARTCHAR 00FB
ENCODING 251
SWIDTH 462 0
DWIDTH 9 0
BBX 9 13 0 0
BITMAP
1C00
1400
2200
0000
E700
6300
6300
6300
6300
6300
6300
6780
3B00
ENDCHAR
STARTCHAR 00FC
ENCODING 252
SWIDTH 462 0
DWIDTH 9 0
BBX 9 12 0 0
BITMAP
3600
3600
0000
E700
6300
6300
6300
6300
6300
6300
6780
3B00
ENDCHAR
STARTCHAR 00FD
ENCODING 253
SWIDTH 462 0
DWIDTH 9 0
BBX 10 17 -1 -4
BITMAP
0300
0600
0400
0000
F9C0
7080
3080
1900
1900
0E00
0E00
0600
0400
0400
0C00
7800
7000
ENDCHAR
STARTCHAR 00FE
ENCODING 254
SWIDTH 514 0
DWIDTH 10 0
BBX 9 17 0 -4
BITMAP
6000
E000
6000
6000
6E00
7300
6180
6180
6180
6180
6180
7300
6E00
6000
6000
6000
F000
ENDCHAR
STARTCHAR 00FF
ENCODING 255
SWIDTH 462 0
DWIDTH 9 0
BBX 10 16 -1 -4
BITMAP
1B00
1B00
0000
F9C0
7080
3080
1900
1900
0E00
0E00
0600
0400
0400
0C00
7800
7000
ENDCHAR
STARTCHAR 0100
ENCODING 256
SWIDTH 668 0
DWIDTH 13 0
BBX 13 14 0 0
BITMAP
0FC0
0000
0300
0300
0580
0580
0980
08C0
10C0
1FC0
1060
2060
6070
F0F8
ENDCHAR
STARTCHAR 0101
ENCODING 257
SWIDTH 411 0
DWIDTH 8 0
BBX 6 12 1 0
BITMAP
FC
00
00
78
CC
CC
1C
6C
CC
CC
CC
7C
ENDCHAR
STARTCHAR 0102
ENCODING 258
SWIDTH 668 0
DWIDTH 13 0
BBX 13 16 0 0
BITMAP
0440
07C0
0380
0000
0300
0300
0580
0580
0980
08C0
10C0
1FC0
1060
2060
6070
F0F8
ENDCHAR
STARTCHAR 0103
ENCODING 259
SWIDTH 411 0
DWIDTH 8 0
BBX 6 13 1 0
BITMAP
44
7C
38
00
78
CC
CC
1C
6C
CC
CC
CC
7C
ENDCHAR
STARTCHAR 0104
ENCODING 260
SWIDTH 668 0
DWIDTH 13 0
BBX 13 16 0 -4
BITMAP
0300
0300
0580
0580
0980
08C0
10C0
1FC0
1060
2060
6070
F0F8
0020
0020
0030
0018
ENDCHAR
STARTCHAR 0105
ENCODING 261
SWIDTH 411 0
DWIDTH 8 0
BBX 7 13 1 -4
BITMAP
78
CC
CC
1C
6C
CC
CC
CC
7C
08
08
0C
06
ENDCHAR
STARTCHAR 0106
ENCODING 262
SWIDTH 668 0
DWIDTH 13 0
BBX 11 16 1 0
BITMAP
0300
0600
0400
0000
0F20
30E0
6020
4020
C000
C000
C000
C000
C000
6020
3040
1F80
ENDCHAR
STARTCHAR 0107
ENCODING 263
SWIDTH 462 0
DWIDTH 9 0
BBX 7 13 1 0
BITMAP
0C
18
10
00
3C
66
C2
C0
C0
C0
E2
7C
38
ENDCHAR
STARTCHAR 0108
ENCODING 264
SWIDTH 668 0
DWIDTH 13 0
BBX 11 16 1 0
BITMAP
0700
0500
0880
0000
0F20
30E0
6020
4020
C000
C000
C000
C000
C000
6020
3040
1F80
ENDCHAR
STARTCHAR 0109
ENCODING 265
SWIDTH 462 0
DWIDTH 9 0
BBX 7 13 1 0
BITMAP
38
28
44
00
3C
66
C2
C0
C0
C0
E2
7C
38
ENDCHAR
STARTCHAR 010A
ENCODING 266
SWIDTH 668 0
DWIDTH 13 0
BBX 11 15 1 0
BITMAP
0600
0600
0000
0F20
30E0
6020
4020
C000
C000
C000
C000
C000
6020
3040
1F80
ENDCHAR
STARTCHAR 010B
ENCODING 267
SWIDTH 462 0
DWIDTH 9 0
BBX 7 13 1 0
BITMAP
18
18
00
00
3C
66
C2
C0
C0
C0
E2
7C
38
ENDCHAR
STARTCHAR 010C
ENCODING 268
SWIDTH 668 0
DWIDTH 13 0
BBX 11 16 1 0
BITMAP
0880
0500
0700
0000
0F20
30E0
6020
4020
C000
C000
C000
C000
C000
6020
3040
1F80
ENDCHAR
STARTCHAR 010D
ENCODING 269
SWIDTH 462 0
DWIDTH 9 0
BBX 7 13 1 0
BITMAP
44
28
38
00
3C
66
C2
C0
C0
C0
E2
7C
38
ENDCHAR
STARTCHAR 010E
ENCODING 270
SWIDTH 668 0
DWIDTH 13 0
BBX 12 16 0 0
BITMAP
0880
0500
0700
0000
FF80
30C0
3060
3030
3030
3030
3030
3030
3030
3060
30C0
FF00
ENDCHAR
STARTCHAR 010F
ENCODING 271
SWIDTH 617 0
DWIDTH 12 0
BBX 12 13 1 0
BITMAP
0360
0770
0310
0320
3B40
6700
4300
C300
C300
C300
C300
6780
3B00
ENDCHAR
STARTCHAR 0110
ENCODING 272
SWIDTH 720 0
DWIDTH 14 0
BBX 13 12 0 0
BITMAP
FF80
30E0
3030
3038
3018
FF18
3018
3018
3030
3030
30E0
FF80
ENDCHAR
STARTCHAR 0111
ENCODING 273
SWIDTH 514 0
DWIDTH 10 0
BBX 9 13 1 0
BITMAP
0300
0300
1F80
0300
3B00
6700
4300
C300
C300
C300
C300
6780
3B00
ENDCHAR
STARTCHAR 0112
ENCODING 274
SWIDTH 565 0
DWIDTH 11 0
BBX 11 14 0 0
BITMAP
1F80
0000
FFC0
3040
3040
3100
3100
3F00
3100
3100
3000
3020
3040
FFC0
ENDCHAR
STARTCHAR 0113
ENCODING 275
SWIDTH 411 0
DWIDTH 8 0
BBX 7 12 1 0
BITMAP
7E
00
00
38
64
C6
FE
C0
C0
E2
7C
38
ENDCHAR
STARTCHAR 0114
ENCODING 276
SWIDTH 565 0
DWIDTH 11 0
BBX 11 16 0 0
BITMAP
1100
1F00
0E00
0000
FFC0
3040
3040
3100
3100
3F00
3100
3100
3000
3020
3040
FFC0
ENDCHAR
STARTCHAR 0115
ENCODING 277
SWIDTH 411 0
DWIDTH 8 0
BBX 7 13 1 0
BITMAP
44
7C
38
00
38
64
C6
FE
C0
C0
E2
7C
38
ENDCHAR
STARTCHAR 0116
ENCODING 278
SWIDTH 565 0
DWIDTH 11 0
BBX 11 15 0 0
BITMAP
0600
0600
0000
FFC0
3040
3040
3100
3100
3F00
3100
3100
3000
3020
3040
FFC0
ENDCHAR
STARTCHAR 0117
ENCODING 279
SWIDTH 411 0
DWIDTH 8 0
BBX 7 13 1 0
BITMAP
18
18
00
00
38
64
C6
FE
C0
C0
E2
7C
38
ENDCHAR
STARTCHAR 0118
ENCODING 280
SWIDTH 565 0
DWIDTH 11 0
BBX 11 16 0 -4
BITMAP
FFC0
3040
3040
3100
3100
3F00
3100
3100
3000
3020
3040
FFC0
0080
0080
00C0
0060
ENDCHAR
STARTCHAR 0119
ENCODING 281
SWIDTH 411 0
DWIDTH 8 0
BBX 7 13 1 -4
BITMAP
38
64
C6
FE
C0
C0
E2
7C
38
10
10
18
0C
ENDCHAR
STARTCHAR 011A
ENCODING 282
SWIDTH 565 0
DWIDTH 11 0
BBX 11 16 0 0
BITMAP
1100
0A00
0E00
0000
FFC0
3040
3040
3100
3100
3F00
3100
3100
3000
3020
3040
FFC0
ENDCHAR
STARTCHAR 011B
ENCODING 283
SWIDTH 411 0
DWIDTH 8 0
BBX 7 13 1 0
BITMAP
44
28
38
00
38
64
C6
FE
C0
C0
E2
7C
38
ENDCHAR
STARTCHAR 011C
ENCODING 284
SWIDTH 720 0
DWIDTH 14 0
BBX 13 16 1 0
BITMAP
0700
0500
0880
0000
0F20
30E0
6020
4020
C000
C1F8
C060
C060
E060
6060
3860
0FC0
ENDCHAR
STARTCHAR 011D
ENCODING 285
SWIDTH 462 0
DWIDTH 9 0
BBX 9 17 0 -4
BITMAP
1C00
1400
2200
0000
3C00
6780
6300
6300
3300
3E00
4000
7F00
3F80
4080
8080
C100
7E00
ENDCHAR
STARTCHAR 011E
ENCODING 286
SWIDTH 720 0
DWIDTH 14 0
BBX 13 16 1 0
BITMAP
0880
0F80
0700
0000
0F20
30E0
6020
4020
C000
C1F8
C060
C060
E060
6060
3860
0FC0
ENDCHAR
STARTCHAR 011F
ENCODING 287
SWIDTH 462 0
DWIDTH 9 0
BBX 9 17 0 -4
BITMAP
2200
3E00
1C00
0000
3C00
6780
6300
6300
3300
3E00
4000
7F00
3F80
4080
8080
C100
7E00
ENDCHAR
STARTCHAR 0120
ENCODING 288
SWIDTH 720 0
DWIDTH 14 0
BBX 13 15 1 0
BITMAP
0300
0300
0000
0F20
30E0
6020
4020
C000
C1F8
C060
C060
E060
6060
3860
0FC0
ENDCHAR
STARTCHAR 0121
ENCODING 289
SWIDTH 462 0
DWIDTH 9 0
BBX 9 17 0 -4
BITMAP
0C00
0C00
0000
0000
3C00
6780
6300
6300
3300
3E00
4000
7F00
3F80
4080
8080
C100
7E00
ENDCHAR
STARTCHAR 0122
ENCODING 290
SWIDTH 720 0
DWIDTH 14 0
BBX 13 16 1 -4
BITMAP
0F20
30E0
6020
4020
C000
C1F8
C060
C060
E060
6060
3860
0FC0
0200
0600
0300
0600
ENDCHAR
STARTCHAR 0123
ENCODING 291
SWIDTH 462 0
DWIDTH 9 0
BBX 9 19 0 -4
BITMAP
0400
0800
0C00
0C00
0000
0000
3C00
6780
6300
6300
3300
3E00
4000
7F00
3F80
4080
8080
C100
7E00
ENDCHAR
STARTCHAR 0124
ENCODING 292
SWIDTH 668 0
DWIDTH 13 0
BBX 13 16 0 0
BITMAP
0700
0500
0880
0000
FDF8
3060
3060
3060
3060
3FE0
3060
3060
3060
3060
3060
FDF8
ENDCHAR
STARTCHAR 0125
ENCODING 293
SWIDTH 462 0
DWIDTH 9 0
BBX 9 16 0 0
BITMAP
0E00
0A00
1100
6000
E000
6000
6000
6E00
7300
6300
6300
6300
6300
6300
6300
F780
ENDCHAR
STARTCHAR 0126
ENCODING 294
SWIDTH 668 0
DWIDTH 13 0
BBX 13 12 0 0
BITMAP
FDF8
3060
FFF8
3060
3060
3FE0
3060
3060
3060
3060
3060
FDF8
ENDCHAR
STARTCHAR 0127
ENCODING 295
SWIDTH 462 0
DWIDTH 9 0
BBX 9 13 0 0
BITMAP
E000
6000
F800
6000
6E00
7300
6300
6300
6300
6300
6300
6300
F780
ENDCHAR
STARTCHAR 0128
ENCODING 296
SWIDTH 308 0
DWIDTH 6 0
BBX 6 15 0 0
BITMAP
64
98
00
FC
30
30
30
30
30
30
30
30
30
30
FC
ENDCHAR
STARTCHAR 0129
ENCODING 297
SWIDTH 308 0
DWIDTH 6 0
BBX 6 12 0 0
BITMAP
64
98
00
30
70
30
30
30
30
30
30
78
ENDCHAR
STARTCHAR 012A
ENCODING 298
SWIDTH 308 0
DWIDTH 6 0
BBX 6 14 0 0
BITMAP
FC
00
FC
30
30
30
30
30
30
30
30
30
30
FC
ENDCHAR
STARTCHAR 012B
ENCODING 299
SWIDTH 308 0
DWIDTH 6 0
BBX 6 12 0 0
BITMAP
FC
00
00
30
70
30
30
30
30
30
30
78
ENDCHAR
STARTCHAR 012C
ENCODING 300
SWIDTH 308 0
DWIDTH 6 0
BBX 6 16 0 0
BITMAP
44
7C
38
00
FC
30
30
30
30
30
30
30
30
30
30
FC
ENDCHAR
STARTCHAR 012D
ENCODING 301
SWIDTH 308 0
DWIDTH 6 0
BBX 5 13 0 0
BITMAP
88
F8
70
00
30
70
30
30
30
30
30
30
78
ENDCHAR
STARTCHAR 012E
ENCODING 302
SWIDTH 308 0
DWIDTH 6 0
BBX 6 16 0 -4
BITMAP
FC
30
30
30
30
30
30
30
30
30
30
FC
20
20
30
18
ENDCHAR
STARTCHAR 012F
ENCODING 303
SWIDTH 205 0
DWIDTH 4 0
BBX 4 17 0 -4
BITMAP
60
60
00
00
60
E0
60
60
60
60
60
60
F0
40
40
60
30
ENDCHAR
STARTCHAR 0130
ENCODING 304
SWIDTH 308 0
DWIDTH 6 0
BBX 6 15 0 0
BITMAP
30
30
00
FC
30
30
30
30
30
30
30
30
30
30
FC
ENDCHAR
STARTCHAR 0131
ENCODING 305
SWIDTH 308 0
DWIDTH 6 0
BBX 4 9 1 0
BITMAP
60
E0
60
60
60
60
60
60
F0
ENDCHAR
STARTCHAR 0132
ENCODING 306
SWIDTH 668 0
DWIDTH 13 0
BBX 13 12 0 0
BITMAP
FDF8
3060
3060
3060
3060
3060
3060
3060
3060
3060
3340
FDC0
ENDCHAR
STARTCHAR 0133
ENCODING 307
SWIDTH 565 0
DWIDTH 11 0
BBX 8 17 1 -4
BITMAP
63
63
00
00
63
E7
63
63
63
63
63
63
F3
03
03
1A
1C
ENDCHAR
STARTCHAR 0134
ENCODING 308
SWIDTH 360 0
DWIDTH 7 0
BBX 7 16 0 0
BITMAP
1C
14
22
00
7E
18
18
18
18
18
18
18
18
18
D0
70
ENDCHAR
STARTCHAR 0135
ENCODING 309
SWIDTH 205 0
DWIDTH 4 0
BBX 6 17 -2 -4
BITMAP
38
28
44
00
18
38
18
18
18
18
18
18
18
18
18
D0
E0
ENDCHAR
STARTCHAR 0136
ENCODING 310
SWIDTH 668 0
DWIDTH 13 0
BBX 13 17 0 -5
BITMAP
FCF0
3060
3080
3100
3200
3C00
3600
3300
3180
30C0
3060
FCF8
0000
0600
0200
0200
0C00
ENDCHAR
STARTCHAR 0137
ENCODING 311
SWIDTH 462 0
DWIDTH 9 0
BBX 9 18 0 -5
BITMAP
6000
E000
6000
6000
6780
6200
6400
6800
7800
6C00
6600
6300
F780
0000
1800
0800
0800
3000
ENDCHAR
STARTCHAR 0138
ENCODING 312
SWIDTH 514 0
DWIDTH 10 0
BBX 9 9 1 0
BITMAP
F780
6200
6400
6800
7800
6C00
6600
6300
F780
ENDCHAR
STARTCHAR 0139
ENCODING 313
SWIDTH 565 0
DWIDTH 11 0
BBX 11 16 0 0
BITMAP
0C00
1800
1000
0000
FC00
3000
3000
3000
3000
3000
3000
3000
3020
3020
3040
FFC0
ENDCHAR
STARTCHAR 013A
ENCODING 314
SWIDTH 205 0
DWIDTH 4 0
BBX 4 17 0 0
BITMAP
30
60
40
00
60
E0
60
60
60
60
60
60
60
60
60
60
F0
ENDCHAR
STARTCHAR 013B
ENCODING 315
SWIDTH 565 0
DWIDTH 11 0
BBX 11 17 0 -5
BITMAP
FC00
3000
3000
3000
3000
3000
3000
3000
3020
3020
3040
FFC0
0000
0600
0200
0200
0C00
ENDCHAR
STARTCHAR 013C
ENCODING 316
SWIDTH 205 0
DWIDTH 4 0
BBX 4 18 0 -5
BITMAP
60
E0
60
60
60
60
60
60
60
60
60
60
F0
00
60
20
20
C0
ENDCHAR
STARTCHAR 013D
ENCODING 317
SWIDTH 617 0
DWIDTH 12 0
BBX 11 12 0 0
BITMAP
FCC0
30E0
3020
3040
3080
3000
3000
3000
3020
3060
3040
FFC0
ENDCHAR
STARTCHAR 013E
ENCODING 318
SWIDTH 411 0
DWIDTH 8 0
BBX 7 13 1 0
BITMAP
6C
EE
62
64
68
60
60
60
60
60
60
60
F0
ENDCHAR
STARTCHAR 013F
ENCODING 319
SWIDTH 565 0
DWIDTH 11 0
BBX 11 12 0 0
BITMAP
FC00
3000
3000
3000
3300
3300
3000
3000
3020
3020
3040
FFC0
ENDCHAR
STARTCHAR 0140
ENCODING 320
SWIDTH 360 0
DWIDTH 7 0
BBX 6 13 0 0
BITMAP
60
E0
60
60
60
6C
6C
60
60
60
60
60
F0
ENDCHAR
STARTCHAR 0141
ENCODING 321
SWIDTH 617 0
DWIDTH 12 0
BBX 11 12 0 0
BITMAP
FC00
3000
3000
3400
3800
3000
7000
B000
3020
3060
3040
FFC0
ENDCHAR
STARTCHAR 0142
ENCODING 322
SWIDTH 205 0
DWIDTH 4 0
BBX 6 13 -1 0
BITMAP
30
70
30
30
30
3C
30
F0
30
30
30
30
78
ENDCHAR
STARTCHAR 0143
ENCODING 323
SWIDTH 668 0
DWIDTH 13 0
BBX 13 16 0 0
BITMAP
0180
0300
0200
0000
E0F8
7020
3820
3C20
2C20
2620
2320
21A0
21E0
20E0
2060
F820
ENDCHAR
STARTCHAR 0144
ENCODING 324
SWIDTH 462 0
DWIDTH 9 0
BBX 9 13 0 0
BITMAP
0600
0C00
0800
0000
6E00
F300
6300
6300
6300
6300
6300
6300
F780
ENDCHAR
STARTCHAR 0145
ENCODING 325
SWIDTH 668 0
DWIDTH 13 0
BBX 13 17 0 -5
BITMAP
E0F8
7020
3820
3C20
2C20
2620
2320
21A0
21E0
20E0
2060
F820
0000
0600
0200
0200
0C00
ENDCHAR
STARTCHAR 0146
ENCODING 326
SWIDTH 462 0
DWIDTH 9 0
BBX 9 14 0 -5
BITMAP
6E00
F300
6300
6300
6300
6300
6300
6300
F780
0000
1800
0800
0800
3000
ENDCHAR
STARTCHAR 0147
ENCODING 327
SWIDTH 668 0
DWIDTH 13 0
BBX 13 16 0 0
BITMAP
0880
0500
0700
0000
E0F8
7020
3820
3C20
2C20
2620
2320
21A0
21E0
20E0
2060
F820
ENDCHAR
STARTCHAR 0148
ENCODING 328
SWIDTH 462 0
DWIDTH 9 0
BBX 9 13 0 0
BITMAP
2200
1400
1C00
0000
6E00
F300
6300
6300
6300
6300
6300
6300
F780
ENDCHAR
STARTCHAR 0149
ENCODING 329
SWIDTH 565 0
DWIDTH 11 0
BBX 11 12 0 0
BITMAP
C000
E000
2000
3B80
FCC0
18C0
18C0
18C0
18C0
18C0
18C0
3DE0
ENDCHAR
STARTCHAR 014A
ENCODING 330
SWIDTH 668 0
DWIDTH 13 0
BBX 12 12 0 0
BITMAP
F3C0
3460
3860
3030
3030
3030
3030
3030
3030
3320
3360
FD80
ENDCHAR
STARTCHAR 014B
ENCODING 331
SWIDTH 462 0
DWIDTH 9 0
BBX 8 13 0 -4
BITMAP
6E
F3
63
63
63
63
63
63
F3
03
03
1A
1C
ENDCHAR
STARTCHAR 014C
ENCODING 332
SWIDTH 720 0
DWIDTH 14 0
BBX 12 14 1 0
BITMAP
1F80
0000
0F80
30C0
6060
6030
C030
C030
C030
C030
C020
6060
30C0
0F00
ENDCHAR
STARTCHAR 014D
ENCODING 333
SWIDTH 514 0
DWIDTH 10 0
BBX 8 12 1 0
BITMAP
7E
00
00
3C
66
C3
C3
C3
C3
C3
66
3C
ENDCHAR
STARTCHAR 014E
ENCODING 334
SWIDTH 720 0
DWIDTH 14 0
BBX 12 16 1 0
BITMAP
0880
0F80
0700
0000
0F80
30C0
6060
6030
C030
C030
C030
C030
C020
6060
30C0
0F00
ENDCHAR
STARTCHAR 014F
ENCODING 335
SWIDTH 514 0
DWIDTH 10 0
BBX 8 13 1 0
BITMAP
44
7C
38
00
3C
66
C3
C3
C3
C3
C3
66
3C
ENDCHAR
STARTCHAR 0150
ENCODING 336
SWIDTH 720 0
DWIDTH 14 0
BBX 12 16 1 0
BITMAP
06C0
0900
0900
0000
0F80
30C0
6060
6030
C030
C030
C030
C030
C020
6060
30C0
0F00
ENDCHAR
STARTCHAR 0151
ENCODING 337
SWIDTH 514 0
DWIDTH 10 0
BBX 8 13 1 0
BITMAP
1B
24
24
00
3C
66
C3
C3
C3
C3
C3
66
3C
ENDCHAR
STARTCHAR 0152
ENCODING 338
SWIDTH 874 0
DWIDTH 17 0
BBX 16 12 1 0
BITMAP
1FFE
3182
6182
C188
C188
C1F8
C188
C188
C180
6181
3182
1FFE
ENDCHAR
STARTCHAR 0153
ENCODING 339
SWIDTH 720 0
DWIDTH 14 0
BBX 12 9 1 0
BITMAP
39C0
4F20
C630
C7F0
C600
C600
C710
67E0
39E0
ENDCHAR
STARTCHAR 0154
ENCODING 340
SWIDTH 668 0
DWIDTH 13 0
BBX 13 16 0 0
BITMAP
0300
0600
0400
0000
FF00
3180
30C0
30C0
30C0
3180
3E00
3300
3180
30C0
3060
FC38
ENDCHAR
STARTCHAR 0155
ENCODING 341
SWIDTH 308 0
DWIDTH 6 0
BBX 6 13 0 0
BITMAP
0C
18
10
00
6C
F4
60
60
60
60
60
60
F0
ENDCHAR
STARTCHAR 0156
ENCODING 342
SWIDTH 668 0
DWIDTH 13 0
BBX 13 17 0 -5
BITMAP
FF00
3180
30C0
30C0
30C0
3180
3E00
3300
3180
30C0
3060
FC38
0000
0300
0100
0100
0600
ENDCHAR
STARTCHAR 0157
ENCODING 343
SWIDTH 308 0
DWIDTH 6 0
BBX 6 14 0 -5
BITMAP
6C
F4
60
60
60
60
60
60
F0
00
30
10
10
60
ENDCHAR
STARTCHAR 0158
ENCODING 344
SWIDTH 668 0
DWIDTH 13 0
BBX 13 16 0 0
BITMAP
1100
0A00
0E00
0000
FF00
3180
30C0
30C0
30C0
3180
3E00
3300
3180
30C0
3060
FC38
ENDCHAR
STARTCHAR 0159
ENCODING 345
SWIDTH 308 0
DWIDTH 6 0
BBX 6 13 0 0
BITMAP
44
28
38
00
6C
F4
60
60
60
60
60
60
F0
ENDCHAR
STARTCHAR 015A
ENCODING 346
SWIDTH 565 0
DWIDTH 11 0
BBX 9 16 1 0
BITMAP
0600
0C00
0800
0000
3D00
6300
C100
C100
7000
3C00
0F00
0380
8180
8180
E300
9E00
ENDCHAR
STARTCHAR 015B
ENCODING 347
SWIDTH 411 0
DWIDTH 8 0
BBX 6 13 1 0
BITMAP
18
30
20
00
74
8C
84
E0
78
1C
84
C4
B8
ENDCHAR
STARTCHAR 015C
ENCODING 348
SWIDTH 565 0
DWIDTH 11 0
BBX 9 16 1 0
BITMAP
1C00
1400
2200
0000
3D00
6300
C100
C100
7000
3C00
0F00
0380
8180
8180
E300
9E00
ENDCHAR
STARTCHAR 015D
ENCODING 349
SWIDTH 411 0
DWIDTH 8 0
BBX 6 13 1 0
BITMAP
38
28
44
00
74
8C
84
E0
78
1C
84
C4
B8
ENDCHAR
STARTCHAR 015E
ENCODING 350
SWIDTH 565 0
DWIDTH 11 0
BBX 9 16 1 -4
BITMAP
3D00
6300
C100
C100
7000
3C00
0F00
0380
8180
8180
E300
9E00
1000
3000
1800
3000
ENDCHAR
STARTCHAR 015F
ENCODING 351
SWIDTH 411 0
DWIDTH 8 0
BBX 6 13 1 -4
BITMAP
74
8C
84
E0
78
1C
84
C4
B8
10
30
18
30
ENDCHAR
STARTCHAR 0160
ENCODING 352
SWIDTH 565 0
DWIDTH 11 0
BBX 9 16 1 0
BITMAP
4400
2800
3800
0000
3D00
6300
C100
C100
7000
3C00
0F00
0380
8180
8180
E300
9E00
ENDCHAR
STARTCHAR 0161
ENCODING 353
SWIDTH 411 0
DWIDTH 8 0
BBX 6 13 1 0
BITMAP
44
28
38
00
74
8C
84
E0
78
1C
84
C4
B8
ENDCHAR
STARTCHAR 0162
ENCODING 354
SWIDTH 617 0
DWIDTH 12 0
BBX 10 17 1 -5
BITMAP
FFC0
8C40
8C40
0C00
0C00
0C00
0C00
0C00
0C00
0C00
0C00
3F00
0000
0E00
0E00
0200
0C00
ENDCHAR
STARTCHAR 0163
ENCODING 355
SWIDTH 257 0
DWIDTH 5 0
BBX 6 16 0 -5
BITMAP
20
60
F8
60
60
60
60
60
60
64
38
00
38
38
08
30
ENDCHAR
STARTCHAR 0164
ENCODING 356
SWIDTH 617 0
DWIDTH 12 0
BBX 12 16 0 0
BITMAP
0880
0500
0700
0000
FFF0
C630
8610
0600
0600
0600
0600
0600
0600
0600
0600
1F80
ENDCHAR
STARTCHAR 0165
ENCODING 357
SWIDTH 411 0
DWIDTH 8 0
BBX 8 13 0 0
BITMAP
06
27
61
62
FC
60
60
60
60
60
60
64
38
ENDCHAR
STARTCHAR 0166
ENCODING 358
SWIDTH 617 0
DWIDTH 12 0
BBX 12 12 0 0
BITMAP
FFF0
8630
8610
0600
0600
3FC0
0600
0600
0600
0600
0600
1F80
ENDCHAR
STARTCHAR 0167
ENCODING 359
SWIDTH 257 0
DWIDTH 5 0
BBX 5 12 0 0
BITMAP
20
20
60
F8
60
60
F8
60
60
60
68
30
ENDCHAR
STARTCHAR 0168
ENCODING 360
SWIDTH 668 0
DWIDTH 13 0
BBX 13 15 0 0
BITMAP
0640
0980
0000
FCF8
3020
3020
3020
3020
3020
3020
3020
3020
3020
1840
0F80
ENDCHAR
STARTCHAR 0169
ENCODING 361
SWIDTH 462 0
DWIDTH 9 0
BBX 9 12 0 0
BITMAP
1900
2600
0000
E700
6300
6300
6300
6300
6300
6300
6780
3B00
ENDCHAR
STARTCHAR 016A
ENCODING 362
SWIDTH 668 0
DWIDTH 13 0
BBX 13 14 0 0
BITMAP
0FC0
0000
FCF8
3020
3020
3020
3020
3020
3020
3020
3020
3020
1840
0F80
ENDCHAR
STARTCHAR 016B
ENCODING 363
SWIDTH 462 0
DWIDTH 9 0
BBX 9 12 0 0
BITMAP
3F00
0000
0000
E700
6300
6300
6300
6300
6300
6300
6780
3B00
ENDCHAR
STARTCHAR 016C
ENCODING 364
SWIDTH 668 0
DWIDTH 13 0
BBX 13 16 0 0
BITMAP
0880
0F80
0700
0000
FCF8
3020
3020
3020
3020
3020
3020
3020
3020
3020
1840
0F80
ENDCHAR
STARTCHAR 016D
ENCODING 365
SWIDTH 462 0
DWIDTH 9 0
BBX 9 13 0 0
BITMAP
2200
3E00
1C00
0000
E700
6300
6300
6300
6300
6300
6300
6780
3B00
ENDCHAR
STARTCHAR 016E
ENCODING 366
SWIDTH 668 0
DWIDTH 13 0
BBX 13 17 0 0
BITMAP
0300
0480
0480
0300
0000
FCF8
3020
3020
3020
3020
3020
3020
3020
3020
3020
1840
0F80
ENDCHAR
STARTCHAR 016F
ENCODING 367
SWIDTH 462 0
DWIDTH 9 0
BBX 9 14 0 0
BITMAP
1800
2400
2400
1800
0000
E700
6300
6300
6300
6300
6300
6300
6780
3B00
ENDCHAR
STARTCHAR 0170
ENCODING 368
SWIDTH 668 0
DWIDTH 13 0
BBX 13 16 0 0
BITMAP
06C0
0900
0900
0000
FCF8
3020
3020
3020
3020
3020
3020
3020
3020
3020
1840
0F80
ENDCHAR
STARTCHAR 0171
ENCODING 369
SWIDTH 462 0
DWIDTH 9 0
BBX 9 13 0 0
BITMAP
1B00
2400
2400
0000
E700
6300
6300
6300
6300
6300
6300
6780
3B00
ENDCHAR
STARTCHAR 0172
ENCODING 370
SWIDTH 668 0
DWIDTH 13 0
BBX 13 16 0 -4
BITMAP
FCF8
3020
3020
3020
3020
3020
3020
3020
3020
3020
1840
0F80
0200
0200
0300
0180
ENDCHAR
STARTCHAR 0173
ENCODING 371
SWIDTH 462 0
DWIDTH 9 0
BBX 9 13 0 -4
BITMAP
E700
6300
6300
6300
6300
6300
6300
6780
3B00
0200
0200
0300
0180
ENDCHAR
STARTCHAR 0174
ENCODING 372
SWIDTH 925 0
DWIDTH 18 0
BBX 18 16 0 0
BITMAP
00E000
00A000
011000
000000
FBE3C0
30C180
304100
186100
18E200
18A200
0CB600
0D3400
0D1400
061C00
061800
020800
ENDCHAR
STARTCHAR 0175
ENCODING 373
SWIDTH 668 0
DWIDTH 13 0
BBX 13 13 0 0
BITMAP
0700
0500
0880
0000
F7B8
6310
6310
33A0
35A0
35A0
1CE0
18C0
0840
ENDCHAR
STARTCHAR 0176
ENCODING 374
SWIDTH 668 0
DWIDTH 13 0
BBX 13 16 0 0
BITMAP
0380
0280
0440
0000
FC78
3010
1820
0C40
0C40
0680
0300
0300
0300
0300
0300
0FC0
ENDCHAR
STARTCHAR 0177
ENCODING 375
SWIDTH 462 0
DWIDTH 9 0
BBX 10 17 -1 -4
BITMAP
0E00
0A00
1100
0000
F9C0
7080
3080
1900
1900
0E00
0E00
0600
0400
0400
0C00
7800
7000
ENDCHAR
STARTCHAR 0178
ENCODING 376
SWIDTH 668 0
DWIDTH 13 0
BBX 13 15 0 0
BITMAP
06C0
06C0
0000
FC78
3010
1820
0C40
0C40
0680
0300
0300
0300
0300
0300
0FC0
ENDCHAR
STARTCHAR 0179
ENCODING 377
SWIDTH 565 0
DWIDTH 11 0
BBX 11 16 0 0
BITMAP
0300
0600
0400
0000
7FE0
40C0
4180
0300
0300
0600
0C00
1800
3000
3020
6060
FFC0
ENDCHAR
STARTCHAR 017A
ENCODING 378
SWIDTH 411 0
DWIDTH 8 0
BBX 8 13 0 0
BITMAP
06
0C
08
00
7F
46
06
0C
18
30
30
61
FF
ENDCHAR
STARTCHAR 017B
ENCODING 379
SWIDTH 565 0
DWIDTH 11 0
BBX 11 15 0 0
BITMAP
0C00
0C00
0000
7FE0
40C0
4180
0300
0300
0600
0C00
1800
3000
3020
6060
FFC0
ENDCHAR
STARTCHAR 017C
ENCODING 380
SWIDTH 411 0
DWIDTH 8 0
BBX 8 12 0 0
BITMAP
18
18
00
7F
46
06
0C
18
30
30
61
FF
ENDCHAR
STARTCHAR 017D
ENCODING 381
SWIDTH 565 0
DWIDTH 11 0
BBX 11 16 0 0
BITMAP
1100
0A00
0E00
0000
7FE0
40C0
4180
0300
0300
0600
0C00
1800
3000
3020
6060
FFC0
ENDCHAR
STARTCHAR 017E
ENCODING 382
SWIDTH 411 0
DWIDTH 8 0
BBX 8 13 0 0
BITMAP
22
14
1C
00
7F
46
06
0C
18
30
30
61
FF
ENDCHAR
STARTCHAR 017F
ENCODING 383
SWIDTH 257 0
DWIDTH 5 0
BBX 7 13 0 0
BITMAP
1C
26
62
60
60
60
60
60
60
60
60
60
F0
ENDCHAR
STARTCHAR 018F
ENCODING 399
SWIDTH 720 0
DWIDTH 14 0
BBX 12 12 1 0
BITMAP
4F00
70C0
4060
4020
0030
FFF0
C030
C030
4070
6060
30C0
1F80
ENDCHAR
STARTCHAR 0192
ENCODING 402
SWIDTH 462 0
DWIDTH 9 0
BBX 9 17 0 -4
BITMAP
0180
0280
0600
0600
1F00
0600
0C00
0C00
0C00
0C00
1800
1800
1800
1800
3000
B000
E000
ENDCHAR
STARTCHAR 01A0
ENCODING 416
SWIDTH 720 0
DWIDTH 14 0
BBX 12 13 1 0
BITMAP
0010
0F10
30E0
6040
4020
C030
C030
C030
C030
C020
6060
30C0
0F00
ENDCHAR
STARTCHAR 01A1
ENCODING 417
SWIDTH 514 0
DWIDTH 10 0
BBX 9 9 1 0
BITMAP
3C80
6680
C380
C300
C300
C300
C300
6600
3C00
ENDCHAR
STARTCHAR 01AF
ENCODING 431
SWIDTH 771 0
DWIDTH 15 0
BBX 14 14 1 0
BITMAP
0004
0004
FCFC
3020
3020
3020
3020
3020
3020
3020
3020
3020
1840
0F80
ENDCHAR
STARTCHAR 01B0
ENCODING 432
SWIDTH 514 0
DWIDTH 10 0
BBX 10 9 0 0
BITMAP
E740
6340
6380
6300
6300
6300
6300
6780
3B00
ENDCHAR
STARTCHAR 01CD
ENCODING 461
SWIDTH 668 0
DWIDTH 13 0
BBX 13 16 0 0
BITMAP
0880
0500
0700
0000
0300
0300
0580
0580
0980
08C0
10C0
1FC0
1060
2060
6070
F0F8
ENDCHAR
STARTCHAR 01CE
ENCODING 462
SWIDTH 411 0
DWIDTH 8 0
BBX 6 13 1 0
BITMAP
88
50
70
00
78
CC
CC
1C
6C
CC
CC
CC
7C
ENDCHAR
STARTCHAR 01CF
ENCODING 463
SWIDTH 308 0
DWIDTH 6 0
BBX 6 16 0 0
BITMAP
44
28
38
00
FC
30
30
30
30
30
30
30
30
30
30
FC
ENDCHAR
STARTCHAR 01D0
ENCODING 464
SWIDTH 308 0
DWIDTH 6 0
BBX 5 13 0 0
BITMAP
88
50
70
00
30
70
30
30
30
30
30
30
78
ENDCHAR
STARTCHAR 01D1
ENCODING 465
SWIDTH 720 0
DWIDTH 14 0
BBX 12 16 1 0
BITMAP
0880
0500
0700
0000
0F80
30C0
6060
6030
C030
C030
C030
C030
C020
6060
30C0
0F00
ENDCHAR
STARTCHAR 01D2
ENCODING 466
SWIDTH 514 0
DWIDTH 10 0
BBX 8 13 1 0
BITMAP
44
28
38
00
3C
66
C3
C3
C3
C3
C3
66
3C
ENDCHAR
STARTCHAR 01D3
ENCODING 467
SWIDTH 668 0
DWIDTH 13 0
BBX 13 16 0 0
BITMAP
0880
0500
0700
0000
FCF8
3020
3020
3020
3020
3020
3020
3020
3020
3020
1840
0F80
ENDCHAR
STARTCHAR 01D4
ENCODING 468
SWIDTH 462 0
DWIDTH 9 0
BBX 9 13 0 0
BITMAP
2200
1400
1C00
0000
E700
6300
6300
6300
6300
6300
6300
6780
3B00
ENDCHAR
STARTCHAR 01D5
ENCODING 469
SWIDTH 668 0
DWIDTH 13 0
BBX 13 16 0 0
BITMAP
0F80
0000
0880
0000
FCF8
3020
3020
3020
3020
3020
3020
3020
3020
3020
1840
0F80
ENDCHAR
STARTCHAR 01D6
ENCODING 470
SWIDTH 462 0
DWIDTH 9 0
BBX 9 15 0 0
BITMAP
3F00
0000
0000
3600
3600
0000
E700
6300
6300
6300
6300
6300
6300
6780
3B00
ENDCHAR
STARTCHAR 01D7
ENCODING 471
SWIDTH 668 0
DWIDTH 13 0
BBX 13 16 0 0
BITMAP
0180
0200
0880
0000
FCF8
3020
3020
3020
3020
3020
3020
3020
3020
3020
1840
0F80
ENDCHAR
STARTCHAR 01D8
ENCODING 472
SWIDTH 462 0
DWIDTH 9 0
BBX 9 16 0 0
BITMAP
0600
0C00
0800
0000
3600
3600
0000
E700
6300
6300
6300
6300
6300
6300
6780
3B00
ENDCHAR
STARTCHAR 01D9
ENCODING 473
SWIDTH 668 0
DWIDTH 13 0
BBX 13 16 0 0
BITMAP
0500
0200
0880
0000
FCF8
3020
3020
3020
3020
3020
3020
3020
3020
3020
1840
0F80
ENDCHAR
STARTCHAR 01DA
ENCODING 474
SWIDTH 462 0
DWIDTH 9 0
BBX 9 16 0 0
BITMAP
2200
1400
1C00
0000
3600
3600
0000
E700
6300
6300
6300
6300
6300
6300
6780
3B00
ENDCHAR
STARTCHAR 01DB
ENCODING 475
SWIDTH 668 0
DWIDTH 13 0
BBX 13 16 0 0
BITMAP
0C00
0200
0880
0000
FCF8
3020
3020
3020
3020
3020
3020
3020
3020
3020
1840
0F80
ENDCHAR
STARTCHAR 01DC
ENCODING 476
SWIDTH 462 0
DWIDTH 9 0
BBX 9 16 0 0
BITMAP
3000
1000
0800
0000
3600
3600
0000
E700
6300
6300
6300
6300
6300
6300
6780
3B00
ENDCHAR
STARTCHAR 01FA
ENCODING 506
SWIDTH 668 0
DWIDTH 13 0
BBX 13 19 0 0
BITMAP
0180
0300
0200
0000
0300
0480
0480
0300
0300
0580
0580
0980
08C0
10C0
1FC0
1060
2060
6070
F0F8
ENDCHAR
STARTCHAR 01FB
ENCODING 507
SWIDTH 411 0
DWIDTH 8 0
BBX 6 17 1 0
BITMAP
18
30
20
30
48
48
30
00
78
CC
CC
1C
6C
CC
CC
CC
7C
ENDCHAR
STARTCHAR 01FC
ENCODING 508
SWIDTH 925 0
DWIDTH 18 0
BBX 18 16 0 0
BITMAP
006000
00C000
008000
000000
07FF80
01C180
02C080
02C200
04C200
08FE00
0FC200
10C200
10C000
20C040
60C080
F3FF80
ENDCHAR
STARTCHAR 01FD
ENCODING 509
SWIDTH 668 0
DWIDTH 13 0
BBX 11 13 1 0
BITMAP
0600
0C00
0800
0000
7B80
CC40
CC60
1FE0
6C00
CC00
CE20
CFC0
7380
ENDCHAR
STARTCHAR 01FE
ENCODING 510
SWIDTH 720 0
DWIDTH 14 0
BBX 12 16 1 0
BITMAP
0300
0600
0400
0000
1F20
30E0
6060
C0A0
C130
C230
C430
C830
5030
6060
70C0
4F00
ENDCHAR
STARTCHAR 01FF
ENCODING 511
SWIDTH 514 0
DWIDTH 10 0
BBX 9 13 1 0
BITMAP
0C00
1800
1000
0000
3C80
6700
C200
C700
CB00
D300
6300
6600
9C00
ENDCHAR
STARTCHAR 0259
ENCODING 601
SWIDTH 411 0
DWIDTH 8 0
BBX 7 9 0 0
BITMAP
38
7C
8E
06
06
FE
C6
4C
38
ENDCHAR
STARTCHAR 02C6
ENCODING 710
SWIDTH 308 0
DWIDTH 6 0
BBX 5 3 0 10
BITMAP
70
50
88
ENDCHAR
STARTCHAR 02C7
ENCODING 711
SWIDTH 308 0
DWIDTH 6 0
BBX 5 3 0 10
BITMAP
88
50
70
ENDCHAR
STARTCHAR 02C9
ENCODING 713
SWIDTH 360 0
DWIDTH 7 0
BBX 6 1 0 11
BITMAP
FC
ENDCHAR
STARTCHAR 02D8
ENCODING 728
SWIDTH 308 0
DWIDTH 6 0
BBX 5 3 0 10
BITMAP
88
F8
70
ENDCHAR
STARTCHAR 02D9
ENCODING 729
SWIDTH 308 0
DWIDTH 6 0
BBX 2 2 2 10
BITMAP
C0
C0
ENDCHAR
STARTCHAR 02DA
ENCODING 730
SWIDTH 308 0
DWIDTH 6 0
BBX 4 4 1 9
BITMAP
60
90
90
60
ENDCHAR
STARTCHAR 02DB
ENCODING 731
SWIDTH 308 0
DWIDTH 6 0
BBX 3 4 2 -4
BITMAP
80
80
C0
60
ENDCHAR
STARTCHAR 02DC
ENCODING 732
SWIDTH 308 0
DWIDTH 6 0
BBX 6 2 0 11
BITMAP
64
98
ENDCHAR
STARTCHAR 02DD
ENCODING 733
SWIDTH 360 0
DWIDTH 7 0
BBX 6 3 1 10
BITMAP
6C
90
90
ENDCHAR
STARTCHAR 0300
ENCODING 768
SWIDTH 0 0
DWIDTH 0 0
BBX 3 3 -5 13
BITMAP
C0
40
20
ENDCHAR
STARTCHAR 0301
ENCODING 769
SWIDTH 0 0
DWIDTH 0 0
BBX 3 3 -4 13
BITMAP
60
C0
80
ENDCHAR
STARTCHAR 0303
ENCODING 771
SWIDTH 0 0
DWIDTH 0 0
BBX 7 2 -7 14
BITMAP
72
8C
ENDCHAR
STARTCHAR 0309
ENCODING 777
SWIDTH 0 0
DWIDTH 0 0
BBX 3 3 -4 13
BITMAP
E0
20
40
ENDCHAR
STARTCHAR 0323
ENCODING 803
SWIDTH 0 0
DWIDTH 0 0
BBX 2 2 -8 -3
BITMAP
C0
C0
ENDCHAR
STARTCHAR 037E
ENCODING 894
SWIDTH 257 0
DWIDTH 5 0
BBX 3 12 1 -3
BITMAP
C0
C0
00
00
00
00
00
C0
E0
20
40
80
ENDCHAR
STARTCHAR 0384
ENCODING 900
SWIDTH 308 0
DWIDTH 6 0
BBX 3 3 2 10
BITMAP
60
C0
80
ENDCHAR
STARTCHAR 0385
ENCODING 901
SWIDTH 308 0
DWIDTH 6 0
BBX 7 3 -1 10
BITMAP
08
D6
D6
ENDCHAR
STARTCHAR 0386
ENCODING 902
SWIDTH 668 0
DWIDTH 13 0
BBX 13 12 0 0
BITMAP
3300
6300
4580
0580
0980
08C0
10C0
1FC0
1060
2060
6070
F0F8
ENDCHAR
STARTCHAR 0387
ENCODING 903
SWIDTH 257 0
DWIDTH 5 0
BBX 2 2 2 7
BITMAP
C0
C0
ENDCHAR
STARTCHAR 0388
ENCODING 904
SWIDTH 668 0
DWIDTH 13 0
BBX 14 12 -1 0
BITMAP
7FF8
C618
8608
0620
0620
07E0
0620
0620
0600
0604
0608
1FF8
ENDCHAR
STARTCHAR 0389
ENCODING 905
SWIDTH 771 0
DWIDTH 15 0
BBX 17 12 -1 0
BITMAP
7F9F80
C60600
860600
060600
060600
07FE00
060600
060600
060600
060600
060600
1F9F80
ENDCHAR
STARTCHAR 038A
ENCODING 906
SWIDTH 411 0
DWIDTH 8 0
BBX 9 12 -1 0
BITMAP
7F80
C600
8600
0600
0600
0600
0600
0600
0600
0600
0600
1F80
ENDCHAR
STARTCHAR 038C
ENCODING 908
SWIDTH 720 0
DWIDTH 14 0
BBX 14 12 -1 0
BITMAP
63E0
CC30
9818
180C
300C
300C
300C
300C
3008
1818
0C30
03C0
ENDCHAR
STARTCHAR 038E
ENCODING 910
SWIDTH 822 0
DWIDTH 16 0
BBX 16 12 -1 0
BITMAP
7F0F
C604
8308
0188
0190
00D0
0060
0060
0060
0060
0060
01F8
ENDCHAR
STARTCHAR 038F
ENCODING 911
SWIDTH 720 0
DWIDTH 14 0
BBX 14 12 -1 0
BITMAP
67E0
CC30
9818
300C
300C
300C
300C
1818
0660
2244
3E7C
3E7C
ENDCHAR
STARTCHAR 0390
ENCODING 912
SWIDTH 257 0
DWIDTH 5 0
BBX 7 13 -1 0
BITMAP
08
D6
D6
00
30
70
30
30
30
30
30
34
38
ENDCHAR
STARTCHAR 0391
ENCODING 913
SWIDTH 668 0
DWIDTH 13 0
BBX 13 12 0 0
BITMAP
0300
0300
0580
0580
0980
08C0
10C0
1FC0
1060
2060
6070
F0F8
ENDCHAR
STARTCHAR 0392
ENCODING 914
SWIDTH 617 0
DWIDTH 12 0
BBX 11 12 0 0
BITMAP
FF80
30C0
30C0
30C0
30C0
3F80
30C0
3060
3060
3060
30C0
FF80
ENDCHAR
STARTCHAR 0393
ENCODING 915
SWIDTH 565 0
DWIDTH 11 0
BBX 11 12 0 0
BITMAP
FFE0
3060
3020
3000
3000
3000
3000
3000
3000
3000
3000
FC00
ENDCHAR
STARTCHAR 0394
ENCODING 916
SWIDTH 617 0
DWIDTH 12 0
BBX 11 12 1 0
BITMAP
0400
0400
0E00
0E00
1300
1300
2180
2180
4180
40C0
80C0
FFE0
ENDCHAR
STARTCHAR 0395
ENCODING 917
SWIDTH 565 0
DWIDTH 11 0
BBX 11 12 0 0
BITMAP
FFC0
3040
3040
3100
3100
3F00
3100
3100
3000
3020
3040
FFC0
ENDCHAR
STARTCHAR 0396
ENCODING 918
SWIDTH 565 0
DWIDTH 11 0
BBX 11 12 0 0
BITMAP
7FE0
40C0
4180
0300
0300
0600
0C00
1800
3000
3020
6060
FFC0
ENDCHAR
STARTCHAR 0397
ENCODING 919
SWIDTH 668 0
DWIDTH 13 0
BBX 13 12 0 0
BITMAP
FDF8
3060
3060
3060
3060
3FE0
3060
3060
3060
3060
3060
FDF8
ENDCHAR
STARTCHAR 0398
ENCODING 920
SWIDTH 720 0
DWIDTH 14 0
BBX 12 12 1 0
BITMAP
0F00
30C0
6060
C030
C930
CF30
CF30
C930
4020
6060
30C0
1F00
ENDCHAR
STARTCHAR 0399
ENCODING 921
SWIDTH 308 0
DWIDTH 6 0
BBX 6 12 0 0
BITMAP
FC
30
30
30
30
30
30
30
30
30
30
FC
ENDCHAR
STARTCHAR 039A
ENCODING 922
SWIDTH 668 0
DWIDTH 13 0
BBX 13 12 0 0
BITMAP
FCF0
3060
3080
3100
3200
3C00
3600
3300
3180
30C0
3060
FCF8
ENDCHAR
STARTCHAR 039B
ENCODING 923
SWIDTH 720 0
DWIDTH 14 0
BBX 13 12 1 0
BITMAP
0400
0600
0600
0B00
0B00
1180
1180
10C0
20C0
2060
6070
F0F8
ENDCHAR
STARTCHAR 039C
ENCODING 924
SWIDTH 822 0
DWIDTH 16 0
BBX 16 12 0 0
BITMAP
F00F
381C
381C
2C2C
2C2C
244C
264C
264C
238C
238C
210C
F93F
ENDCHAR
STARTCHAR 039D
ENCODING 925
SWIDTH 668 0
DWIDTH 13 0
BBX 13 12 0 0
BITMAP
E0F8
7020
3820
3C20
2C20
2620
2320
21A0
21E0
20E0
2060
F820
ENDCHAR
STARTCHAR 039E
ENCODING 926
SWIDTH 617 0
DWIDTH 12 0
BBX 10 12 1 0
BITMAP
FFC0
FFC0
8040
0000
2100
3F00
3F00
2100
8040
8040
FFC0
FFC0
ENDCHAR
STARTCHAR 039F
ENCODING 927
SWIDTH 720 0
DWIDTH 14 0
BBX 12 12 1 0
BITMAP
0F80
30C0
6060
6030
C030
C030
C030
C030
C020
6060
30C0
0F00
ENDCHAR
STARTCHAR 03A0
ENCODING 928
SWIDTH 668 0
DWIDTH 13 0
BBX 13 12 0 0
BITMAP
FFF8
3060
3060
3060
3060
3060
3060
3060
3060
3060
3060
FDF8
ENDCHAR
STARTCHAR 03A1
ENCODING 929
SWIDTH 565 0
DWIDTH 11 0
BBX 10 12 0 0
BITMAP
FF00
3180
30C0
30C0
30C0
3180
3F00
3000
3000
3000
3000
FC00
ENDCHAR
STARTCHAR 03A3
ENCODING 931
SWIDTH 565 0
DWIDTH 11 0
BBX 10 12 0 0
BITMAP
FF80
6080
3080
3000
1800
0C00
0800
1000
1040
20C0
7FC0
FFC0
ENDCHAR
STARTCHAR 03A4
ENCODING 932
SWIDTH 617 0
DWIDTH 12 0
BBX 12 12 0 0
BITMAP
FFF0
C630
8610
0600
0600
0600
0600
0600
0600
0600
0600
1F80
ENDCHAR
STARTCHAR 03A5
ENCODING 933
SWIDTH 668 0
DWIDTH 13 0
BBX 13 12 0 0
BITMAP
FC78
3010
1820
0C40
0C40
0680
0300
0300
0300
0300
0300
0FC0
ENDCHAR
STARTCHAR 03A6
ENCODING 934
SWIDTH 720 0
DWIDTH 14 0
BBX 12 12 1 0
BITMAP
1F80
0600
1FC0
6660
C630
C630
C630
C630
6660
3FC0
0600
1F80
ENDCHAR
STARTCHAR 03A7
ENCODING 935
SWIDTH 668 0
DWIDTH 13 0
BBX 13 12 0 0
BITMAP
FC78
3020
1840
0C80
0F00
0600
0300
0580
0980
10C0
2060
F0F8
ENDCHAR
STARTCHAR 03A8
ENCODING 936
SWIDTH 720 0
DWIDTH 14 0
BBX 14 12 0 0
BITMAP
CFCC
6318
6318
6318
6318
3330
1FE0
0300
0300
0300
0300
0FC0
ENDCHAR
STARTCHAR 03A9
ENCODING 937
SWIDTH 720 0
DWIDTH 14 0
BBX 12 12 1 0
BITMAP
1F80
30C0
6060
C030
C030
C030
C030
6060
1980
8910
F9F0
F9F0
ENDCHAR
STARTCHAR 03AA
ENCODING 938
SWIDTH 308 0
DWIDTH 6 0
BBX 6 15 0 0
BITMAP
6C
6C
00
FC
30
30
30
30
30
30
30
30
30
30
FC
ENDCHAR
STARTCHAR 03AB
ENCODING 939
SWIDTH 668 0
DWIDTH 13 0
BBX 13 15 0 0
BITMAP
06C0
06C0
0000
FC78
3010
1820
0C40
0C40
0680
0300
0300
0300
0300
0300
0FC0
ENDCHAR
STARTCHAR 03AC
ENCODING 940
SWIDTH 514 0
DWIDTH 10 0
BBX 9 13 1 0
BITMAP
0C00
1800
1000
0000
3300
6B00
C700
C600
C600
C600
C600
6E80
3980
ENDCHAR
STARTCHAR 03AD
ENCODING 941
SWIDTH 411 0
DWIDTH 8 0
BBX 7 13 1 0
BITMAP
18
30
20
00
7C
C6
C0
C0
38
C0
C6
C6
7C
ENDCHAR
STARTCHAR 03AE
ENCODING 942
SWIDTH 514 0
DWIDTH 10 0
BBX 9 17 0 -4
BITMAP
0600
0C00
0800
0000
6700
B980
3180
3180
3180
3180
3180
3180
3180
0180
0180
0180
0180
ENDCHAR
STARTCHAR 03AF
ENCODING 943
SWIDTH 257 0
DWIDTH 5 0
BBX 5 13 0 0
BITMAP
30
60
40
00
60
E0
60
60
60
60
60
68
70
ENDCHAR
STARTCHAR 03B0
ENCODING 944
SWIDTH 514 0
DWIDTH 10 0
BBX 9 13 0 0
BITMAP
0400
6B00
6B00
0000
7600
B300
3180
3180
3180
3180
3180
3300
1E00
ENDCHAR
STARTCHAR 03B1
ENCODING 945
SWIDTH 514 0
DWIDTH 10 0
BBX 9 9 1 0
BITMAP
3300
6B00
C700
C600
C600
C600
C600
6E80
3980
ENDCHAR
STARTCHAR 03B2
ENCODING 946
SWIDTH 514 0
DWIDTH 10 0
BBX 8 17 1 -4
BITMAP
3C
C6
C6
C6
C4
D8
C6
C3
C3
C3
C3
C6
FC
C0
C0
C0
C0
ENDCHAR
STARTCHAR 03B3
ENCODING 947
SWIDTH 411 0
DWIDTH 8 0
BBX 8 13 0 -4
BITMAP
63
92
96
16
14
14
18
08
08
18
18
18
18
ENDCHAR
STARTCHAR 03B4
ENCODING 948
SWIDTH 514 0
DWIDTH 10 0
BBX 8 13 1 0
BITMAP
3C
46
40
20
18
3C
66
C3
C3
C3
C3
66
3C
ENDCHAR
STARTCHAR 03B5
ENCODING 949
SWIDTH 411 0
DWIDTH 8 0
BBX 7 9 1 0
BITMAP
7C
C6
C0
C0
38
C0
C6
C6
7C
ENDCHAR
STARTCHAR 03B6
ENCODING 950
SWIDTH 411 0
DWIDTH 8 0
BBX 7 17 1 -4
BITMAP
26
4E
78
20
40
40
80
80
80
80
C0
FC
7E
02
02
02
1C
ENDCHAR
STARTCHAR 03B7
ENCODING 951
SWIDTH 514 0
DWIDTH 10 0
BBX 9 13 0 -4
BITMAP
6700
B980
3180
3180
3180
3180
3180
3180
3180
0180
0180
0180
0180
ENDCHAR
STARTCHAR 03B8
ENCODING 952
SWIDTH 462 0
DWIDTH 9 0
BBX 7 12 1 0
BITMAP
38
6C
44
C6
C6
FE
C6
C6
C6
44
6C
38
ENDCHAR
STARTCHAR 03B9
ENCODING 953
SWIDTH 257 0
DWIDTH 5 0
BBX 5 9 0 0
BITMAP
60
E0
60
60
60
60
60
68
70
ENDCHAR
STARTCHAR 03BA
ENCODING 954
SWIDTH 514 0
DWIDTH 10 0
BBX 10 9 0 0
BITMAP
6180
E780
6800
6800
7800
6C00
6600
6600
63C0
ENDCHAR
STARTCHAR 03BB
ENCODING 955
SWIDTH 462 0
DWIDTH 9 0
BBX 9 13 0 0
BITMAP
6000
9000
9000
0800
0800
0800
1800
1C00
3400
3400
6400
6480
C380
ENDCHAR
STARTCHAR 03BC
ENCODING 956
SWIDTH 514 0
DWIDTH 10 0
BBX 10 13 0 -4
BITMAP
6300
6300
6300
6300
6300
6300
6300
6740
7980
4000
4000
C000
C000
ENDCHAR
STARTCHAR 03BD
ENCODING 957
SWIDTH 462 0
DWIDTH 9 0
BBX 9 9 0 0
BITMAP
6180
E180
3180
3100
1900
1A00
1A00
0C00
0C00
ENDCHAR
STARTCHAR 03BE
ENCODING 958
SWIDTH 411 0
DWIDTH 8 0
BBX 7 17 1 -4
BITMAP
64
4C
38
20
20
3C
20
40
80
80
80
FC
7E
02
02
02
1C
ENDCHAR
STARTCHAR 03BF
ENCODING 959
SWIDTH 514 0
DWIDTH 10 0
BBX 8 9 1 0
BITMAP
3C
66
C3
C3
C3
C3
C3
66
3C
ENDCHAR
STARTCHAR 03C0
ENCODING 960
SWIDTH 514 0
DWIDTH 10 0
BBX 10 9 0 0
BITMAP
7FC0
9100
1300
1300
1300
3300
3300
6340
6180
ENDCHAR
STARTCHAR 03C1
ENCODING 961
SWIDTH 514 0
DWIDTH 10 0
BBX 8 13 1 -4
BITMAP
3C
46
C3
C3
C3
C3
C2
E6
DC
C0
C0
C0
C0
ENDCHAR
STARTCHAR 03C2
ENCODING 962
SWIDTH 411 0
DWIDTH 8 0
BBX 6 13 1 -4
BITMAP
1C
64
40
80
80
80
C0
F8
7C
04
04
04
38
ENDCHAR
STARTCHAR 03C3
ENCODING 963
SWIDTH 514 0
DWIDTH 10 0
BBX 9 9 1 0
BITMAP
3F80
6400
C200
C300
C300
C300
4300
6600
3C00
ENDCHAR
STARTCHAR 03C4
ENCODING 964
SWIDTH 411 0
DWIDTH 8 0
BBX 8 9 0 0
BITMAP
7F
88
18
18
18
18
18
19
0E
ENDCHAR
STARTCHAR 03C5
ENCODING 965
SWIDTH 514 0
DWIDTH 10 0
BBX 9 9 0 0
BITMAP
7600
B300
3180
3180
3180
3180
3180
3300
1E00
ENDCHAR
STARTCHAR 03C6
ENCODING 966
SWIDTH 565 0
DWIDTH 11 0
BBX 9 13 1 -4
BITMAP
3600
6B00
C980
C980
C980
C980
C980
6B00
3E00
0800
0800
0800
0800
ENDCHAR
STARTCHAR 03C7
ENCODING 967
SWIDTH 411 0
DWIDTH 8 0
BBX 8 13 0 -4
BITMAP
63
A6
A6
1C
1C
18
18
18
38
38
69
69
C6
ENDCHAR
STARTCHAR 03C8
ENCODING 968
SWIDTH 565 0
DWIDTH 11 0
BBX 11 13 0 -4
BITMAP
C460
64C0
64C0
64C0
64C0
2480
2480
1500
0E00
0400
0400
0400
0400
ENDCHAR
STARTCHAR 03C9
ENCODING 969
SWIDTH 668 0
DWIDTH 13 0
BBX 11 9 1 0
BITMAP
3180
60C0
C460
C460
C460
C460
C460
64C0
3B80
ENDCHAR
STARTCHAR 03CA
ENCODING 970
SWIDTH 257 0
DWIDTH 5 0
BBX 6 12 -1 0
BITMAP
D8
D8
00
30
70
30
30
30
30
30
34
38
ENDCHAR
STARTCHAR 03CB
ENCODING 971
SWIDTH 514 0
DWIDTH 10 0
BBX 9 12 0 0
BITMAP
1B00
1B00
0000
7600
B300
3180
3180
3180
3180
3180
3300
1E00
ENDCHAR
STARTCHAR 03CC
ENCODING 972
SWIDTH 514 0
DWIDTH 10 0
BBX 8 13 1 0
BITMAP
0C
18
10
00
3C
66
C3
C3
C3
C3
C3
66
3C
ENDCHAR
STARTCHAR 03CD
ENCODING 973
SWIDTH 514 0
DWIDTH 10 0
BBX 9 13 0 0
BITMAP
0600
0C00
0800
0000
7600
B300
3180
3180
3180
3180
3180
3300
1E00
ENDCHAR
STARTCHAR 03CE
ENCODING 974
SWIDTH 668 0
DWIDTH 13 0
BBX 11 13 1 0
BITMAP
0600
0C00
0800
0000
3180
60C0
C460
C460
C460
C460
C460
64C0
3B80
ENDCHAR
STARTCHAR 0401
ENCODING 1025
SWIDTH 565 0
DWIDTH 11 0
BBX 11 15 0 0
BITMAP
1B00
1B00
0000
FFC0
3040
3040
3100
3100
3F00
3100
3100
3000
3020
3040
FFC0
ENDCHAR
STARTCHAR 0402
ENCODING 1026
SWIDTH 720 0
DWIDTH 14 0
BBX 13 12 0 0
BITMAP
FFC0
CCC0
8C40
0C00
0DE0
0E30
0C18
0C18
0C18
0C18
0C18
3F70
ENDCHAR
STARTCHAR 0403
ENCODING 1027
SWIDTH 565 0
DWIDTH 11 0
BBX 11 16 0 0
BITMAP
0300
0600
0400
0000
FFE0
3060
3020
3000
3000
3000
3000
3000
3000
3000
3000
FC00
ENDCHAR
STARTCHAR 0404
ENCODING 1028
SWIDTH 668 0
DWIDTH 13 0
BBX 11 12 1 0
BITMAP
1E40
31C0
60C0
C040
C000
FE00
C000
C000
C000
6020
30C0
0F80
ENDCHAR
STARTCHAR 0405
ENCODING 1029
SWIDTH 565 0
DWIDTH 11 0
BBX 9 12 1 0
BITMAP
3D00
6300
C100
C100
7000
3C00
0F00
0380
8180
8180
E300
9E00
ENDCHAR
STARTCHAR 0406
ENCODING 1030
SWIDTH 308 0
DWIDTH 6 0
BBX 6 12 0 0
BITMAP
FC
30
30
30
30
30
30
30
30
30
30
FC
ENDCHAR
STARTCHAR 0407
ENCODING 1031
SWIDTH 308 0
DWIDTH 6 0
BBX 6 15 0 0
BITMAP
6C
6C
00
FC
30
30
30
30
30
30
30
30
30
30
FC
ENDCHAR
STARTCHAR 0408
ENCODING 1032
SWIDTH 360 0
DWIDTH 7 0
BBX 7 12 0 0
BITMAP
7E
18
18
18
18
18
18
18
18
18
D0
70
ENDCHAR
STARTCHAR 0409
ENCODING 1033
SWIDTH 874 0
DWIDTH 17 0
BBX 16 12 0 0
BITMAP
3FF0
08C0
08C0
08C0
08C0
08FC
08C6
08C3
08C3
10C3
D0C6
E3FC
ENDCHAR
STARTCHAR 040A
ENCODING 1034
SWIDTH 874 0
DWIDTH 17 0
BBX 16 12 0 0
BITMAP
FBF0
30C0
30C0
30C0
30C0
3FFC
30C6
30C3
30C3
30C3
30C6
FBFC
ENDCHAR
STARTCHAR 040B
ENCODING 1035
SWIDTH 720 0
DWIDTH 14 0
BBX 14 12 0 0
BITMAP
FFC0
CCC0
8C40
0C00
0DE0
0E30
0C30
0C30
0C30
0C30
0C30
3EFC
ENDCHAR
STARTCHAR 040C
ENCODING 1036
SWIDTH 668 0
DWIDTH 13 0
BBX 12 16 0 0
BITMAP
0180
0300
0200
0000
FC70
30B0
3100
3100
3300
3E00
3600
3300
3180
30C0
30C0
FC70
ENDCHAR
STARTCHAR 040E
ENCODING 1038
SWIDTH 668 0
DWIDTH 13 0
BBX 13 16 0 0
BITMAP
1040
18C0
0F80
0000
FC78
3020
1820
1840
0C40
0C80
0680
0280
0300
0100
1A00
1C00
ENDCHAR
STARTCHAR 040F
ENCODING 1039
SWIDTH 668 0
DWIDTH 13 0
BBX 13 16 0 -4
BITMAP
FDF8
3060
3060
3060
3060
3060
3060
3060
3060
3060
3060
FFF8
0700
0200
0200
0200
ENDCHAR
STARTCHAR 0410
ENCODING 1040
SWIDTH 668 0
DWIDTH 13 0
BBX 13 12 0 0
BITMAP
0300
0300
0580
0580
0980
08C0
10C0
1FC0
1060
2060
6070
F0F8
ENDCHAR
STARTCHAR 0411
ENCODING 1041
SWIDTH 565 0
DWIDTH 11 0
BBX 10 12 0 0
BITMAP
FF80
3180
3080
3000
3000
3F00
3180
30C0
30C0
30C0
3180
FF00
ENDCHAR
STARTCHAR 0412
ENCODING 1042
SWIDTH 617 0
DWIDTH 12 0
BBX 11 12 0 0
BITMAP
FF80
30C0
30C0
30C0
30C0
3F80
30C0
3060
3060
3060
30C0
FF80
ENDCHAR
STARTCHAR 0413
ENCODING 1043
SWIDTH 565 0
DWIDTH 11 0
BBX 11 12 0 0
BITMAP
FFE0
3060
3020
3000
3000
3000
3000
3000
3000
3000
3000
FC00
ENDCHAR
STARTCHAR 0414
ENCODING 1044
SWIDTH 668 0
DWIDTH 13 0
BBX 12 16 1 -4
BITMAP
7FF0
10C0
10C0
10C0
10C0
10C0
10C0
20C0
20C0
20C0
40C0
FFF0
E070
C030
8010
8010
ENDCHAR
STARTCHAR 0415
ENCODING 1045
SWIDTH 565 0
DWIDTH 11 0
BBX 11 12 0 0
BITMAP
FFC0
3040
3040
3100
3100
3F00
3100
3100
3000
3020
3040
FFC0
ENDCHAR
STARTCHAR 0416
ENCODING 1046
SWIDTH 874 0
DWIDTH 17 0
BBX 16 12 1 0
BITMAP
E7E7
D18B
1188
0990
0990
07E0
0DB0
0998
1998
318C
318C
E7E7
ENDCHAR
STARTCHAR 0417
ENCODING 1047
SWIDTH 514 0
DWIDTH 10 0
BBX 8 12 1 0
BITMAP
5E
63
43
03
06
18
06
03
03
83
46
3C
ENDCHAR
STARTCHAR 0418
ENCODING 1048
SWIDTH 668 0
DWIDTH 13 0
BBX 13 12 0 0
BITMAP
FDF8
3060
3060
30E0
3160
3260
3260
3460
3860
3060
3060
FDF8
ENDCHAR
STARTCHAR 0419
ENCODING 1049
SWIDTH 668 0
DWIDTH 13 0
BBX 13 16 0 0
BITMAP
1040
18C0
0F80
0000
FDF8
3060
3060
30E0
3160
3260
3260
3460
3860
3060
3060
FDF8
ENDCHAR
STARTCHAR 041A
ENCODING 1050
SWIDTH 668 0
DWIDTH 13 0
BBX 12 12 0 0
BITMAP
FC70
30B0
3100
3100
3300
3E00
3600
3300
3180
30C0
30C0
FC70
ENDCHAR
STARTCHAR 041B
ENCODING 1051
SWIDTH 668 0
DWIDTH 13 0
BBX 13 12 0 0
BITMAP
3FF8
0860
0860
0860
0860
0860
0860
0860
0860
1060
D060
E1F8
ENDCHAR
STARTCHAR 041C
ENCODING 1052
SWIDTH 822 0
DWIDTH 16 0
BBX 16 12 0 0
BITMAP
F00F
381C
381C
2C2C
2C2C
244C
264C
264C
238C
238C
210C
F93F
ENDCHAR
STARTCHAR 041D
ENCODING 1053
SWIDTH 668 0
DWIDTH 13 0
BBX 13 12 0 0
BITMAP
FDF8
3060
3060
3060
3060
3FE0
3060
3060
3060
3060
3060
FDF8
ENDCHAR
STARTCHAR 041E
ENCODING 1054
SWIDTH 720 0
DWIDTH 14 0
BBX 12 12 1 0
BITMAP
0F80
30C0
6060
6030
C030
C030
C030
C030
C020
6060
30C0
0F00
ENDCHAR
STARTCHAR 041F
ENCODING 1055
SWIDTH 668 0
DWIDTH 13 0
BBX 13 12 0 0
BITMAP
FFF8
3060
3060
3060
3060
3060
3060
3060
3060
3060
3060
FDF8
ENDCHAR
STARTCHAR 0420
ENCODING 1056
SWIDTH 565 0
DWIDTH 11 0
BBX 10 12 0 0
BITMAP
FF00
3180
30C0
30C0
30C0
3180
3F00
3000
3000
3000
3000
FC00
ENDCHAR
STARTCHAR 0421
ENCODING 1057
SWIDTH 668 0
DWIDTH 13 0
BBX 11 12 1 0
BITMAP
0F20
30E0
6020
4020
C000
C000
C000
C000
C000
6020
3040
1F80
ENDCHAR
STARTCHAR 0422
ENCODING 1058
SWIDTH 617 0
DWIDTH 12 0
BBX 12 12 0 0
BITMAP
FFF0
C630
8610
0600
0600
0600
0600
0600
0600
0600
0600
1F80
ENDCHAR
STARTCHAR 0423
ENCODING 1059
SWIDTH 668 0
DWIDTH 13 0
BBX 13 12 0 0
BITMAP
FC78
3020
1820
1840
0C40
0C80
0680
0280
0300
0100
1A00
1C00
ENDCHAR
STARTCHAR 0424
ENCODING 1060
SWIDTH 720 0
DWIDTH 14 0
BBX 12 12 1 0
BITMAP
1F80
0600
3FC0
6660
C630
C630
C630
C630
6660
3FC0
0600
1F80
ENDCHAR
STARTCHAR 0425
ENCODING 1061
SWIDTH 668 0
DWIDTH 13 0
BBX 13 12 0 0
BITMAP
FC78
3020
1840
0C80
0F00
0600
0300
0580
0980
10C0
2060
F0F8
ENDCHAR
STARTCHAR 0426
ENCODING 1062
SWIDTH 668 0
DWIDTH 13 0
BBX 13 16 0 -4
BITMAP
FDF8
3060
3060
3060
3060
3060
3060
3060
3060
3060
3060
FFE0
0038
0018
0008
0008
ENDCHAR
STARTCHAR 0427
ENCODING 1063
SWIDTH 617 0
DWIDTH 12 0
BBX 12 12 0 0
BITMAP
FBF0
30C0
30C0
30C0
30C0
30C0
31C0
1EC0
00C0
00C0
00C0
03F0
ENDCHAR
STARTCHAR 0428
ENCODING 1064
SWIDTH 925 0
DWIDTH 18 0
BBX 18 12 0 0
BITMAP
FBF7C0
30C300
30C300
30C300
30C300
30C300
30C300
30C300
30C300
30C300
30C300
FFFFC0
ENDCHAR
STARTCHAR 0429
ENCODING 1065
SWIDTH 925 0
DWIDTH 18 0
BBX 18 16 0 -4
BITMAP
FBF7C0
30C300
30C300
30C300
30C300
30C300
30C300
30C300
30C300
30C300
30C300
FFFF00
0001C0
0000C0
000040
000040
ENDCHAR
STARTCHAR 042A
ENCODING 1066
SWIDTH 668 0
DWIDTH 13 0
BBX 12 12 0 0
BITMAP
FF00
8C00
8C00
0C00
0C00
0FC0
0C60
0C30
0C30
0C30
0C60
3FC0
ENDCHAR
STARTCHAR 042B
ENCODING 1067
SWIDTH 874 0
DWIDTH 17 0
BBX 17 12 0 0
BITMAP
FC1F80
300600
300600
300600
300600
3F0600
318600
30C600
30C600
30C600
318600
FF1F80
ENDCHAR
STARTCHAR 042C
ENCODING 1068
SWIDTH 565 0
DWIDTH 11 0
BBX 10 12 0 0
BITMAP
FC00
3000
3000
3000
3000
3F00
3180
30C0
30C0
30C0
3180
FF00
ENDCHAR
STARTCHAR 042D
ENCODING 1069
SWIDTH 668 0
DWIDTH 13 0
BBX 11 12 1 0
BITMAP
4F00
7180
60C0
4060
0060
0FE0
0060
0060
0060
80C0
6180
3E00
ENDCHAR
STARTCHAR 042E
ENCODING 1070
SWIDTH 1028 0
DWIDTH 20 0
BBX 19 12 0 0
BITMAP
FC3E00
306180
30C0C0
318060
318060
3F8060
318060
318060
308040
30C0C0
306180
FC3E00
ENDCHAR
STARTCHAR 042F
ENCODING 1071
SWIDTH 668 0
DWIDTH 13 0
BBX 13 12 0 0
BITMAP
07F8
0C60
1860
1860
1860
0C60
03E0
0660
0C60
1860
3060
E1F8
ENDCHAR
STARTCHAR 0430
ENCODING 1072
SWIDTH 411 0
DWIDTH 8 0
BBX 6 9 1 0
BITMAP
78
CC
CC
1C
6C
CC
CC
CC
7C
ENDCHAR
STARTCHAR 0431
ENCODING 1073
SWIDTH 514 0
DWIDTH 10 0
BBX 8 13 1 0
BITMAP
01
3F
7E
40
BC
E6
C3
C3
C3
C3
C3
66
3C
ENDCHAR
STARTCHAR 0432
ENCODING 1074
SWIDTH 462 0
DWIDTH 9 0
BBX 8 9 0 0
BITMAP
FC
66
66
66
7C
63
63
63
FE
ENDCHAR
STARTCHAR 0433
ENCODING 1075
SWIDTH 411 0
DWIDTH 8 0
BBX 7 9 1 0
BITMAP
FC
62
60
60
60
60
60
60
F0
ENDCHAR
STARTCHAR 0434
ENCODING 1076
SWIDTH 514 0
DWIDTH 10 0
BBX 9 11 0 -2
BITMAP
3F80
1300
1300
1300
1300
2300
2300
4300
FF80
C180
8080
ENDCHAR
STARTCHAR 0435
ENCODING 1077
SWIDTH 411 0
DWIDTH 8 0
BBX 7 9 1 0
BITMAP
38
64
C6
FE
C0
C0
E2
7C
38
ENDCHAR
STARTCHAR 0436
ENCODING 1078
SWIDTH 668 0
DWIDTH 13 0
BBX 14 9 0 0
BITMAP
6798
7338
1340
0B40
0780
1B60
3330
3330
E79C
ENDCHAR
STARTCHAR 0437
ENCODING 1079
SWIDTH 411 0
DWIDTH 8 0
BBX 7 9 0 0
BITMAP
5C
66
46
04
18
0E
06
86
7C
ENDCHAR
STARTCHAR 0438
ENCODING 1080
SWIDTH 514 0
DWIDTH 10 0
BBX 10 9 0 0
BITMAP
F3C0
6180
6180
6380
6D80
7180
6180
6180
F3C0
ENDCHAR
STARTCHAR 0439
ENCODING 1081
SWIDTH 514 0
DWIDTH 10 0
BBX 10 13 0 0
BITMAP
2100
3300
1E00
0000
F3C0
6180
6180
6380
6D80
7180
6180
6180
F3C0
ENDCHAR
STARTCHAR 043A
ENCODING 1082
SWIDTH 462 0
DWIDTH 9 0
BBX 9 9 0 0
BITMAP
F380
6380
6400
6400
7800
6C00
6600
6300
F380
ENDCHAR
STARTCHAR 043B
ENCODING 1083
SWIDTH 462 0
DWIDTH 9 0
BBX 10 9 -1 0
BITMAP
3FC0
1180
1180
1180
1180
1180
1180
D180
E3C0
ENDCHAR
STARTCHAR 043C
ENCODING 1084
SWIDTH 617 0
DWIDTH 12 0
BBX 11 9 1 0
BITMAP
F1E0
71C0
71C0
5AC0
5AC0
5AC0
4CC0
4CC0
EDE0
ENDCHAR
STARTCHAR 043D
ENCODING 1085
SWIDTH 514 0
DWIDTH 10 0
BBX 10 9 0 0
BITMAP
F3C0
6180
6180
6180
7F80
6180
6180
6180
F3C0
ENDCHAR
STARTCHAR 043E
ENCODING 1086
SWIDTH 514 0
DWIDTH 10 0
BBX 8 9 1 0
BITMAP
3C
66
C3
C3
C3
C3
C3
66
3C
ENDCHAR
STARTCHAR 043F
ENCODING 1087
SWIDTH 514 0
DWIDTH 10 0
BBX 10 9 0 0
BITMAP
FFC0
6180
6180
6180
6180
6180
6180
6180
F3C0
ENDCHAR
STARTCHAR 0440
ENCODING 1088
SWIDTH 514 0
DWIDTH 10 0
BBX 9 13 0 -4
BITMAP
6E00
F300
6180
6180
6180
6180
6180
7300
6E00
6000
6000
6000
F000
ENDCHAR
STARTCHAR 0441
ENCODING 1089
SWIDTH 462 0
DWIDTH 9 0
BBX 7 9 1 0
BITMAP
3C
66
C2
C0
C0
C0
E2
7C
38
ENDCHAR
STARTCHAR 0442
ENCODING 1090
SWIDTH 411 0
DWIDTH 8 0
BBX 8 9 0 0
BITMAP
7E
99
18
18
18
18
18
18
3C
ENDCHAR
STARTCHAR 0443
ENCODING 1091
SWIDTH 462 0
DWIDTH 9 0
BBX 10 13 -1 -4
BITMAP
F9C0
7080
3080
1900
1900
0E00
0E00
0600
0400
0400
0C00
7800
7000
ENDCHAR
STARTCHAR 0444
ENCODING 1092
SWIDTH 617 0
DWIDTH 12 0
BBX 10 17 1 -4
BITMAP
0C00
0C00
0C00
0C00
7F80
4C80
CCC0
CCC0
CCC0
CCC0
CCC0
4C80
7F80
0C00
0C00
0C00
1E00
ENDCHAR
STARTCHAR 0445
ENCODING 1093
SWIDTH 462 0
DWIDTH 9 0
BBX 9 9 0 0
BITMAP
F780
6200
3400
1800
0800
1C00
2600
4300
E780
ENDCHAR
STARTCHAR 0446
ENCODING 1094
SWIDTH 514 0
DWIDTH 10 0
BBX 10 11 0 -2
BITMAP
F3C0
6180
6180
6180
6180
6180
6180
6180
FFC0
00C0
0040
ENDCHAR
STARTCHAR 0447
ENCODING 1095
SWIDTH 514 0
DWIDTH 10 0
BBX 9 9 0 0
BITMAP
F780
6300
6300
6300
7F00
0300
0300
0300
0780
ENDCHAR
STARTCHAR 0448
ENCODING 1096
SWIDTH 720 0
DWIDTH 14 0
BBX 14 9 0 0
BITMAP
F7BC
6318
6318
6318
6318
6318
6318
6318
FFFC
ENDCHAR
STARTCHAR 0449
ENCODING 1097
SWIDTH 720 0
DWIDTH 14 0
BBX 14 11 0 -2
BITMAP
F7BC
6318
6318
6318
6318
6318
6318
6318
FFF8
000C
0004
ENDCHAR
STARTCHAR 044A
ENCODING 1098
SWIDTH 514 0
DWIDTH 10 0
BBX 9 9 0 0
BITMAP
7800
B000
3000
3000
3F00
3180
3180
3180
7F00
ENDCHAR
STARTCHAR 044B
ENCODING 1099
SWIDTH 668 0
DWIDTH 13 0
BBX 13 9 0 0
BITMAP
F078
6030
6030
6030
7E30
6330
6330
6330
FE78
ENDCHAR
STARTCHAR 044C
ENCODING 1100
SWIDTH 462 0
DWIDTH 9 0
BBX 8 9 0 0
BITMAP
F0
60
60
60
7E
63
63
63
FE
ENDCHAR
STARTCHAR 044D
ENCODING 1101
SWIDTH 411 0
DWIDTH 8 0
BBX 7 9 0 0
BITMAP
58
6C
46
06
1E
06
06
CC
78
ENDCHAR
STARTCHAR 044E
ENCODING 1102
SWIDTH 720 0
DWIDTH 14 0
BBX 13 9 0 0
BITMAP
F1E0
6330
6618
6618
7E18
6618
6618
6330
F1E0
ENDCHAR
STARTCHAR 044F
ENCODING 1103
SWIDTH 462 0
DWIDTH 9 0
BBX 9 9 0 0
BITMAP
3F80
6300
6300
3300
1F00
1B00
3300
6300
C780
ENDCHAR
STARTCHAR 0451
ENCODING 1105
SWIDTH 411 0
DWIDTH 8 0
BBX 7 12 1 0
BITMAP
6C
6C
00
38
64
C6
FE
C0
C0
E2
7C
38
ENDCHAR
STARTCHAR 0452
ENCODING 1106
SWIDTH 462 0
DWIDTH 9 0
BBX 8 17 0 -4
BITMAP
E0
60
FE
60
6E
72
63
63
63
63
63
63
F3
02
06
0C
18
ENDCHAR
STARTCHAR 0453
ENCODING 1107
SWIDTH 411 0
DWIDTH 8 0
BBX 7 13 1 0
BITMAP
0C
18
10
00
FC
62
60
60
60
60
60
60
F0
ENDCHAR
STARTCHAR 0454
ENCODING 1108
SWIDTH 411 0
DWIDTH 8 0
BBX 7 9 1 0
BITMAP
34
6C
C4
C0
F0
C0
C0
66
3C
ENDCHAR
STARTCHAR 0455
ENCODING 1109
SWIDTH 411 0
DWIDTH 8 0
BBX 6 9 1 0
BITMAP
74
8C
84
E0
78
1C
84
C4
B8
ENDCHAR
STARTCHAR 0456
ENCODING 1110
SWIDTH 205 0
DWIDTH 4 0
BBX 4 13 0 0
BITMAP
60
60
00
00
60
E0
60
60
60
60
60
60
F0
ENDCHAR
STARTCHAR 0457
ENCODING 1111
SWIDTH 308 0
DWIDTH 6 0
BBX 5 13 0 0
BITMAP
D8
D8
00
00
30
70
30
30
30
30
30
30
78
ENDCHAR
STARTCHAR 0458
ENCODING 1112
SWIDTH 205 0
DWIDTH 4 0
BBX 5 17 -2 -4
BITMAP
18
18
00
00
18
38
18
18
18
18
18
18
18
18
18
D0
E0
ENDCHAR
STARTCHAR 0459
ENCODING 1113
SWIDTH 720 0
DWIDTH 14 0
BBX 13 9 0 0
BITMAP
3F80
1300
1300
1300
13F0
1318
1318
9318
E7F0
ENDCHAR
STARTCHAR 045A
ENCODING 1114
SWIDTH 720 0
DWIDTH 14 0
BBX 13 9 0 0
BITMAP
F780
6300
6300
6300
7FF0
6318
6318
6318
F7F0
ENDCHAR
STARTCHAR 045B
ENCODING 1115
SWIDTH 462 0
DWIDTH 9 0
BBX 9 13 0 0
BITMAP
E000
6000
FE00
6000
6E00
7300
6300
6300
6300
6300
6300
6300
F780
ENDCHAR
STARTCHAR 045C
ENCODING 1116
SWIDTH 462 0
DWIDTH 9 0
BBX 9 13 0 0
BITMAP
0600
0C00
0800
0000
F380
6380
6400
6400
7800
6C00
6600
6300
F380
ENDCHAR
STARTCHAR 045E
ENCODING 1118
SWIDTH 514 0
DWIDTH 10 0
BBX 10 17 0 -4
BITMAP
2100
3300
1E00
0000
FBC0
6180
3100
3100
1A00
1A00
0E00
0C00
0400
0800
0800
7000
7000
ENDCHAR
STARTCHAR 045F
ENCODING 1119
SWIDTH 514 0
DWIDTH 10 0
BBX 10 11 0 -2
BITMAP
F3C0
6180
6180
6180
6180
6180
6180
6180
FFC0
0E00
0400
ENDCHAR
STARTCHAR 0490
ENCODING 1168
SWIDTH 462 0
DWIDTH 9 0
BBX 9 14 0 0
BITMAP
0080
0180
FF80
3000
3000
3000
3000
3000
3000
3000
3000
3000
3000
FC00
ENDCHAR
STARTCHAR 0491
ENCODING 1169
SWIDTH 360 0
DWIDTH 7 0
BBX 7 11 0 0
BITMAP
02
02
FE
60
60
60
60
60
60
60
F0
ENDCHAR
STARTCHAR 0492
ENCODING 1170
SWIDTH 565 0
DWIDTH 11 0
BBX 11 12 0 0
BITMAP
FFE0
3060
3020
3000
3000
FF00
3000
3000
3000
3000
3000
FC00
ENDCHAR
STARTCHAR 0493
ENCODING 1171
SWIDTH 411 0
DWIDTH 8 0
BBX 7 9 1 0
BITMAP
FC
62
60
60
F8
60
60
60
F0
ENDCHAR
STARTCHAR 0496
ENCODING 1174
SWIDTH 874 0
DWIDTH 17 0
BBX 16 16 1 -4
BITMAP
E7E7
D18B
1188
0990
0990
07E0
0DB0
1998
1998
318C
718E
E7E7
0003
0001
0001
0001
ENDCHAR
STARTCHAR 0497
ENCODING 1175
SWIDTH 668 0
DWIDTH 13 0
BBX 13 11 0 -2
BITMAP
6798
7338
1340
0B40
0780
1B60
3330
3330
E798
0008
0008
ENDCHAR
STARTCHAR 049A
ENCODING 1178
SWIDTH 668 0
DWIDTH 13 0
BBX 13 16 0 -4
BITMAP
FC70
30B0
3100
3100
3300
3E00
3600
3300
3180
30C0
30C0
FC70
0018
0018
0008
0008
ENDCHAR
STARTCHAR 049B
ENCODING 1179
SWIDTH 462 0
DWIDTH 9 0
BBX 9 11 0 -2
BITMAP
F380
6380
6400
6400
7800
6C00
6600
6300
F380
0080
0080
ENDCHAR
STARTCHAR 049C
ENCODING 1180
SWIDTH 668 0
DWIDTH 13 0
BBX 12 12 0 0
BITMAP
FC70
30B0
3500
3500
3700
3E00
3600
3700
3580
34C0
30C0
FC70
ENDCHAR
STARTCHAR 049D
ENCODING 1181
SWIDTH 462 0
DWIDTH 9 0
BBX 9 9 0 0
BITMAP
F380
6B80
6C00
6C00
7800
6E00
6E00
6B00
F380
ENDCHAR
STARTCHAR 04A2
ENCODING 1186
SWIDTH 668 0
DWIDTH 13 0
BBX 13 16 0 -4
BITMAP
FDF8
3060
3060
3060
3060
3FE0
3060
3060
3060
3060
3060
FDE0
0038
0018
0008
0008
ENDCHAR
STARTCHAR 04A3
ENCODING 1187
SWIDTH 514 0
DWIDTH 10 0
BBX 10 11 0 -2
BITMAP
F3C0
6180
6180
6180
7F80
6180
6180
6180
F380
00C0
0040
ENDCHAR
STARTCHAR 04AE
ENCODING 1198
SWIDTH 668 0
DWIDTH 13 0
BBX 13 12 0 0
BITMAP
FC78
3010
1820
0C40
0C40
0680
0300
0300
0300
0300
0300
0FC0
ENDCHAR
STARTCHAR 04AF
ENCODING 1199
SWIDTH 514 0
DWIDTH 10 0
BBX 10 13 0 -4
BITMAP
F1C0
6080
3100
3100
1A00
1A00
1A00
0C00
0C00
0C00
0C00
0C00
3F00
ENDCHAR
STARTCHAR 04B0
ENCODING 1200
SWIDTH 668 0
DWIDTH 13 0
BBX 13 12 0 0
BITMAP
FC78
3010
1820
0C40
0C40
0680
0300
3FF0
0300
0300
0300
0FC0
ENDCHAR
STARTCHAR 04B1
ENCODING 1201
SWIDTH 514 0
DWIDTH 10 0
BBX 10 13 0 -4
BITMAP
F1C0
6080
3100
3100
1A00
1A00
1A00
0C00
FFC0
0C00
0C00
0C00
3F00
ENDCHAR
STARTCHAR 04B2
ENCODING 1202
SWIDTH 668 0
DWIDTH 13 0
BBX 13 16 0 -4
BITMAP
FC78
3020
1840
0C80
0F00
0600
0300
0580
0980
10C0
2060
F0F0
0038
0018
0008
0008
ENDCHAR
STARTCHAR 04B3
ENCODING 1203
SWIDTH 462 0
DWIDTH 9 0
BBX 9 11 0 -2
BITMAP
F780
6200
3400
1800
0800
1C00
2600
4300
E780
0080
0080
ENDCHAR
STARTCHAR 04B8
ENCODING 1208
SWIDTH 617 0
DWIDTH 12 0
BBX 12 12 0 0
BITMAP
FBF0
30C0
30C0
34C0
34C0
34C0
35C0
1EC0
04C0
04C0
00C0
03F0
ENDCHAR
STARTCHAR 04B9
ENCODING 1209
SWIDTH 514 0
DWIDTH 10 0
BBX 9 9 0 0
BITMAP
F780
6300
6B00
6B00
7F00
0B00
0B00
0300
0780
ENDCHAR
STARTCHAR 04BA
ENCODING 1210
SWIDTH 617 0
DWIDTH 12 0
BBX 12 12 0 0
BITMAP
FC00
3000
3000
3000
3780
38C0
30C0
30C0
30C0
30C0
30C0
FDF0
ENDCHAR
STARTCHAR 04BB
ENCODING 1211
SWIDTH 462 0
DWIDTH 9 0
BBX 9 13 0 0
BITMAP
6000
E000
6000
6000
6E00
7300
6300
6300
6300
6300
6300
6300
F780
ENDCHAR
STARTCHAR 04D8
ENCODING 1240
SWIDTH 720 0
DWIDTH 14 0
BBX 12 12 1 0
BITMAP
4F00
70C0
4060
4020
0030
FFF0
C030
C030
4070
6060
30C0
1F80
ENDCHAR
STARTCHAR 04D9
ENCODING 1241
SWIDTH 411 0
DWIDTH 8 0
BBX 7 9 0 0
BITMAP
38
7C
8E
06
06
FE
C6
4C
38
ENDCHAR
STARTCHAR 04E8
ENCODING 1256
SWIDTH 720 0
DWIDTH 14 0
BBX 12 12 1 0
BITMAP
0F80
30C0
6060
C030
C030
FFF0
C030
C030
C020
6060
30C0
1F00
ENDCHAR
STARTCHAR 04E9
ENCODING 1257
SWIDTH 514 0
DWIDTH 10 0
BBX 8 9 1 0
BITMAP
3C
66
C3
C3
FF
C3
C3
66
3C
ENDCHAR
STARTCHAR 05B0
ENCODING 1456
SWIDTH 308 0
DWIDTH 6 0
BBX 1 3 2 -4
BITMAP
80
00
80
ENDCHAR
STARTCHAR 05B1
ENCODING 1457
SWIDTH 308 0
DWIDTH 6 0
BBX 5 3 0 -4
BITMAP
A8
00
48
ENDCHAR
STARTCHAR 05B2
ENCODING 1458
SWIDTH 308 0
DWIDTH 6 0
BBX 6 3 0 -4
BITMAP
F4
00
04
ENDCHAR
STARTCHAR 05B3
ENCODING 1459
SWIDTH 308 0
DWIDTH 6 0
BBX 6 3 0 -4
BITMAP
F4
40
44
ENDCHAR
STARTCHAR 05B4
ENCODING 1460
SWIDTH 308 0
DWIDTH 6 0
BBX 1 1 2 -3
BITMAP
80
ENDCHAR
STARTCHAR 05B5
ENCODING 1461
SWIDTH 308 0
DWIDTH 6 0
BBX 3 1 2 -3
BITMAP
A0
ENDCHAR
STARTCHAR 05B6
ENCODING 1462
SWIDTH 308 0
DWIDTH 6 0
BBX 3 3 2 -4
BITMAP
A0
00
40
ENDCHAR
STARTCHAR 05B7
ENCODING 1463
SWIDTH 308 0
DWIDTH 6 0
BBX 4 1 1 -3
BITMAP
F0
ENDCHAR
STARTCHAR 05B8
ENCODING 1464
SWIDTH 308 0
DWIDTH 6 0
BBX 4 3 1 -4
BITMAP
F0
40
40
ENDCHAR
STARTCHAR 05B9
ENCODING 1465
SWIDTH 308 0
DWIDTH 6 0
BBX 1 1 2 12
BITMAP
80
ENDCHAR
STARTCHAR 05BA
ENCODING 1466
SWIDTH 308 0
DWIDTH 6 0
BBX 1 1 2 12
BITMAP
80
ENDCHAR
STARTCHAR 05BB
ENCODING 1467
SWIDTH 308 0
DWIDTH 6 0
BBX 5 3 0 -4
BITMAP
80
20
08
ENDCHAR
STARTCHAR 05BC
ENCODING 1468
SWIDTH 308 0
DWIDTH 6 0
BBX 1 1 2 5
BITMAP
80
ENDCHAR
STARTCHAR 05BD
ENCODING 1469
SWIDTH 308 0
DWIDTH 6 0
BBX 1 3 3 -4
BITMAP
80
80
80
ENDCHAR
STARTCHAR 05BE
ENCODING 1470
SWIDTH 360 0
DWIDTH 7 0
BBX 5 2 1 8
BITMAP
F8
F8
ENDCHAR
STARTCHAR 05BF
ENCODING 1471
SWIDTH 308 0
DWIDTH 6 0
BBX 4 1 1 12
BITMAP
F0
ENDCHAR
STARTCHAR 05C0
ENCODING 1472
SWIDTH 308 0
DWIDTH 6 0
BBX 1 12 2 -1
BITMAP
80
80
80
80
80
80
80
80
80
80
80
80
ENDCHAR
STARTCHAR 05C1
ENCODING 1473
SWIDTH 360 0
DWIDTH 7 0
BBX 1 1 6 12
BITMAP
80
ENDCHAR
STARTCHAR 05C2
ENCODING 1474
SWIDTH 360 0
DWIDTH 7 0
BBX 1 1 -1 12
BITMAP
80
ENDCHAR
STARTCHAR 05C3
ENCODING 1475
SWIDTH 257 0
DWIDTH 5 0
BBX 2 10 2 0
BITMAP
C0
C0
00
00
00
00
00
00
C0
C0
ENDCHAR
STARTCHAR 05D0
ENCODING 1488
SWIDTH 462 0
DWIDTH 9 0
BBX 7 11 1 0
BITMAP
88
8E
CE
64
68
78
98
CC
C6
66
E2
ENDCHAR
STARTCHAR 05D1
ENCODING 1489
SWIDTH 462 0
DWIDTH 9 0
BBX 8 11 1 0
BITMAP
80
FC
FE
02
02
02
02
02
04
FF
FF
ENDCHAR
STARTCHAR 05D2
ENCODING 1490
SWIDTH 308 0
DWIDTH 6 0
BBX 6 11 0 0
BITMAP
40
78
78
08
08
08
08
0C
1C
E4
E4
ENDCHAR
STARTCHAR 05D3
ENCODING 1491
SWIDTH 411 0
DWIDTH 8 0
BBX 6 11 1 0
BITMAP
80
FC
FC
08
08
08
08
08
08
08
08
ENDCHAR
STARTCHAR 05D4
ENCODING 1492
SWIDTH 462 0
DWIDTH 9 0
BBX 7 11 1 0
BITMAP
80
FE
FE
04
04
04
04
84
84
84
84
ENDCHAR
STARTCHAR 05D5
ENCODING 1493
SWIDTH 257 0
DWIDTH 5 0
BBX 3 11 1 0
BITMAP
80
E0
E0
20
20
20
20
20
20
20
20
ENDCHAR
STARTCHAR 05D6
ENCODING 1494
SWIDTH 257 0
DWIDTH 5 0
BBX 3 11 1 0
BITMAP
80
E0
E0
40
40
40
40
40
40
40
40
ENDCHAR
STARTCHAR 05D7
ENCODING 1495
SWIDTH 462 0
DWIDTH 9 0
BBX 7 11 1 0
BITMAP
80
FE
FE
84
84
84
84
84
84
84
84
ENDCHAR
STARTCHAR 05D8
ENCODING 1496
SWIDTH 462 0
DWIDTH 9 0
BBX 7 11 1 0
BITMAP
80
E4
EE
4A
42
42
42
42
24
3C
3C
ENDCHAR
STARTCHAR 05D9
ENCODING 1497
SWIDTH 257 0
DWIDTH 5 0
BBX 3 6 1 5
BITMAP
80
E0
E0
20
20
40
ENDCHAR
STARTCHAR 05DA
ENCODING 1498
SWIDTH 462 0
DWIDTH 9 0
BBX 7 14 1 -3
BITMAP
80
FE
FE
02
02
02
02
02
02
02
02
02
02
02
ENDCHAR
STARTCHAR 05DB
ENCODING 1499
SWIDTH 411 0
DWIDTH 8 0
BBX 6 11 1 0
BITMAP
80
F8
FC
0C
04
04
04
04
0C
FC
F8
ENDCHAR
STARTCHAR 05DC
ENCODING 1500
SWIDTH 411 0
DWIDTH 8 0
BBX 7 14 0 0
BITMAP
80
40
40
40
7E
7E
02
02
02
04
08
10
10
10
ENDCHAR
STARTCHAR 05DD
ENCODING 1501
SWIDTH 514 0
DWIDTH 10 0
BBX 8 11 1 0
BITMAP
80
FE
FF
21
41
81
81
81
81
FF
FF
ENDCHAR
STARTCHAR 05DE
ENCODING 1502
SWIDTH 462 0
DWIDTH 9 0
BBX 7 11 1 0
BITMAP
80
E8
EC
36
42
42
82
82
82
BC
BC
ENDCHAR
STARTCHAR 05DF
ENCODING 1503
SWIDTH 257 0
DWIDTH 5 0
BBX 3 14 1 -3
BITMAP
80
E0
E0
20
20
20
20
20
20
20
20
20
20
20
ENDCHAR
STARTCHAR 05E0
ENCODING 1504
SWIDTH 308 0
DWIDTH 6 0
BBX 5 11 0 0
BITMAP
40
78
78
08
08
08
08
08
08
F8
F8
ENDCHAR
STARTCHAR 05E1
ENCODING 1505
SWIDTH 462 0
DWIDTH 9 0
BBX 7 11 1 0
BITMAP
80
F8
FC
46
82
82
82
82
C6
7C
38
ENDCHAR
STARTCHAR 05E2
ENCODING 1506
SWIDTH 462 0
DWIDTH 9 0
BBX 7 11 1 0
BITMAP
88
EE
EE
42
44
64
24
24
2C
F8
F0
ENDCHAR
STARTCHAR 05E3
ENCODING 1507
SWIDTH 462 0
DWIDTH 9 0
BBX 7 14 1 -3
BITMAP
80
FC
7E
42
82
E2
E2
02
02
02
02
02
02
02
ENDCHAR
STARTCHAR 05E4
ENCODING 1508
SWIDTH 411 0
DWIDTH 8 0
BBX 6 11 1 0
BITMAP
80
F8
F8
84
C4
E4
04
04
0C
FC
F8
ENDCHAR
STARTCHAR 05E5
ENCODING 1509
SWIDTH 462 0
DWIDTH 9 0
BBX 7 14 1 -3
BITMAP
88
EE
EE
24
48
50
60
40
40
40
40
40
40
40
ENDCHAR
STARTCHAR 05E6
ENCODING 1510
SWIDTH 462 0
DWIDTH 9 0
BBX 7 11 1 0
BITMAP
88
EE
EE
24
28
28
18
0C
06
FE
FE
ENDCHAR
STARTCHAR 05E7
ENCODING 1511
SWIDTH 462 0
DWIDTH 9 0
BBX 7 14 1 -3
BITMAP
80
FC
FE
02
02
82
84
88
90
A0
A0
80
80
80
ENDCHAR
STARTCHAR 05E8
ENCODING 1512
SWIDTH 462 0
DWIDTH 9 0
BBX 7 11 1 0
BITMAP
80
FC
FE
02
02
02
02
02
02
02
02
ENDCHAR
STARTCHAR 05E9
ENCODING 1513
SWIDTH 617 0
DWIDTH 12 0
BBX 10 11 1 0
BITMAP
8900
EDC0
EDC0
4440
4480
4880
4880
4900
7100
3E00
3E00
ENDCHAR
STARTCHAR 05EA
ENCODING 1514
SWIDTH 514 0
DWIDTH 10 0
BBX 9 11 0 0
BITMAP
4000
7F00
7F80
1080
2080
2080
2080
2080
2080
E080
E080
ENDCHAR
STARTCHAR 05F0
ENCODING 1520
SWIDTH 565 0
DWIDTH 11 0
BBX 9 11 1 0
BITMAP
8400
F780
F780
1080
1080
1080
1080
1080
1080
1080
1080
ENDCHAR
STARTCHAR 05F1
ENCODING 1521
SWIDTH 514 0
DWIDTH 10 0
BBX 8 11 1 0
BITMAP
88
EF
EF
21
21
41
01
01
01
01
01
ENDCHAR
STARTCHAR 05F2
ENCODING 1522
SWIDTH 514 0
DWIDTH 10 0
BBX 8 6 1 5
BITMAP
84
F7
F7
11
11
22
ENDCHAR
STARTCHAR 05F3
ENCODING 1523
SWIDTH 205 0
DWIDTH 4 0
BBX 2 4 1 6
BITMAP
C0
C0
80
80
ENDCHAR
STARTCHAR 05F4
ENCODING 1524
SWIDTH 360 0
DWIDTH 7 0
BBX 5 4 1 6
BITMAP
D8
D8
98
90
ENDCHAR
STARTCHAR 060C
ENCODING 1548
SWIDTH 308 0
DWIDTH 6 0
BBX 3 6 2 3
BITMAP
40
80
80
C0
E0
60
ENDCHAR
STARTCHAR 061B
ENCODING 1563
SWIDTH 308 0
DWIDTH 6 0
BBX 3 9 1 3
BITMAP
40
80
80
C0
E0
60
00
60
60
ENDCHAR
STARTCHAR 061F
ENCODING 1567
SWIDTH 360 0
DWIDTH 7 0
BBX 6 11 0 3
BITMAP
78
C4
CC
EC
F0
30
10
10
00
30
30
ENDCHAR
STARTCHAR 0621
ENCODING 1569
SWIDTH 411 0
DWIDTH 8 0
BBX 6 7 1 2
BITMAP
30
78
80
CC
FC
78
60
ENDCHAR
STARTCHAR 0622
ENCODING 1570
SWIDTH 205 0
DWIDTH 4 0
BBX 4 14 0 2
BITMAP
F0
00
20
20
20
20
20
20
20
20
20
20
20
20
ENDCHAR
STARTCHAR 0623
ENCODING 1571
SWIDTH 205 0
DWIDTH 4 0
BBX 3 14 1 2
BITMAP
60
80
60
80
00
40
40
40
40
40
40
40
40
40
ENDCHAR
STARTCHAR 0624
ENCODING 1572
SWIDTH 411 0
DWIDTH 8 0
BBX 8 16 0 -2
BITMAP
18
20
18
20
00
06
0F
09
09
0F
07
01
03
06
8C
78
ENDCHAR
STARTCHAR 0625
ENCODING 1573
SWIDTH 205 0
DWIDTH 4 0
BBX 3 17 1 -3
BITMAP
40
40
40
40
40
40
40
40
40
40
40
40
00
60
80
60
80
ENDCHAR
STARTCHAR 0626
ENCODING 1574
SWIDTH 617 0
DWIDTH 12 0
BBX 12 12 0 -1
BITMAP
6000
8000
6070
80F0
0100
4200
83E0
83E0
8020
C1C0
FF80
7E00
ENDCHAR
STARTCHAR 0627
ENCODING 1575
SWIDTH 205 0
DWIDTH 4 0
BBX 1 12 2 2
BITMAP
80
80
80
80
80
80
80
80
80
80
80
80
ENDCHAR
STARTCHAR 0628
ENCODING 1576
SWIDTH 720 0
DWIDTH 14 0
BBX 13 9 1 0
BITMAP
4010
8018
8008
C008
FFF8
3FF8
0000
0600
0600
ENDCHAR
STARTCHAR 0629
ENCODING 1577
SWIDTH 257 0
DWIDTH 5 0
BBX 4 11 1 3
BITMAP
30
F0
C0
00
40
60
70
90
90
F0
E0
ENDCHAR
STARTCHAR 062A
ENCODING 1578
SWIDTH 720 0
DWIDTH 14 0
BBX 13 9 1 3
BITMAP
0300
0F00
0C00
4010
8018
8008
C008
FFF8
3FF8
ENDCHAR
STARTCHAR 062B
ENCODING 1579
SWIDTH 720 0
DWIDTH 14 0
BBX 13 10 1 3
BITMAP
0C00
0B00
0500
0C00
4010
8018
8008
C008
FFF8
3FF8
ENDCHAR
STARTCHAR 062C
ENCODING 1580
SWIDTH 565 0
DWIDTH 11 0
BBX 9 12 1 -4
BITMAP
7F80
FF80
1C00
2000
4000
8600
8600
8000
C000
F000
7F80
1F00
ENDCHAR
STARTCHAR 062D
ENCODING 1581
SWIDTH 565 0
DWIDTH 11 0
BBX 9 12 1 -4
BITMAP
7F80
FF80
1C00
2000
4000
8000
8000
8000
C000
F000
7F80
1F00
ENDCHAR
STARTCHAR 062E
ENCODING 1582
SWIDTH 565 0
DWIDTH 11 0
BBX 9 16 1 -4
BITMAP
0C00
0C00
0000
0000
7F80
FF80
1C00
2000
4000
8000
8000
8000
C000
F000
7F80
1F00
ENDCHAR
STARTCHAR 062F
ENCODING 1583
SWIDTH 308 0
DWIDTH 6 0
BBX 5 8 1 3
BITMAP
20
30
10
08
08
88
F8
F8
ENDCHAR
STARTCHAR 0630
ENCODING 1584
SWIDTH 308 0
DWIDTH 6 0
BBX 5 12 1 3
BITMAP
60
60
00
00
20
30
10
08
08
88
F8
F8
ENDCHAR
STARTCHAR 0631
ENCODING 1585
SWIDTH 462 0
DWIDTH 9 0
BBX 8 10 1 -2
BITMAP
02
03
03
01
01
01
03
06
8C
78
ENDCHAR
STARTCHAR 0632
ENCODING 1586
SWIDTH 462 0
DWIDTH 9 0
BBX 8 14 1 -2
BITMAP
06
06
00
00
02
03
03
01
01
01
03
06
8C
78
ENDCHAR
STARTCHAR 0633
ENCODING 1587
SWIDTH 822 0
DWIDTH 16 0
BBX 15 9 1 -1
BITMAP
0104
0192
4192
80FE
80FE
8080
C380
FF00
7E00
ENDCHAR
STARTCHAR 0634
ENCODING 1588
SWIDTH 822 0
DWIDTH 16 0
BBX 15 14 1 -1
BITMAP
0030
002C
0014
0030
0000
0104
0192
4192
80FE
80FE
8080
C380
FF00
7E00
ENDCHAR
STARTCHAR 0635
ENCODING 1589
SWIDTH 1080 0
DWIDTH 21 0
BBX 20 9 1 -1
BITMAP
0080E0
00C3F0
40CE10
807FF0
807FF0
804000
C1C000
FF8000
7E0000
ENDCHAR
STARTCHAR 0636
ENCODING 1590
SWIDTH 1080 0
DWIDTH 21 0
BBX 20 12 1 -1
BITMAP
000600
000600
000000
0080E0
00C3F0
40CE10
807FF0
807FF0
804000
C1C000
FF8000
7E0000
ENDCHAR
STARTCHAR 0637
ENCODING 1591
SWIDTH 565 0
DWIDTH 11 0
BBX 12 12 -1 3
BITMAP
1000
1C00
0C00
0800
0400
0400
04E0
07F0
0610
0810
FFF0
FFF0
ENDCHAR
STARTCHAR 0638
ENCODING 1592
SWIDTH 565 0
DWIDTH 11 0
BBX 12 12 -1 3
BITMAP
1000
1C00
0CC0
08C0
0400
0400
04E0
07F0
0610
0810
FFF0
FFF0
ENDCHAR
STARTCHAR 0639
ENCODING 1593
SWIDTH 514 0
DWIDTH 10 0
BBX 9 16 0 -4
BITMAP
3800
7C00
E000
8000
8100
E700
7C00
3000
4000
8000
8000
8000
C000
E000
7F80
1F00
ENDCHAR
STARTCHAR 063A
ENCODING 1594
SWIDTH 514 0
DWIDTH 10 0
BBX 9 20 0 -4
BITMAP
3000
3000
0000
0000
3800
7C00
E000
8000
8100
E700
7C00
3000
4000
8000
8000
8000
C000
E000
7F80
1F00
ENDCHAR
STARTCHAR 0640
ENCODING 1600
SWIDTH 205 0
DWIDTH 4 0
BBX 5 2 -1 3
BITMAP
F8
F8
ENDCHAR
STARTCHAR 0641
ENCODING 1601
SWIDTH 771 0
DWIDTH 15 0
BBX 15 10 0 3
BITMAP
0018
0018
0000
0000
4004
800E
800A
C006
FFFE
3FFE
ENDCHAR
STARTCHAR 0642
ENCODING 1602
SWIDTH 565 0
DWIDTH 11 0
BBX 10 14 1 -1
BITMAP
0180
0780
0600
0000
0000
0180
03C0
42C0
83C0
83C0
8040
C0C0
FF80
3F00
ENDCHAR
STARTCHAR 0643
ENCODING 1603
SWIDTH 565 0
DWIDTH 11 0
BBX 11 12 0 3
BITMAP
0040
0060
0060
0240
0440
0740
0140
4320
8E20
8020
FFE0
7FE0
ENDCHAR
STARTCHAR 0644
ENCODING 1604
SWIDTH 514 0
DWIDTH 10 0
BBX 9 15 1 0
BITMAP
0100
0180
0180
0100
0100
0100
0080
2080
4080
8080
8080
8080
C180
FF00
7E00
ENDCHAR
STARTCHAR 0645
ENCODING 1605
SWIDTH 308 0
DWIDTH 6 0
BBX 6 12 0 -4
BITMAP
30
78
0C
3C
7C
C0
80
80
80
40
40
40
ENDCHAR
STARTCHAR 0646
ENCODING 1606
SWIDTH 514 0
DWIDTH 10 0
BBX 9 12 1 -1
BITMAP
0C00
0C00
0000
0100
0180
4180
8080
8080
8080
C380
FF00
7E00
ENDCHAR
STARTCHAR 0647
ENCODING 1607
SWIDTH 257 0
DWIDTH 5 0
BBX 4 7 1 3
BITMAP
40
60
70
90
90
F0
E0
ENDCHAR
STARTCHAR 0648
ENCODING 1608
SWIDTH 411 0
DWIDTH 8 0
BBX 8 11 0 -2
BITMAP
06
0F
09
09
0F
07
01
03
06
8C
78
ENDCHAR
STARTCHAR 0649
ENCODING 1609
SWIDTH 617 0
DWIDTH 12 0
BBX 12 10 0 -1
BITMAP
0070
00F0
0100
4200
83E0
83E0
8020
C1C0
FF80
7E00
ENDCHAR
STARTCHAR 064A
ENCODING 1610
SWIDTH 617 0
DWIDTH 12 0
BBX 12 13 0 -4
BITMAP
0070
00F0
0100
4200
83E0
83E0
8020
C1C0
FF80
7E00
0600
1E00
1800
ENDCHAR
STARTCHAR 064B
ENCODING 1611
SWIDTH 205 0
DWIDTH 4 0
BBX 3 4 1 12
BITMAP
20
C0
20
C0
ENDCHAR
STARTCHAR 064C
ENCODING 1612
SWIDTH 257 0
DWIDTH 5 0
BBX 6 5 0 12
BITMAP
0C
14
DC
54
60
ENDCHAR
STARTCHAR 064D
ENCODING 1613
SWIDTH 205 0
DWIDTH 4 0
BBX 3 4 1 -3
BITMAP
20
C0
20
C0
ENDCHAR
STARTCHAR 064E
ENCODING 1614
SWIDTH 205 0
DWIDTH 4 0
BBX 3 2 1 12
BITMAP
20
C0
ENDCHAR
STARTCHAR 064F
ENCODING 1615
SWIDTH 205 0
DWIDTH 4 0
BBX 3 5 1 12
BITMAP
60
A0
E0
60
80
ENDCHAR
STARTCHAR 0650
ENCODING 1616
SWIDTH 205 0
DWIDTH 4 0
BBX 3 2 1 0
BITMAP
20
C0
ENDCHAR
STARTCHAR 0651
ENCODING 1617
SWIDTH 205 0
DWIDTH 4 0
BBX 5 3 0 12
BITMAP
28
B8
C0
ENDCHAR
STARTCHAR 0652
ENCODING 1618
SWIDTH 154 0
DWIDTH 3 0
BBX 4 3 0 12
BITMAP
70
90
E0
ENDCHAR
STARTCHAR 0653
ENCODING 1619
SWIDTH 205 0
DWIDTH 4 0
BBX 4 2 0 13
BITMAP
C0
30
ENDCHAR
STARTCHAR 0654
ENCODING 1620
SWIDTH 205 0
DWIDTH 4 0
BBX 3 4 1 13
BITMAP
60
80
60
80
ENDCHAR
STARTCHAR 0655
ENCODING 1621
SWIDTH 205 0
DWIDTH 4 0
BBX 3 4 1 -3
BITMAP
60
80
60
80
ENDCHAR
STARTCHAR 0660
ENCODING 1632
SWIDTH 514 0
DWIDTH 10 0
BBX 3 4 4 4
BITMAP
40
E0
E0
40
ENDCHAR
STARTCHAR 0661
ENCODING 1633
SWIDTH 514 0
DWIDTH 10 0
BBX 3 11 4 3
BITMAP
80
C0
C0
60
60
20
20
20
20
20
20
ENDCHAR
STARTCHAR 0662
ENCODING 1634
SWIDTH 514 0
DWIDTH 10 0
BBX 6 11 3 3
BITMAP
84
C4
FC
78
20
20
30
10
10
10
10
ENDCHAR
STARTCHAR 0663
ENCODING 1635
SWIDTH 514 0
DWIDTH 10 0
BBX 8 11 2 3
BITMAP
89
89
FF
7E
40
60
20
20
20
20
20
ENDCHAR
STARTCHAR 0664
ENCODING 1636
SWIDTH 514 0
DWIDTH 10 0
BBX 4 11 3 3
BITMAP
20
20
40
80
E0
60
40
80
C0
F0
70
ENDCHAR
STARTCHAR 0665
ENCODING 1637
SWIDTH 514 0
DWIDTH 10 0
BBX 7 8 2 5
BITMAP
38
7C
4E
86
82
86
FC
78
ENDCHAR
STARTCHAR 0666
ENCODING 1638
SWIDTH 514 0
DWIDTH 10 0
BBX 7 11 1 3
BITMAP
80
F8
F8
08
08
08
08
0C
0E
06
02
ENDCHAR
STARTCHAR 0667
ENCODING 1639
SWIDTH 514 0
DWIDTH 10 0
BBX 8 11 1 3
BITMAP
80
C1
C1
63
22
34
14
18
08
08
08
ENDCHAR
STARTCHAR 0668
ENCODING 1640
SWIDTH 514 0
DWIDTH 10 0
BBX 9 11 1 3
BITMAP
0800
0800
0800
1400
1400
2600
2200
6300
C180
C180
8080
ENDCHAR
STARTCHAR 0669
ENCODING 1641
SWIDTH 514 0
DWIDTH 10 0
BBX 6 11 2 3
BITMAP
30
78
88
88
F8
78
08
08
0C
0C
04
ENDCHAR
STARTCHAR 066A
ENCODING 1642
SWIDTH 514 0
DWIDTH 10 0
BBX 8 13 1 2
BITMAP
C1
C2
02
04
04
08
08
10
20
20
40
43
83
ENDCHAR
STARTCHAR 066B
ENCODING 1643
SWIDTH 308 0
DWIDTH 6 0
BBX 3 5 2 1
BITMAP
E0
E0
E0
40
80
ENDCHAR
STARTCHAR 066C
ENCODING 1644
SWIDTH 308 0
DWIDTH 6 0
BBX 3 6 2 3
BITMAP
40
80
80
C0
E0
60
ENDCHAR
STARTCHAR 066D
ENCODING 1645
SWIDTH 514 0
DWIDTH 10 0
BBX 7 7 1 7
BITMAP
10
54
38
EE
38
54
10
ENDCHAR
STARTCHAR 066E
ENCODING 1646
SWIDTH 720 0
DWIDTH 14 0
BBX 13 6 1 3
BITMAP
4010
8018
8008
C008
FFF8
3FF8
ENDCHAR
STARTCHAR 066F
ENCODING 1647
SWIDTH 565 0
DWIDTH 11 0
BBX 10 9 1 -1
BITMAP
0180
03C0
42C0
83C0
83C0
8040
C0C0
FF80
3F00
ENDCHAR
STARTCHAR 0670
ENCODING 1648
SWIDTH 0 0
DWIDTH 0 0
BBX 1 6 -1 10
BITMAP
80
80
80
80
80
80
ENDCHAR
STARTCHAR 0671
ENCODING 1649
SWIDTH 205 0
DWIDTH 4 0
BBX 4 15 0 2
BITMAP
30
F0
80
20
20
20
20
20
20
20
20
20
20
20
20
ENDCHAR
STARTCHAR 0672
ENCODING 1650
SWIDTH 205 0
DWIDTH 4 0
BBX 4 15 0 2
BITMAP
30
40
F0
00
20
20
20
20
20
20
20
20
20
20
20
ENDCHAR
STARTCHAR 0673
ENCODING 1651
SWIDTH 205 0
DWIDTH 4 0
BBX 4 16 0 -2
BITMAP
20
20
20
20
20
20
20
20
20
20
20
20
00
30
40
F0
ENDCHAR
STARTCHAR 0674
ENCODING 1652
SWIDTH 205 0
DWIDTH 4 0
BBX 3 4 1 13
BITMAP
60
80
60
80
ENDCHAR
STARTCHAR 0675
ENCODING 1653
SWIDTH 205 0
DWIDTH 4 0
BBX 4 12 1 2
BITMAP
B0
C0
B0
C0
80
80
80
80
80
80
80
80
ENDCHAR
STARTCHAR 0676
ENCODING 1654
SWIDTH 411 0
DWIDTH 8 0
BBX 9 16 0 -2
BITMAP
0180
0200
0180
0200
0000
0600
0F00
0900
0900
0F00
0700
0100
0300
0600
8C00
7800
ENDCHAR
STARTCHAR 0677
ENCODING 1655
SWIDTH 411 0
DWIDTH 8 0
BBX 9 16 0 -2
BITMAP
1980
2A00
3980
1A00
2000
0600
0F00
0900
0900
0F00
0700
0100
0300
0600
8C00
7800
ENDCHAR
STARTCHAR 0678
ENCODING 1656
SWIDTH 617 0
DWIDTH 12 0
BBX 13 15 0 -1
BITMAP
0018
0020
0018
0020
0000
0070
00F0
0100
4200
83E0
83E0
8020
C1C0
FF80
7E00
ENDCHAR
STARTCHAR 0679
ENCODING 1657
SWIDTH 720 0
DWIDTH 14 0
BBX 13 13 1 3
BITMAP
0600
0400
0400
0580
0680
0F80
0000
4010
8018
8008
C008
FFF8
3FF8
ENDCHAR
STARTCHAR 067A
ENCODING 1658
SWIDTH 720 0
DWIDTH 14 0
BBX 13 11 1 3
BITMAP
0600
0600
0300
0300
0000
4010
8018
8008
C008
FFF8
3FF8
ENDCHAR
STARTCHAR 067B
ENCODING 1659
SWIDTH 720 0
DWIDTH 14 0
BBX 13 11 1 -2
BITMAP
4010
8018
8008
C008
FFF8
3FF8
0000
0300
0300
0180
0180
ENDCHAR
STARTCHAR 067C
ENCODING 1660
SWIDTH 720 0
DWIDTH 14 0
BBX 13 11 1 1
BITMAP
0300
0F00
0C00
4010
8018
8008
C008
FFF8
3FF8
0480
0700
ENDCHAR
STARTCHAR 067D
ENCODING 1661
SWIDTH 720 0
DWIDTH 14 0
BBX 13 11 1 3
BITMAP
0300
0A00
0D00
0300
0000
4010
8018
8008
C008
FFF8
3FF8
ENDCHAR
STARTCHAR 067E
ENCODING 1662
SWIDTH 720 0
DWIDTH 14 0
BBX 13 11 1 -2
BITMAP
4010
8018
8008
C008
FFF8
3FF8
0000
0180
0500
0680
0180
ENDCHAR
STARTCHAR 067F
ENCODING 1663
SWIDTH 720 0
DWIDTH 14 0
BBX 13 12 1 3
BITMAP
0300
0D00
0600
0B00
0C00
0000
4010
8018
8008
C008
FFF8
3FF8
ENDCHAR
STARTCHAR 0680
ENCODING 1664
SWIDTH 720 0
DWIDTH 14 0
BBX 13 12 1 -3
BITMAP
4010
8018
8008
C008
FFF8
3FF8
0000
0180
0680
0300
0580
0600
ENDCHAR
STARTCHAR 0681
ENCODING 1665
SWIDTH 565 0
DWIDTH 11 0
BBX 9 17 1 -4
BITMAP
0C00
1000
0C00
1000
0000
7F80
FF80
1C00
2000
4000
8000
8000
8000
C000
F000
7F80
1F00
ENDCHAR
STARTCHAR 0682
ENCODING 1666
SWIDTH 565 0
DWIDTH 11 0
BBX 9 18 1 -4
BITMAP
1800
1800
0C00
0C00
0000
0000
7F80
FF80
1C00
2000
4000
8000
8000
8000
C000
F000
7F80
1F00
ENDCHAR
STARTCHAR 0683
ENCODING 1667
SWIDTH 565 0
DWIDTH 11 0
BBX 9 12 1 -4
BITMAP
7F80
FF80
1C00
2000
4000
8300
8F00
8C00
C000
F000
7F80
1F00
ENDCHAR
STARTCHAR 0684
ENCODING 1668
SWIDTH 565 0
DWIDTH 11 0
BBX 9 12 1 -4
BITMAP
7F80
FF80
1C00
2000
4000
8C00
8C00
8600
C600
F000
7F80
1F00
ENDCHAR
STARTCHAR 0685
ENCODING 1669
SWIDTH 565 0
DWIDTH 11 0
BBX 9 18 1 -4
BITMAP
1800
1600
0A00
1800
0000
0000
7F80
FF80
1C00
2000
4000
8000
8000
8000
C000
F000
7F80
1F00
ENDCHAR
STARTCHAR 0686
ENCODING 1670
SWIDTH 565 0
DWIDTH 11 0
BBX 9 12 1 -4
BITMAP
7F80
FF80
1C00
2000
4300
8A00
8D00
8300
C000
F000
7F80
1F00
ENDCHAR
STARTCHAR 0687
ENCODING 1671
SWIDTH 565 0
DWIDTH 11 0
BBX 9 12 1 -4
BITMAP
7F80
FF80
1C00
2000
4600
9A00
8C00
9600
D800
F000
7F80
1F00
ENDCHAR
STARTCHAR 0688
ENCODING 1672
SWIDTH 308 0
DWIDTH 6 0
BBX 5 14 1 3
BITMAP
60
40
40
58
68
F8
00
30
10
08
08
88
F8
F8
ENDCHAR
STARTCHAR 0689
ENCODING 1673
SWIDTH 308 0
DWIDTH 6 0
BBX 5 10 1 1
BITMAP
20
30
10
08
08
88
F8
F8
48
70
ENDCHAR
STARTCHAR 068A
ENCODING 1674
SWIDTH 308 0
DWIDTH 6 0
BBX 5 11 1 0
BITMAP
20
30
10
08
08
88
F8
F8
00
30
30
ENDCHAR
STARTCHAR 068B
ENCODING 1675
SWIDTH 308 0
DWIDTH 6 0
BBX 5 17 1 0
BITMAP
60
40
40
58
68
F8
00
30
10
08
08
88
F8
F8
00
30
30
ENDCHAR
STARTCHAR 068C
ENCODING 1676
SWIDTH 308 0
DWIDTH 6 0
BBX 5 12 1 3
BITMAP
18
78
60
00
20
30
10
08
08
88
F8
F8
ENDCHAR
STARTCHAR 068D
ENCODING 1677
SWIDTH 308 0
DWIDTH 6 0
BBX 5 12 1 -1
BITMAP
20
30
10
08
08
88
F8
F8
00
18
78
60
ENDCHAR
STARTCHAR 068E
ENCODING 1678
SWIDTH 308 0
DWIDTH 6 0
BBX 5 13 1 3
BITMAP
C0
B0
50
C0
00
20
30
10
08
08
88
F8
F8
ENDCHAR
STARTCHAR 068F
ENCODING 1679
SWIDTH 308 0
DWIDTH 6 0
BBX 5 13 1 3
BITMAP
30
A0
D0
30
00
20
30
10
08
08
88
F8
F8
ENDCHAR
STARTCHAR 0690
ENCODING 1680
SWIDTH 308 0
DWIDTH 6 0
BBX 5 14 1 3
BITMAP
30
D0
60
B0
C0
00
20
30
10
08
08
88
F8
F8
ENDCHAR
STARTCHAR 0691
ENCODING 1681
SWIDTH 462 0
DWIDTH 9 0
BBX 8 17 1 -2
BITMAP
0C
08
08
0B
0D
1F
00
02
03
03
01
01
01
03
06
8C
78
ENDCHAR
STARTCHAR 0692
ENCODING 1682
SWIDTH 462 0
DWIDTH 9 0
BBX 8 13 1 -2
BITMAP
0A
04
00
02
03
03
01
01
01
03
06
8C
78
ENDCHAR
STARTCHAR 0693
ENCODING 1683
SWIDTH 462 0
DWIDTH 9 0
BBX 8 11 1 -3
BITMAP
02
03
03
01
01
01
03
06
8F
79
0E
ENDCHAR
STARTCHAR 0694
ENCODING 1684
SWIDTH 462 0
DWIDTH 9 0
BBX 8 11 1 -3
BITMAP
02
03
03
01
01
01
03
06
8C
7B
03
ENDCHAR
STARTCHAR 0695
ENCODING 1685
SWIDTH 462 0
DWIDTH 9 0
BBX 8 12 1 -4
BITMAP
02
03
03
01
01
01
03
06
8C
78
05
02
ENDCHAR
STARTCHAR 0696
ENCODING 1686
SWIDTH 462 0
DWIDTH 9 0
BBX 8 11 1 -3
BITMAP
02
03
03
01
31
31
03
06
8C
7B
03
ENDCHAR
STARTCHAR 0697
ENCODING 1687
SWIDTH 462 0
DWIDTH 9 0
BBX 8 14 1 -2
BITMAP
06
1E
18
00
02
03
03
01
01
01
03
06
8C
78
ENDCHAR
STARTCHAR 0698
ENCODING 1688
SWIDTH 462 0
DWIDTH 9 0
BBX 8 15 1 -2
BITMAP
0C
0B
05
0C
00
02
03
03
01
01
01
03
06
8C
78
ENDCHAR
STARTCHAR 0699
ENCODING 1689
SWIDTH 462 0
DWIDTH 9 0
BBX 8 16 1 -2
BITMAP
06
1A
0C
16
18
00
02
03
03
01
01
01
03
06
8C
78
ENDCHAR
STARTCHAR 069A
ENCODING 1690
SWIDTH 822 0
DWIDTH 16 0
BBX 15 12 1 -1
BITMAP
0030
0030
0000
0104
0192
4192
80FE
80FE
8080
C398
FF18
7E00
ENDCHAR
STARTCHAR 069B
ENCODING 1691
SWIDTH 822 0
DWIDTH 16 0
BBX 15 10 1 -2
BITMAP
0104
0192
4192
80FE
80FE
8080
C386
FF14
7E1A
0006
ENDCHAR
STARTCHAR 069C
ENCODING 1692
SWIDTH 822 0
DWIDTH 16 0
BBX 15 15 1 -2
BITMAP
0060
0058
0028
0060
0000
0104
0192
4192
80FE
80FE
8080
C386
FF14
7E1A
0006
ENDCHAR
STARTCHAR 069D
ENCODING 1693
SWIDTH 1080 0
DWIDTH 21 0
BBX 20 9 1 -1
BITMAP
0080E0
00C3F0
40CE10
807FF0
807FF0
804000
C1C180
FF8780
7E0600
ENDCHAR
STARTCHAR 069E
ENCODING 1694
SWIDTH 1080 0
DWIDTH 21 0
BBX 20 14 1 -1
BITMAP
000600
000580
000280
000600
000000
0080E0
00C3F0
40CE10
807FF0
807FF0
804000
C1C000
FF8000
7E0000
ENDCHAR
STARTCHAR 069F
ENCODING 1695
SWIDTH 565 0
DWIDTH 11 0
BBX 12 12 -1 3
BITMAP
1000
1CC0
0CB0
0850
04C0
0400
04E0
07F0
0610
0810
FFF0
FFF0
ENDCHAR
STARTCHAR 06A0
ENCODING 1696
SWIDTH 514 0
DWIDTH 10 0
BBX 9 21 0 -4
BITMAP
6000
5800
2800
6000
0000
3800
7C00
E000
8000
8100
E700
7C00
3000
4000
8000
8000
8000
C000
E000
7F80
1F00
ENDCHAR
STARTCHAR 06A1
ENCODING 1697
SWIDTH 771 0
DWIDTH 15 0
BBX 15 6 0 3
BITMAP
4004
800E
800A
C006
FFFE
3FFE
ENDCHAR
STARTCHAR 06A2
ENCODING 1698
SWIDTH 771 0
DWIDTH 15 0
BBX 15 9 0 0
BITMAP
4004
800E
800A
C006
FFFE
3FFE
0000
000C
000C
ENDCHAR
STARTCHAR 06A3
ENCODING 1699
SWIDTH 771 0
DWIDTH 15 0
BBX 15 12 0 0
BITMAP
000C
000C
0000
4004
800E
800A
C006
FFFE
3FFE
0000
0180
0180
ENDCHAR
STARTCHAR 06A4
ENCODING 1700
SWIDTH 771 0
DWIDTH 15 0
BBX 15 11 0 3
BITMAP
001E
0012
0008
0018
0000
4004
800E
800A
C006
FFFE
3FFE
ENDCHAR
STARTCHAR 06A5
ENCODING 1701
SWIDTH 771 0
DWIDTH 15 0
BBX 15 11 0 -2
BITMAP
4004
800E
800A
C006
FFFE
3FFE
0000
0006
0014
001A
0006
ENDCHAR
STARTCHAR 06A6
ENCODING 1702
SWIDTH 771 0
DWIDTH 15 0
BBX 15 13 0 3
BITMAP
0006
001A
000C
0016
0018
0000
0000
4004
800E
800A
C006
FFFE
3FFE
ENDCHAR
STARTCHAR 06A7
ENCODING 1703
SWIDTH 565 0
DWIDTH 11 0
BBX 10 13 1 -1
BITMAP
0300
0300
0000
0000
0180
03C0
42C0
83C0
83C0
8040
C0C0
FF80
3F00
ENDCHAR
STARTCHAR 06A8
ENCODING 1704
SWIDTH 565 0
DWIDTH 11 0
BBX 10 14 1 -1
BITMAP
0600
0580
0280
0600
0000
0180
03C0
42C0
83C0
83C0
8040
C0C0
FF80
3F00
ENDCHAR
STARTCHAR 06A9
ENCODING 1705
SWIDTH 771 0
DWIDTH 15 0
BBX 15 11 0 3
BITMAP
0004
003C
0070
0080
00C0
00F0
4038
800C
8006
FFFE
7FFE
ENDCHAR
STARTCHAR 06AA
ENCODING 1706
SWIDTH 771 0
DWIDTH 15 0
BBX 15 10 0 3
BITMAP
0080
0380
0E00
1000
1F00
8FF0
80FC
C006
FFFE
7FFE
ENDCHAR
STARTCHAR 06AB
ENCODING 1707
SWIDTH 771 0
DWIDTH 15 0
BBX 15 11 0 3
BITMAP
0004
003E
0072
009C
00C0
00F0
4038
800C
8006
FFFE
7FFE
ENDCHAR
STARTCHAR 06AC
ENCODING 1708
SWIDTH 565 0
DWIDTH 11 0
BBX 11 12 0 3
BITMAP
0640
0660
0060
0240
0440
0740
0140
4320
8E20
8020
FFE0
7FE0
ENDCHAR
STARTCHAR 06AD
ENCODING 1709
SWIDTH 565 0
DWIDTH 11 0
BBX 11 13 0 3
BITMAP
1800
1640
0A60
1860
0240
0440
0740
0140
4320
8E20
8020
FFE0
7FE0
ENDCHAR
STARTCHAR 06AE
ENCODING 1710
SWIDTH 565 0
DWIDTH 11 0
BBX 11 17 0 -2
BITMAP
0040
0060
0060
0240
0440
0740
0140
4320
8E20
8020
FFE0
7FE0
0000
0300
0A00
0D00
0300
ENDCHAR
STARTCHAR 06AF
ENCODING 1711
SWIDTH 771 0
DWIDTH 15 0
BBX 15 13 0 3
BITMAP
0004
001C
0038
0044
00BC
0070
0080
00E0
4070
800C
8006
FFFE
7FFE
ENDCHAR
STARTCHAR 06B0
ENCODING 1712
SWIDTH 771 0
DWIDTH 15 0
BBX 15 13 0 3
BITMAP
0004
001C
0038
004E
00BE
007C
0080
00E0
4070
800C
8006
FFFE
7FFE
ENDCHAR
STARTCHAR 06B1
ENCODING 1713
SWIDTH 771 0
DWIDTH 15 0
BBX 15 14 0 3
BITMAP
0060
0184
001C
0038
0044
00BC
0070
0080
00E0
4070
800C
8006
FFFE
7FFE
ENDCHAR
STARTCHAR 06B2
ENCODING 1714
SWIDTH 771 0
DWIDTH 15 0
BBX 15 17 0 -1
BITMAP
0004
001C
0038
0044
00BC
0070
0080
00E0
4070
800C
8006
FFFE
7FFE
0000
00C0
03C0
0300
ENDCHAR
STARTCHAR 06B3
ENCODING 1715
SWIDTH 771 0
DWIDTH 15 0
BBX 15 18 0 -2
BITMAP
0004
001C
0038
0044
00BC
0070
0080
00E0
4070
800C
8006
FFFE
7FFE
0000
0300
0300
0180
0180
ENDCHAR
STARTCHAR 06B4
ENCODING 1716
SWIDTH 771 0
DWIDTH 15 0
BBX 15 14 0 3
BITMAP
0180
0064
018C
0038
0044
00BC
0070
0080
00E0
4070
800C
8006
FFFE
7FFE
ENDCHAR
STARTCHAR 06B5
ENCODING 1717
SWIDTH 514 0
DWIDTH 10 0
BBX 9 17 1 0
BITMAP
0280
0100
0000
0180
0180
0100
0100
0100
0080
2080
4080
8080
8080
8080
C180
FF00
7E00
ENDCHAR
STARTCHAR 06B6
ENCODING 1718
SWIDTH 514 0
DWIDTH 10 0
BBX 9 17 1 0
BITMAP
0180
0180
0000
0180
0180
0100
0100
0100
0080
2080
4080
8080
8080
8080
C180
FF00
7E00
ENDCHAR
STARTCHAR 06B7
ENCODING 1719
SWIDTH 514 0
DWIDTH 10 0
BBX 9 17 1 0
BITMAP
0600
0180
0600
0180
0180
0100
0100
0100
0080
2080
4080
8080
8080
8080
C180
FF00
7E00
ENDCHAR
STARTCHAR 06B8
ENCODING 1720
SWIDTH 514 0
DWIDTH 10 0
BBX 9 19 1 -4
BITMAP
0100
0180
0180
0100
0100
0100
0080
2080
4080
8080
8080
8080
C180
FF00
7E00
1800
5000
6800
1800
ENDCHAR
STARTCHAR 06B9
ENCODING 1721
SWIDTH 514 0
DWIDTH 10 0
BBX 9 15 1 -4
BITMAP
0C00
0C00
0000
0100
0180
4180
8080
8080
8080
C380
FF00
7E00
0000
0C00
0C00
ENDCHAR
STARTCHAR 06BA
ENCODING 1722
SWIDTH 514 0
DWIDTH 10 0
BBX 9 9 1 -1
BITMAP
0100
0180
4180
8080
8080
8080
C380
FF00
7E00
ENDCHAR
STARTCHAR 06BB
ENCODING 1723
SWIDTH 514 0
DWIDTH 10 0
BBX 9 16 1 -1
BITMAP
1800
1000
1000
1600
1A00
3E00
0000
0100
0180
4180
8080
8080
8080
C380
FF00
7E00
ENDCHAR
STARTCHAR 06BC
ENCODING 1724
SWIDTH 514 0
DWIDTH 10 0
BBX 9 14 1 -3
BITMAP
0C00
0C00
0000
0100
0180
4180
8080
8080
8080
C380
FF00
7E00
1200
1C00
ENDCHAR
STARTCHAR 06BD
ENCODING 1725
SWIDTH 514 0
DWIDTH 10 0
BBX 9 14 1 -1
BITMAP
1800
1600
0A00
1800
0000
0100
0180
4180
8080
8080
8080
C380
FF00
7E00
ENDCHAR
STARTCHAR 06BE
ENCODING 1726
SWIDTH 462 0
DWIDTH 9 0
BBX 9 8 -1 3
BITMAP
0800
1C00
1E00
2700
2500
1880
FF80
E300
ENDCHAR
STARTCHAR 06BF
ENCODING 1727
SWIDTH 565 0
DWIDTH 11 0
BBX 9 16 1 -4
BITMAP
0C00
0C00
0000
0000
7F80
FF80
1C00
2000
4300
8A00
8D00
8300
C000
F000
7F80
1F00
ENDCHAR
STARTCHAR 06C0
ENCODING 1728
SWIDTH 257 0
DWIDTH 5 0
BBX 4 12 1 3
BITMAP
60
80
60
80
00
40
60
70
90
90
F0
E0
ENDCHAR
STARTCHAR 06C1
ENCODING 1729
SWIDTH 360 0
DWIDTH 7 0
BBX 7 5 0 2
BITMAP
18
3C
6E
46
80
ENDCHAR
STARTCHAR 06C2
ENCODING 1730
SWIDTH 360 0
DWIDTH 7 0
BBX 7 10 0 2
BITMAP
18
20
18
20
00
18
3C
6E
46
80
ENDCHAR
STARTCHAR 06C3
ENCODING 1731
SWIDTH 360 0
DWIDTH 7 0
BBX 7 9 0 2
BITMAP
18
78
60
00
18
3C
6E
46
80
ENDCHAR
STARTCHAR 06C4
ENCODING 1732
SWIDTH 411 0
DWIDTH 8 0
BBX 8 11 0 -2
BITMAP
06
0F
09
09
0F
07
01
1F
26
BC
78
ENDCHAR
STARTCHAR 06C5
ENCODING 1733
SWIDTH 411 0
DWIDTH 8 0
BBX 8 11 0 -2
BITMAP
06
0F
09
09
0F
07
31
0F
06
8C
78
ENDCHAR
STARTCHAR 06C6
ENCODING 1734
SWIDTH 411 0
DWIDTH 8 0
BBX 8 14 0 -2
BITMAP
0A
04
00
06
0F
09
09
0F
07
01
03
06
8C
78
ENDCHAR
STARTCHAR 06C7
ENCODING 1735
SWIDTH 411 0
DWIDTH 8 0
BBX 8 17 0 -2
BITMAP
03
05
07
03
04
00
06
0F
09
09
0F
07
01
03
06
8C
78
ENDCHAR
STARTCHAR 06C8
ENCODING 1736
SWIDTH 411 0
DWIDTH 8 0
BBX 8 18 0 -2
BITMAP
04
04
04
04
04
04
00
06
0F
09
09
0F
07
01
03
06
8C
78
ENDCHAR
STARTCHAR 06C9
ENCODING 1737
SWIDTH 411 0
DWIDTH 8 0
BBX 8 14 0 -2
BITMAP
04
0A
00
06
0F
09
09
0F
07
01
03
06
8C
78
ENDCHAR
STARTCHAR 06CA
ENCODING 1738
SWIDTH 411 0
DWIDTH 8 0
BBX 8 15 0 -2
BITMAP
03
0F
0C
00
06
0F
09
09
0F
07
01
03
06
8C
78
ENDCHAR
STARTCHAR 06CB
ENCODING 1739
SWIDTH 411 0
DWIDTH 8 0
BBX 8 16 0 -2
BITMAP
18
16
0A
18
00
06
0F
09
09
0F
07
01
03
06
8C
78
ENDCHAR
STARTCHAR 06CC
ENCODING 1740
SWIDTH 617 0
DWIDTH 12 0
BBX 12 10 0 -1
BITMAP
0070
00F0
0100
4200
83E0
83E0
8020
C1C0
FF80
7E00
ENDCHAR
STARTCHAR 06CD
ENCODING 1741
SWIDTH 617 0
DWIDTH 12 0
BBX 13 10 -1 -1
BITMAP
0038
0078
0080
2100
E1F0
41F0
4010
60E0
7FC0
3F00
ENDCHAR
STARTCHAR 06CE
ENCODING 1742
SWIDTH 617 0
DWIDTH 12 0
BBX 12 11 0 -1
BITMAP
1400
0870
00F0
0100
4200
83E0
83E0
8020
C1C0
FF80
7E00
ENDCHAR
STARTCHAR 06CF
ENCODING 1743
SWIDTH 411 0
DWIDTH 8 0
BBX 8 14 0 -2
BITMAP
0C
0C
00
06
0F
09
09
0F
07
01
03
06
8C
78
ENDCHAR
STARTCHAR 06D0
ENCODING 1744
SWIDTH 617 0
DWIDTH 12 0
BBX 12 13 0 -4
BITMAP
0070
00F0
0100
4200
83E0
83E0
8020
C1C0
FF80
7E00
0000
0400
0400
ENDCHAR
STARTCHAR 06D1
ENCODING 1745
SWIDTH 617 0
DWIDTH 12 0
BBX 12 13 0 -4
BITMAP
0070
00F0
0100
4200
83E0
83E0
8020
C1C0
FF80
7E00
0000
1400
0800
ENDCHAR
STARTCHAR 06D2
ENCODING 1746
SWIDTH 771 0
DWIDTH 15 0
BBX 14 7 1 0
BITMAP
0200
0F00
3900
7000
8000
FFFC
FFF0
ENDCHAR
STARTCHAR 06D3
ENCODING 1747
SWIDTH 771 0
DWIDTH 15 0
BBX 14 10 1 0
BITMAP
1800
2000
1800
2200
0F00
3900
7000
8000
FFFC
FFF0
ENDCHAR
STARTCHAR 06D4
ENCODING 1748
SWIDTH 205 0
DWIDTH 4 0
BBX 3 2 0 3
BITMAP
E0
E0
ENDCHAR
STARTCHAR 06D5
ENCODING 1749
SWIDTH 257 0
DWIDTH 5 0
BBX 4 7 1 3
BITMAP
40
60
70
90
90
F0
E0
ENDCHAR
STARTCHAR 06D6
ENCODING 1750
SWIDTH 0 0
DWIDTH 0 0
BBX 8 7 -4 10
BITMAP
60
20
20
2B
7F
80
FC
ENDCHAR
STARTCHAR 06D7
ENCODING 1751
SWIDTH 0 0
DWIDTH 0 0
BBX 7 7 -3 10
BITMAP
64
28
2C
24
7C
80
FE
ENDCHAR
STARTCHAR 06D8
ENCODING 1752
SWIDTH 0 0
DWIDTH 0 0
BBX 4 3 -2 10
BITMAP
20
50
B0
ENDCHAR
STARTCHAR 06D9
ENCODING 1753
SWIDTH 0 0
DWIDTH 0 0
BBX 4 6 -2 10
BITMAP
90
D0
50
30
20
70
ENDCHAR
STARTCHAR 06DA
ENCODING 1754
SWIDTH 0 0
DWIDTH 0 0
BBX 4 5 -2 10
BITMAP
F0
40
A0
80
70
ENDCHAR
STARTCHAR 06DB
ENCODING 1755
SWIDTH 0 0
DWIDTH 0 0
BBX 2 2 -1 10
BITMAP
80
C0
ENDCHAR
STARTCHAR 06DC
ENCODING 1756
SWIDTH 0 0
DWIDTH 0 0
BBX 8 5 -4 10
BITMAP
10
95
9F
90
60
ENDCHAR
STARTCHAR 06DD
ENCODING 1757
SWIDTH 1080 0
DWIDTH 21 0
BBX 21 21 0 -4
BITMAP
01FC00
0E0380
0FFF80
1800C0
300060
200020
400010
400010
800008
800008
800008
800008
800008
400010
400010
200020
300060
1800C0
0FFF80
0E0380
01FC00
ENDCHAR
STARTCHAR 06DE
ENCODING 1758
SWIDTH 1080 0
DWIDTH 21 0
BBX 21 21 0 -4
BITMAP
002000
005000
008800
1FFFC0
120240
140140
1800C0
100040
307060
508850
908848
508850
307060
100040
1800C0
140140
120240
1FFFC0
008800
005000
002000
ENDCHAR
STARTCHAR 06DF
ENCODING 1759
SWIDTH 0 0
DWIDTH 0 0
BBX 1 1 -1 10
BITMAP
80
ENDCHAR
STARTCHAR 06E0
ENCODING 1760
SWIDTH 0 0
DWIDTH 0 0
BBX 1 1 -1 10
BITMAP
80
ENDCHAR
STARTCHAR 06E1
ENCODING 1761
SWIDTH 0 0
DWIDTH 0 0
BBX 5 3 -3 10
BITMAP
60
10
F8
ENDCHAR
STARTCHAR 06E2
ENCODING 1762
SWIDTH 0 0
DWIDTH 0 0
BBX 3 6 -1 10
BITMAP
40
A0
60
80
80
80
ENDCHAR
STARTCHAR 06E3
ENCODING 1763
SWIDTH 0 0
DWIDTH 0 0
BBX 8 5 -4 -4
BITMAP
10
95
9F
90
60
ENDCHAR
STARTCHAR 06E4
ENCODING 1764
SWIDTH 0 0
DWIDTH 0 0
BBX 2 1 -1 10
BITMAP
C0
ENDCHAR
STARTCHAR 06E5
ENCODING 1765
SWIDTH 205 0
DWIDTH 4 0
BBX 3 4 1 10
BITMAP
60
60
20
C0
ENDCHAR
STARTCHAR 06E6
ENCODING 1766
SWIDTH 360 0
DWIDTH 7 0
BBX 7 4 0 10
BITMAP
10
70
80
FE
ENDCHAR
STARTCHAR 06E7
ENCODING 1767
SWIDTH 0 0
DWIDTH 0 0
BBX 7 4 -4 10
BITMAP
10
70
80
FE
ENDCHAR
STARTCHAR 06E8
ENCODING 1768
SWIDTH 0 0
DWIDTH 0 0
BBX 4 6 -2 10
BITMAP
40
10
90
90
90
60
ENDCHAR
STARTCHAR 06E9
ENCODING 1769
SWIDTH 565 0
DWIDTH 11 0
BBX 13 16 -1 0
BITMAP
0200
0D80
1240
2DA0
D258
6DB0
3DE0
1DC0
1DC0
1DC0
1DC0
1FC0
38E0
2FA0
4010
FFF8
ENDCHAR
STARTCHAR 06EA
ENCODING 1770
SWIDTH 0 0
DWIDTH 0 0
BBX 3 3 -2 -3
BITMAP
40
A0
40
ENDCHAR
STARTCHAR 06EB
ENCODING 1771
SWIDTH 0 0
DWIDTH 0 0
BBX 3 3 -2 10
BITMAP
40
A0
40
ENDCHAR
STARTCHAR 06EC
ENCODING 1772
SWIDTH 0 0
DWIDTH 0 0
BBX 1 1 -1 10
BITMAP
80
ENDCHAR
STARTCHAR 06ED
ENCODING 1773
SWIDTH 0 0
DWIDTH 0 0
BBX 3 6 -1 -4
BITMAP
40
A0
60
80
80
80
ENDCHAR
STARTCHAR 06F0
ENCODING 1776
SWIDTH 514 0
DWIDTH 10 0
BBX 3 4 4 4
BITMAP
40
E0
E0
40
ENDCHAR
STARTCHAR 06F1
ENCODING 1777
SWIDTH 514 0
DWIDTH 10 0
BBX 3 11 4 3
BITMAP
80
C0
C0
60
60
20
20
20
20
20
20
ENDCHAR
STARTCHAR 06F2
ENCODING 1778
SWIDTH 514 0
DWIDTH 10 0
BBX 6 11 3 3
BITMAP
84
C4
FC
78
20
20
30
10
10
10
10
ENDCHAR
STARTCHAR 06F3
ENCODING 1779
SWIDTH 514 0
DWIDTH 10 0
BBX 8 11 2 3
BITMAP
89
89
FF
7E
40
60
20
20
20
20
20
ENDCHAR
STARTCHAR 06F4
ENCODING 1780
SWIDTH 514 0
DWIDTH 10 0
BBX 7 11 2 3
BITMAP
8C
D8
F2
7E
7C
60
20
20
20
20
20
ENDCHAR
STARTCHAR 06F5
ENCODING 1781
SWIDTH 514 0
DWIDTH 10 0
BBX 7 11 1 3
BITMAP
10
18
18
2C
44
46
82
82
82
FE
7C
ENDCHAR
STARTCHAR 06F6
ENCODING 1782
SWIDTH 514 0
DWIDTH 10 0
BBX 7 11 2 3
BITMAP
18
3C
40
82
FE
F8
10
20
60
40
40
ENDCHAR
STARTCHAR 06F7
ENCODING 1783
SWIDTH 514 0
DWIDTH 10 0
BBX 8 11 1 3
BITMAP
80
C1
C1
63
22
34
14
18
08
08
08
ENDCHAR
STARTCHAR 06F8
ENCODING 1784
SWIDTH 514 0
DWIDTH 10 0
BBX 9 11 1 3
BITMAP
0800
0800
0800
1400
1400
2600
2200
6300
C180
C180
8080
ENDCHAR
STARTCHAR 06F9
ENCODING 1785
SWIDTH 514 0
DWIDTH 10 0
BBX 6 11 2 3
BITMAP
30
78
88
88
F8
78
08
08
0C
0C
04
ENDCHAR
STARTCHAR 06FA
ENCODING 1786
SWIDTH 822 0
DWIDTH 16 0
BBX 15 14 1 -1
BITMAP
0060
0058
0028
0060
0000
0104
0192
4192
80FE
80FE
8080
C398
FF18
7E00
ENDCHAR
STARTCHAR 06FB
ENCODING 1787
SWIDTH 1080 0
DWIDTH 21 0
BBX 20 12 1 -1
BITMAP
000600
000600
000000
0080E0
00C3F0
40CE10
807FF0
807FF0
804000
C1C300
FF8300
7E0000
ENDCHAR
STARTCHAR 06FC
ENCODING 1788
SWIDTH 514 0
DWIDTH 10 0
BBX 9 20 0 -4
BITMAP
3000
3000
0000
0000
3800
7C00
E000
8000
8100
E700
7C00
3000
4000
8000
8600
8600
C000
E000
7F80
1F00
ENDCHAR
STARTCHAR 06FD
ENCODING 1789
SWIDTH 411 0
DWIDTH 8 0
BBX 6 12 1 -3
BITMAP
30
78
80
CC
FC
78
60
00
28
28
28
28
ENDCHAR
STARTCHAR 06FE
ENCODING 1790
SWIDTH 308 0
DWIDTH 6 0
BBX 6 12 0 -4
BITMAP
30
78
0C
3C
7C
C0
80
94
D4
54
54
40
ENDCHAR
STARTCHAR 1E80
ENCODING 7808
SWIDTH 925 0
DWIDTH 18 0
BBX 18 16 0 0
BITMAP
018000
008000
004000
000000
FBE3C0
30C180
304100
186100
18E200
18A200
0CB600
0D3400
0D1400
061C00
061800
020800
ENDCHAR
STARTCHAR 1E81
ENCODING 7809
SWIDTH 668 0
DWIDTH 13 0
BBX 13 13 0 0
BITMAP
0600
0200
0100
0000
F7B8
6310
6310
33A0
35A0
35A0
1CE0
18C0
0840
ENDCHAR
STARTCHAR 1E82
ENCODING 7810
SWIDTH 925 0
DWIDTH 18 0
BBX 18 16 0 0
BITMAP
006000
00C000
008000
000000
FBE3C0
30C180
304100
186100
18E200
18A200
0CB600
0D3400
0D1400
061C00
061800
020800
ENDCHAR
STARTCHAR 1E83
ENCODING 7811
SWIDTH 668 0
DWIDTH 13 0
BBX 13 13 0 0
BITMAP
0180
0300
0200
0000
F7B8
6310
6310
33A0
35A0
35A0
1CE0
18C0
0840
ENDCHAR
STARTCHAR 1E84
ENCODING 7812
SWIDTH 925 0
DWIDTH 18 0
BBX 18 15 0 0
BITMAP
01B000
01B000
000000
FBE3C0
30C180
304100
186100
18E200
18A200
0CB600
0D3400
0D1400
061C00
061800
020800
ENDCHAR
STARTCHAR 1E85
ENCODING 7813
SWIDTH 668 0
DWIDTH 13 0
BBX 13 13 0 0
BITMAP
0D80
0D80
0000
0000
F7B8
6310
6310
33A0
35A0
35A0
1CE0
18C0
0840
ENDCHAR
STARTCHAR 1EA0
ENCODING 7840
SWIDTH 668 0
DWIDTH 13 0
BBX 13 15 0 -3
BITMAP
0300
0300
0580
0580
0980
08C0
10C0
1FC0
1060
2060
6070
F0F8
0000
0600
0600
ENDCHAR
STARTCHAR 1EA1
ENCODING 7841
SWIDTH 411 0
DWIDTH 8 0
BBX 6 12 1 -3
BITMAP
78
CC
CC
1C
6C
CC
CC
CC
7C
00
30
30
ENDCHAR
STARTCHAR 1EA2
ENCODING 7842
SWIDTH 668 0
DWIDTH 13 0
BBX 13 16 0 0
BITMAP
0380
0080
0100
0000
0300
0300
0580
0580
0980
08C0
10C0
1FC0
1060
2060
6070
F0F8
ENDCHAR
STARTCHAR 1EA3
ENCODING 7843
SWIDTH 411 0
DWIDTH 8 0
BBX 6 13 1 0
BITMAP
38
08
10
00
78
CC
CC
1C
6C
CC
CC
CC
7C
ENDCHAR
STARTCHAR 1EA4
ENCODING 7844
SWIDTH 668 0
DWIDTH 13 0
BBX 13 16 0 0
BITMAP
0100
0200
0300
0480
0300
0300
0580
0580
0980
08C0
10C0
1FC0
1060
2060
6070
F0F8
ENDCHAR
STARTCHAR 1EA5
ENCODING 7845
SWIDTH 411 0
DWIDTH 8 0
BBX 6 16 1 0
BITMAP
08
10
00
38
28
44
00
78
CC
CC
1C
6C
CC
CC
CC
7C
ENDCHAR
STARTCHAR 1EA6
ENCODING 7846
SWIDTH 668 0
DWIDTH 13 0
BBX 13 16 0 0
BITMAP
0400
0200
0300
0480
0300
0300
0580
0580
0980
08C0
10C0
1FC0
1060
2060
6070
F0F8
ENDCHAR
STARTCHAR 1EA7
ENCODING 7847
SWIDTH 411 0
DWIDTH 8 0
BBX 6 16 1 0
BITMAP
20
10
00
38
28
44
00
78
CC
CC
1C
6C
CC
CC
CC
7C
ENDCHAR
STARTCHAR 1EA8
ENCODING 7848
SWIDTH 668 0
DWIDTH 13 0
BBX 13 16 0 0
BITMAP
0380
0000
0300
0480
0300
0300
0580
0580
0980
08C0
10C0
1FC0
1060
2060
6070
F0F8
ENDCHAR
STARTCHAR 1EA9
ENCODING 7849
SWIDTH 411 0
DWIDTH 8 0
BBX 6 16 1 0
BITMAP
38
08
10
38
28
44
00
78
CC
CC
1C
6C
CC
CC
CC
7C
ENDCHAR
STARTCHAR 1EAA
ENCODING 7850
SWIDTH 668 0
DWIDTH 13 0
BBX 13 16 0 0
BITMAP
0720
08C0
0300
0480
0300
0300
0580
0580
0980
08C0
10C0
1FC0
1060
2060
6070
F0F8
ENDCHAR
STARTCHAR 1EAB
ENCODING 7851
SWIDTH 411 0
DWIDTH 8 0
BBX 7 16 1 0
BITMAP
72
8C
00
38
28
44
00
78
CC
CC
1C
6C
CC
CC
CC
7C
ENDCHAR
STARTCHAR 1EAC
ENCODING 7852
SWIDTH 668 0
DWIDTH 13 0
BBX 13 17 0 -3
BITMAP
0300
0480
0300
0300
0580
0580
0980
08C0
10C0
1FC0
1060
2060
6070
F0F8
0000
0600
0600
ENDCHAR
STARTCHAR 1EAD
ENCODING 7853
SWIDTH 411 0
DWIDTH 8 0
BBX 6 16 1 -3
BITMAP
38
28
44
00
78
CC
CC
1C
6C
CC
CC
CC
7C
00
30
30
ENDCHAR
STARTCHAR 1EAE
ENCODING 7854
SWIDTH 668 0
DWIDTH 13 0
BBX 13 16 0 0
BITMAP
0100
0200
0840
0780
0300
0300
0580
0580
0980
08C0
10C0
1FC0
1060
2060
6070
F0F8
ENDCHAR
STARTCHAR 1EAF
ENCODING 7855
SWIDTH 411 0
DWIDTH 8 0
BBX 6 16 1 0
BITMAP
08
10
00
44
7C
38
00
78
CC
CC
1C
6C
CC
CC
CC
7C
ENDCHAR
STARTCHAR 1EB0
ENCODING 7856
SWIDTH 668 0
DWIDTH 13 0
BBX 13 16 0 0
BITMAP
0200
0100
0840
0780
0300
0300
0580
0580
0980
08C0
10C0
1FC0
1060
2060
6070
F0F8
ENDCHAR
STARTCHAR 1EB1
ENCODING 7857
SWIDTH 411 0
DWIDTH 8 0
BBX 6 16 1 0
BITMAP
20
10
00
44
7C
38
00
78
CC
CC
1C
6C
CC
CC
CC
7C
ENDCHAR
STARTCHAR 1EB2
ENCODING 7858
SWIDTH 668 0
DWIDTH 13 0
BBX 13 16 0 0
BITMAP
0700
0000
0840
0780
0300
0300
0580
0580
0980
08C0
10C0
1FC0
1060
2060
6070
F0F8
ENDCHAR
STARTCHAR 1EB3
ENCODING 7859
SWIDTH 411 0
DWIDTH 8 0
BBX 6 16 1 0
BITMAP
38
08
10
44
7C
38
00
78
CC
CC
1C
6C
CC
CC
CC
7C
ENDCHAR
STARTCHAR 1EB4
ENCODING 7860
SWIDTH 668 0
DWIDTH 13 0
BBX 13 16 0 0
BITMAP
0720
08C0
0840
0780
0300
0300
0580
0580
0980
08C0
10C0
1FC0
1060
2060
6070
F0F8
ENDCHAR
STARTCHAR 1EB5
ENCODING 7861
SWIDTH 411 0
DWIDTH 8 0
BBX 7 16 1 0
BITMAP
72
8C
00
44
7C
38
00
78
CC
CC
1C
6C
CC
CC
CC
7C
ENDCHAR
STARTCHAR 1EB6
ENCODING 7862
SWIDTH 668 0
DWIDTH 13 0
BBX 13 17 0 -3
BITMAP
0840
0780
0300
0300
0580
0580
0980
08C0
10C0
1FC0
1060
2060
6070
F0F8
0000
0600
0600
ENDCHAR
STARTCHAR 1EB7
ENCODING 7863
SWIDTH 411 0
DWIDTH 8 0
BBX 6 16 1 -3
BITMAP
44
7C
38
00
78
CC
CC
1C
6C
CC
CC
CC
7C
00
30
30
ENDCHAR
STARTCHAR 1EB8
ENCODING 7864
SWIDTH 565 0
DWIDTH 11 0
BBX 11 15 0 -3
BITMAP
FFC0
3040
3040
3100
3100
3F00
3100
3100
3000
3020
3040
FFC0
0000
0600
0600
ENDCHAR
STARTCHAR 1EB9
ENCODING 7865
SWIDTH 411 0
DWIDTH 8 0
BBX 7 12 1 -3
BITMAP
38
64
C6
FE
C0
C0
E2
7C
38
00
18
18
ENDCHAR
STARTCHAR 1EBA
ENCODING 7866
SWIDTH 565 0
DWIDTH 11 0
BBX 11 16 0 0
BITMAP
0E00
0200
0400
0000
FFC0
3040
3040
3100
3100
3F00
3100
3100
3000
3020
3040
FFC0
ENDCHAR
STARTCHAR 1EBB
ENCODING 7867
SWIDTH 411 0
DWIDTH 8 0
BBX 7 13 1 0
BITMAP
38
08
10
00
38
64
C6
FE
C0
C0
E2
7C
38
ENDCHAR
STARTCHAR 1EBC
ENCODING 7868
SWIDTH 565 0
DWIDTH 11 0
BBX 11 15 0 0
BITMAP
0C80
1300
0000
FFC0
3040
3040
3100
3100
3F00
3100
3100
3000
3020
3040
FFC0
ENDCHAR
STARTCHAR 1EBD
ENCODING 7869
SWIDTH 411 0
DWIDTH 8 0
BBX 7 12 1 0
BITMAP
32
4C
00
38
64
C6
FE
C0
C0
E2
7C
38
ENDCHAR
STARTCHAR 1EBE
ENCODING 7870
SWIDTH 565 0
DWIDTH 11 0
BBX 11 16 0 0
BITMAP
0200
0400
0600
0900
FFC0
3040
3040
3100
3100
3F00
3100
3100
3000
3020
3040
FFC0
ENDCHAR
STARTCHAR 1EBF
ENCODING 7871
SWIDTH 411 0
DWIDTH 8 0
BBX 7 16 1 0
BITMAP
08
10
00
38
28
44
00
38
64
C6
FE
C0
C0
E2
7C
38
ENDCHAR
STARTCHAR 1EC0
ENCODING 7872
SWIDTH 565 0
DWIDTH 11 0
BBX 11 16 0 0
BITMAP
0800
0400
0600
0900
FFC0
3040
3040
3100
3100
3F00
3100
3100
3000
3020
3040
FFC0
ENDCHAR
STARTCHAR 1EC1
ENCODING 7873
SWIDTH 411 0
DWIDTH 8 0
BBX 7 16 1 0
BITMAP
20
10
00
38
28
44
00
38
64
C6
FE
C0
C0
E2
7C
38
ENDCHAR
STARTCHAR 1EC2
ENCODING 7874
SWIDTH 565 0
DWIDTH 11 0
BBX 11 16 0 0
BITMAP
0700
0000
0600
0900
FFC0
3040
3040
3100
3100
3F00
3100
3100
3000
3020
3040
FFC0
ENDCHAR
STARTCHAR 1EC3
ENCODING 7875
SWIDTH 411 0
DWIDTH 8 0
BBX 7 16 1 0
BITMAP
38
08
10
38
28
44
00
38
64
C6
FE
C0
C0
E2
7C
38
ENDCHAR
STARTCHAR 1EC4
ENCODING 7876
SWIDTH 565 0
DWIDTH 11 0
BBX 11 16 0 0
BITMAP
0E40
1180
0600
0900
FFC0
3040
3040
3100
3100
3F00
3100
3100
3000
3020
3040
FFC0
ENDCHAR
STARTCHAR 1EC5
ENCODING 7877
SWIDTH 411 0
DWIDTH 8 0
BBX 7 16 1 0
BITMAP
72
8C
00
38
28
44
00
38
64
C6
FE
C0
C0
E2
7C
38
ENDCHAR
STARTCHAR 1EC6
ENCODING 7878
SWIDTH 565 0
DWIDTH 11 0
BBX 11 17 0 -3
BITMAP
0600
0900
FFC0
3040
3040
3100
3100
3F00
3100
3100
3000
3020
3040
FFC0
0000
0600
0600
ENDCHAR
STARTCHAR 1EC7
ENCODING 7879
SWIDTH 411 0
DWIDTH 8 0
BBX 7 16 1 -3
BITMAP
38
28
44
00
38
64
C6
FE
C0
C0
E2
7C
38
00
18
18
ENDCHAR
STARTCHAR 1EC8
ENCODING 7880
SWIDTH 308 0
DWIDTH 6 0
BBX 6 16 0 0
BITMAP
38
08
10
00
FC
30
30
30
30
30
30
30
30
30
30
FC
ENDCHAR
STARTCHAR 1EC9
ENCODING 7881
SWIDTH 308 0
DWIDTH 6 0
BBX 4 13 1 0
BITMAP
70
10
20
00
60
E0
60
60
60
60
60
60
F0
ENDCHAR
STARTCHAR 1ECA
ENCODING 7882
SWIDTH 308 0
DWIDTH 6 0
BBX 6 15 0 -3
BITMAP
FC
30
30
30
30
30
30
30
30
30
30
FC
00
30
30
ENDCHAR
STARTCHAR 1ECB
ENCODING 7883
SWIDTH 205 0
DWIDTH 4 0
BBX 4 16 0 -3
BITMAP
60
60
00
00
60
E0
60
60
60
60
60
60
F0
00
60
60
ENDCHAR
STARTCHAR 1ECC
ENCODING 7884
SWIDTH 720 0
DWIDTH 14 0
BBX 12 15 1 -3
BITMAP
0F80
30C0
6060
6030
C030
C030
C030
C030
C020
6060
30C0
0F00
0000
0600
0600
ENDCHAR
STARTCHAR 1ECD
ENCODING 7885
SWIDTH 514 0
DWIDTH 10 0
BBX 8 12 1 -3
BITMAP
3C
66
C3
C3
C3
C3
C3
66
3C
00
18
18
ENDCHAR
STARTCHAR 1ECE
ENCODING 7886
SWIDTH 720 0
DWIDTH 14 0
BBX 12 16 1 0
BITMAP
0700
0100
0200
0000
0F80
30C0
6060
6030
C030
C030
C030
C030
C020
6060
30C0
0F00
ENDCHAR
STARTCHAR 1ECF
ENCODING 7887
SWIDTH 514 0
DWIDTH 10 0
BBX 8 13 1 0
BITMAP
1C
04
08
00
3C
66
C3
C3
C3
C3
C3
66
3C
ENDCHAR
STARTCHAR 1ED0
ENCODING 7888
SWIDTH 720 0
DWIDTH 14 0
BBX 12 16 1 0
BITMAP
0200
0400
0600
0900
0F80
30C0
6060
6030
C030
C030
C030
C030
C020
6060
30C0
0F00
ENDCHAR
STARTCHAR 1ED1
ENCODING 7889
SWIDTH 514 0
DWIDTH 10 0
BBX 8 16 1 0
BITMAP
08
10
00
38
28
44
00
3C
66
C3
C3
C3
C3
C3
66
3C
ENDCHAR
STARTCHAR 1ED2
ENCODING 7890
SWIDTH 720 0
DWIDTH 14 0
BBX 12 16 1 0
BITMAP
0400
0200
0600
0900
0F80
30C0
6060
6030
C030
C030
C030
C030
C020
6060
30C0
0F00
ENDCHAR
STARTCHAR 1ED3
ENCODING 7891
SWIDTH 514 0
DWIDTH 10 0
BBX 8 16 1 0
BITMAP
20
10
00
38
28
44
00
3C
66
C3
C3
C3
C3
C3
66
3C
ENDCHAR
STARTCHAR 1ED4
ENCODING 7892
SWIDTH 720 0
DWIDTH 14 0
BBX 12 16 1 0
BITMAP
0700
0000
0600
0900
0F80
30C0
6060
6030
C030
C030
C030
C030
C020
6060
30C0
0F00
ENDCHAR
STARTCHAR 1ED5
ENCODING 7893
SWIDTH 514 0
DWIDTH 10 0
BBX 8 16 1 0
BITMAP
38
08
10
38
28
44
00
3C
66
C3
C3
C3
C3
C3
66
3C
ENDCHAR
STARTCHAR 1ED6
ENCODING 7894
SWIDTH 720 0
DWIDTH 14 0
BBX 12 16 1 0
BITMAP
0E40
1180
0600
0900
0F80
30C0
6060
6030
C030
C030
C030
C030
C020
6060
30C0
0F00
ENDCHAR
STARTCHAR 1ED7
ENCODING 7895
SWIDTH 514 0
DWIDTH 10 0
BBX 8 16 1 0
BITMAP
72
8C
00
38
28
44
00
3C
66
C3
C3
C3
C3
C3
66
3C
ENDCHAR
STARTCHAR 1ED8
ENCODING 7896
SWIDTH 720 0
DWIDTH 14 0
BBX 12 17 1 -3
BITMAP
0600
0900
0F80
30C0
6060
6030
C030
C030
C030
C030
C020
6060
30C0
0F00
0000
0600
0600
ENDCHAR
STARTCHAR 1ED9
ENCODING 7897
SWIDTH 514 0
DWIDTH 10 0
BBX 8 16 1 -3
BITMAP
38
28
44
00
3C
66
C3
C3
C3
C3
C3
66
3C
00
18
18
ENDCHAR
STARTCHAR 1EDA
ENCODING 7898
SWIDTH 720 0
DWIDTH 14 0
BBX 12 16 1 0
BITMAP
0180
0300
0200
0010
0F10
30E0
6040
4020
C030
C030
C030
C030
C020
6060
30C0
0F00
ENDCHAR
STARTCHAR 1EDB
ENCODING 7899
SWIDTH 514 0
DWIDTH 10 0
BBX 9 13 1 0
BITMAP
0600
0C00
0800
0000
3C80
6680
C380
C300
C300
C300
C300
6600
3C00
ENDCHAR
STARTCHAR 1EDC
ENCODING 7900
SWIDTH 720 0
DWIDTH 14 0
BBX 12 16 1 0
BITMAP
0C00
0400
0200
0010
0F10
30E0
6040
4020
C030
C030
C030
C030
C020
6060
30C0
0F00
ENDCHAR
STARTCHAR 1EDD
ENCODING 7901
SWIDTH 514 0
DWIDTH 10 0
BBX 9 13 1 0
BITMAP
6000
2000
1000
0000
3C80
6680
C380
C300
C300
C300
C300
6600
3C00
ENDCHAR
STARTCHAR 1EDE
ENCODING 7902
SWIDTH 720 0
DWIDTH 14 0
BBX 12 16 1 0
BITMAP
0700
0100
0200
0010
0F10
30E0
6040
4020
C030
C030
C030
C030
C020
6060
30C0
0F00
ENDCHAR
STARTCHAR 1EDF
ENCODING 7903
SWIDTH 514 0
DWIDTH 10 0
BBX 9 13 1 0
BITMAP
1C00
0400
0800
0000
3C80
6680
C380
C300
C300
C300
C300
6600
3C00
ENDCHAR
STARTCHAR 1EE0
ENCODING 7904
SWIDTH 720 0
DWIDTH 14 0
BBX 12 15 1 0
BITMAP
0C80
1300
0010
0F10
30E0
6040
4020
C030
C030
C030
C030
C020
6060
30C0
0F00
ENDCHAR
STARTCHAR 1EE1
ENCODING 7905
SWIDTH 514 0
DWIDTH 10 0
BBX 9 12 1 0
BITMAP
3200
4C00
0000
3C80
6680
C380
C300
C300
C300
C300
6600
3C00
ENDCHAR
STARTCHAR 1EE2
ENCODING 7906
SWIDTH 720 0
DWIDTH 14 0
BBX 12 16 1 -3
BITMAP
0010
0F10
30E0
6040
4020
C030
C030
C030
C030
C020
6060
30C0
0F00
0000
0600
0600
ENDCHAR
STARTCHAR 1EE3
ENCODING 7907
SWIDTH 514 0
DWIDTH 10 0
BBX 9 12 1 -3
BITMAP
3C80
6680
C380
C300
C300
C300
C300
6600
3C00
0000
1800
1800
ENDCHAR
STARTCHAR 1EE4
ENCODING 7908
SWIDTH 668 0
DWIDTH 13 0
BBX 13 15 0 -3
BITMAP
FCF8
3020
3020
3020
3020
3020
3020
3020
3020
3020
1840
0F80
0000
0300
0300
ENDCHAR
STARTCHAR 1EE5
ENCODING 7909
SWIDTH 462 0
DWIDTH 9 0
BBX 9 12 0 -3
BITMAP
E700
6300
6300
6300
6300
6300
6300
6780
3B00
0000
1800
1800
ENDCHAR
STARTCHAR 1EE6
ENCODING 7910
SWIDTH 668 0
DWIDTH 13 0
BBX 13 16 0 0
BITMAP
0700
0100
0200
0000
FCF8
3020
3020
3020
3020
3020
3020
3020
3020
3020
1840
0F80
ENDCHAR
STARTCHAR 1EE7
ENCODING 7911
SWIDTH 462 0
DWIDTH 9 0
BBX 9 13 0 0
BITMAP
1C00
0400
0800
0000
E700
6300
6300
6300
6300
6300
6300
6780
3B00
ENDCHAR
STARTCHAR 1EE8
ENCODING 7912
SWIDTH 771 0
DWIDTH 15 0
BBX 14 16 1 0
BITMAP
0180
0300
0204
0004
FCFC
3020
3020
3020
3020
3020
3020
3020
3020
3020
1840
0F80
ENDCHAR
STARTCHAR 1EE9
ENCODING 7913
SWIDTH 514 0
DWIDTH 10 0
BBX 10 13 0 0
BITMAP
0600
0C00
0800
0000
E740
6340
6380
6300
6300
6300
6300
6780
3B00
ENDCHAR
STARTCHAR 1EEA
ENCODING 7914
SWIDTH 771 0
DWIDTH 15 0
BBX 14 16 1 0
BITMAP
0C00
0400
0204
0004
FCFC
3020
3020
3020
3020
3020
3020
3020
3020
3020
1840
0F80
ENDCHAR
STARTCHAR 1EEB
ENCODING 7915
SWIDTH 514 0
DWIDTH 10 0
BBX 10 13 0 0
BITMAP
3000
1000
0800
0000
E740
6340
6380
6300
6300
6300
6300
6780
3B00
ENDCHAR
STARTCHAR 1EEC
ENCODING 7916
SWIDTH 771 0
DWIDTH 15 0
BBX 14 16 1 0
BITMAP
0700
0100
0204
0004
FCFC
3020
3020
3020
3020
3020
3020
3020
3020
3020
1840
0F80
ENDCHAR
STARTCHAR 1EED
ENCODING 7917
SWIDTH 514 0
DWIDTH 10 0
BBX 10 13 0 0
BITMAP
1C00
0400
0800
0000
E740
6340
6380
6300
6300
6300
6300
6780
3B00
ENDCHAR
STARTCHAR 1EEE
ENCODING 7918
SWIDTH 771 0
DWIDTH 15 0
BBX 14 15 1 0
BITMAP
0640
0984
0004
FCFC
3020
3020
3020
3020
3020
3020
3020
3020
3020
1840
0F80
ENDCHAR
STARTCHAR 1EEF
ENCODING 7919
SWIDTH 514 0
DWIDTH 10 0
BBX 10 12 0 0
BITMAP
3200
4C00
0000
E740
6340
6380
6300
6300
6300
6300
6780
3B00
ENDCHAR
STARTCHAR 1EF0
ENCODING 7920
SWIDTH 771 0
DWIDTH 15 0
BBX 14 17 1 -3
BITMAP
0004
0004
FCFC
3020
3020
3020
3020
3020
3020
3020
3020
3020
1840
0F80
0000
0300
0300
ENDCHAR
STARTCHAR 1EF1
ENCODING 7921
SWIDTH 514 0
DWIDTH 10 0
BBX 10 12 0 -3
BITMAP
E740
6340
6380
6300
6300
6300
6300
6780
3B00
0000
1800
1800
ENDCHAR
STARTCHAR 1EF2
ENCODING 7922
SWIDTH 668 0
DWIDTH 13 0
BBX 13 16 0 0
BITMAP
0300
0100
0080
0000
FC78
3010
1820
0C40
0C40
0680
0300
0300
0300
0300
0300
0FC0
ENDCHAR
STARTCHAR 1EF3
ENCODING 7923
SWIDTH 462 0
DWIDTH 9 0
BBX 10 17 -1 -4
BITMAP
0C00
0400
0200
0000
F9C0
7080
3080
1900
1900
0E00
0E00
0600
0400
0400
0C00
7800
7000
ENDCHAR
STARTCHAR 1EF4
ENCODING 7924
SWIDTH 668 0
DWIDTH 13 0
BBX 13 15 0 -3
BITMAP
FC78
3010
1820
0C40
0C40
0680
0300
0300
0300
0300
0300
0FC0
0000
0300
0300
ENDCHAR
STARTCHAR 1EF5
ENCODING 7925
SWIDTH 462 0
DWIDTH 9 0
BBX 10 13 -1 -4
BITMAP
F9C0
7080
3080
1900
1900
0E00
0E00
0600
0400
0400
0D80
7980
7000
ENDCHAR
STARTCHAR 1EF6
ENCODING 7926
SWIDTH 668 0
DWIDTH 13 0
BBX 13 16 0 0
BITMAP
0380
0080
0100
0000
FC78
3010
1820
0C40
0C40
0680
0300
0300
0300
0300
0300
0FC0
ENDCHAR
STARTCHAR 1EF7
ENCODING 7927
SWIDTH 462 0
DWIDTH 9 0
BBX 10 17 -1 -4
BITMAP
0E00
0200
0400
0000
F9C0
7080
3080
1900
1900
0E00
0E00
0600
0400
0400
0C00
7800
7000
ENDCHAR
STARTCHAR 1EF8
ENCODING 7928
SWIDTH 668 0
DWIDTH 13 0
BBX 13 15 0 0
BITMAP
0640
0980
0000
FC78
3010
1820
0C40
0C40
0680
0300
0300
0300
0300
0300
0FC0
ENDCHAR
STARTCHAR 1EF9
ENCODING 7929
SWIDTH 462 0
DWIDTH 9 0
BBX 10 16 -1 -4
BITMAP
0C80
1300
0000
F9C0
7080
3080
1900
1900
0E00
0E00
0600
0400
0400
0C00
7800
7000
ENDCHAR
STARTCHAR 200C
ENCODING 8204
SWIDTH 0 0
DWIDTH 0 0
BBX 1 15 0 -3
BITMAP
80
80
80
80
80
80
80
80
80
80
80
80
80
80
80
ENDCHAR
STARTCHAR 200D
ENCODING 8205
SWIDTH 0 0
DWIDTH 0 0
BBX 5 17 -2 -3
BITMAP
88
50
20
70
A8
20
20
20
20
20
20
20
20
20
20
20
20
ENDCHAR
STARTCHAR 200E
ENCODING 8206
SWIDTH 0 0
DWIDTH 0 0
BBX 5 16 0 -3
BITMAP
20
10
F8
90
A0
80
80
80
80
80
80
80
80
80
80
80
ENDCHAR
STARTCHAR 200F
ENCODING 8207
SWIDTH 0 0
DWIDTH 0 0
BBX 5 16 -4 -3
BITMAP
20
40
F8
48
28
08
08
08
08
08
08
08
08
08
08
08
ENDCHAR
STARTCHAR 2013
ENCODING 8211
SWIDTH 514 0
DWIDTH 10 0
BBX 10 1 0 4
BITMAP
FFC0
ENDCHAR
STARTCHAR 2014
ENCODING 8212
SWIDTH 977 0
DWIDTH 19 0
BBX 19 1 0 4
BITMAP
FFFFE0
ENDCHAR
STARTCHAR 2015
ENCODING 8213
SWIDTH 977 0
DWIDTH 19 0
BBX 17 1 1 4
BITMAP
FFFF80
ENDCHAR
STARTCHAR 2017
ENCODING 8215
SWIDTH 514 0
DWIDTH 10 0
BBX 10 3 0 -5
BITMAP
FFC0
0000
FFC0
ENDCHAR
STARTCHAR 2018
ENCODING 8216
SWIDTH 360 0
DWIDTH 7 0
BBX 3 5 2 7
BITMAP
20
C0
80
E0
60
ENDCHAR
STARTCHAR 2019
ENCODING 8217
SWIDTH 360 0
DWIDTH 7 0
BBX 3 5 2 7
BITMAP
C0
E0
20
20
C0
ENDCHAR
STARTCHAR 201A
ENCODING 8218
SWIDTH 308 0
DWIDTH 6 0
BBX 3 5 2 -3
BITMAP
C0
E0
20
40
80
ENDCHAR
STARTCHAR 201B
ENCODING 8219
SWIDTH 308 0
DWIDTH 6 0
BBX 3 5 2 7
BITMAP
60
E0
80
40
20
ENDCHAR
STARTCHAR 201C
ENCODING 8220
SWIDTH 462 0
DWIDTH 9 0
BBX 7 5 1 7
BITMAP
44
88
88
EE
66
ENDCHAR
STARTCHAR 201D
ENCODING 8221
SWIDTH 411 0
DWIDTH 8 0
BBX 7 5 0 7
BITMAP
CC
EE
22
22
44
ENDCHAR
STARTCHAR 201E
ENCODING 8222
SWIDTH 411 0
DWIDTH 8 0
BBX 7 5 0 -3
BITMAP
CC
EE
22
22
44
ENDCHAR
STARTCHAR 2020
ENCODING 8224
SWIDTH 514 0
DWIDTH 10 0
BBX 7 17 1 -4
BITMAP
10
10
10
FE
10
10
10
10
10
10
10
10
10
10
10
10
10
ENDCHAR
STARTCHAR 2021
ENCODING 8225
SWIDTH 514 0
DWIDTH 10 0
BBX 7 17 1 -4
BITMAP
10
10
10
FE
10
10
10
10
10
10
10
10
10
FE
10
10
10
ENDCHAR
STARTCHAR 2022
ENCODING 8226
SWIDTH 360 0
DWIDTH 7 0
BBX 5 5 1 4
BITMAP
70
F8
F8
F8
70
ENDCHAR
STARTCHAR 2026
ENCODING 8230
SWIDTH 977 0
DWIDTH 19 0
BBX 14 2 2 0
BITMAP
C30C
C30C
ENDCHAR
STARTCHAR 202A
ENCODING 8234
SWIDTH 720 0
DWIDTH 14 0
BBX 10 12 2 0
BITMAP
FFC0
8040
8040
8040
8040
8040
8040
8040
8040
8040
8040
8040
ENDCHAR
STARTCHAR 202B
ENCODING 8235
SWIDTH 720 0
DWIDTH 14 0
BBX 10 12 2 0
BITMAP
FFC0
8040
8040
8040
8040
8040
8040
8040
8040
8040
8040
8040
ENDCHAR
STARTCHAR 202C
ENCODING 8236
SWIDTH 720 0
DWIDTH 14 0
BBX 10 12 2 0
BITMAP
FFC0
8040
8040
8040
8040
8040
8040
8040
8040
8040
8040
8040
ENDCHAR
STARTCHAR 202D
ENCODING 8237
SWIDTH 720 0
DWIDTH 14 0
BBX 10 12 2 0
BITMAP
FFC0
8040
8040
8040
8040
8040
8040
8040
8040
8040
8040
8040
ENDCHAR
STARTCHAR 202E
ENCODING 8238
SWIDTH 720 0
DWIDTH 14 0
BBX 10 12 2 0
BITMAP
FFC0
8040
8040
8040
8040
8040
8040
8040
8040
8040
8040
8040
ENDCHAR
STARTCHAR 2030
ENCODING 8240
SWIDTH 977 0
DWIDTH 19 0
BBX 20 12 0 0
BITMAP
782000
CC2000
CC4000
CC8000
CD0000
CEF1E0
7B9B30
059B30
099B30
119B30
219B30
20F1E0
ENDCHAR
STARTCHAR 2032
ENCODING 8242
SWIDTH 205 0
DWIDTH 4 0
BBX 3 5 1 7
BITMAP
60
60
40
C0
80
ENDCHAR
STARTCHAR 2033
ENCODING 8243
SWIDTH 411 0
DWIDTH 8 0
BBX 6 5 2 7
BITMAP
6C
6C
48
D8
90
ENDCHAR
STARTCHAR 2039
ENCODING 8249
SWIDTH 308 0
DWIDTH 6 0
BBX 5 9 1 0
BITMAP
08
10
20
60
C0
60
20
10
08
ENDCHAR
STARTCHAR 203A
ENCODING 8250
SWIDTH 308 0
DWIDTH 6 0
BBX 5 9 1 0
BITMAP
80
40
20
30
18
30
20
40
80
ENDCHAR
STARTCHAR 203C
ENCODING 8252
SWIDTH 565 0
DWIDTH 11 0
BBX 7 12 2 0
BITMAP
C6
C6
C6
C6
C6
84
84
84
00
00
C6
C6
ENDCHAR
STARTCHAR 203E
ENCODING 8254
SWIDTH 308 0
DWIDTH 6 0
BBX 7 1 0 10
BITMAP
FE
ENDCHAR
STARTCHAR 2044
ENCODING 8260
SWIDTH 154 0
DWIDTH 3 0
BBX 10 13 -3 0
BITMAP
0040
0080
0100
0100
0200
0400
0400
0800
1000
2000
2000
4000
8000
ENDCHAR
STARTCHAR 206A
ENCODING 8298
SWIDTH 720 0
DWIDTH 14 0
BBX 10 12 2 0
BITMAP
FFC0
8040
8040
8040
8040
8040
8040
8040
8040
8040
8040
8040
ENDCHAR
STARTCHAR 206B
ENCODING 8299
SWIDTH 720 0
DWIDTH 14 0
BBX 10 12 2 0
BITMAP
FFC0
8040
8040
8040
8040
8040
8040
8040
8040
8040
8040
8040
ENDCHAR
STARTCHAR 206C
ENCODING 8300
SWIDTH 720 0
DWIDTH 14 0
BBX 10 12 2 0
BITMAP
FFC0
8040
8040
8040
8040
8040
8040
8040
8040
8040
8040
8040
ENDCHAR
STARTCHAR 206D
ENCODING 8301
SWIDTH 720 0
DWIDTH 14 0
BBX 10 12 2 0
BITMAP
FFC0
8040
8040
8040
8040
8040
8040
8040
8040
8040
8040
8040
ENDCHAR
STARTCHAR 206E
ENCODING 8302
SWIDTH 720 0
DWIDTH 14 0
BBX 10 12 2 0
BITMAP
FFC0
8040
8040
8040
8040
8040
8040
8040
8040
8040
8040
8040
ENDCHAR
STARTCHAR 206F
ENCODING 8303
SWIDTH 720 0
DWIDTH 14 0
BBX 10 12 2 0
BITMAP
FFC0
8040
8040
8040
8040
8040
8040
8040
8040
8040
8040
8040
ENDCHAR
STARTCHAR 207F
ENCODING 8319
SWIDTH 308 0
DWIDTH 6 0
BBX 6 5 0 5
BITMAP
58
E8
48
48
FC
ENDCHAR
STARTCHAR 20A3
ENCODING 8355
SWIDTH 514 0
DWIDTH 10 0
BBX 9 12 0 0
BITMAP
FF80
3180
3080
3100
3100
3F00
3100
3100
FE00
3000
3000
FC00
ENDCHAR
STARTCHAR 20A4
ENCODING 8356
SWIDTH 514 0
DWIDTH 10 0
BBX 10 12 0 0
BITMAP
0700
0980
1980
1800
1800
7E00
1800
7E00
1800
7040
AFC0
E780
ENDCHAR
STARTCHAR 20A7
ENCODING 8359
SWIDTH 925 0
DWIDTH 18 0
BBX 19 12 -1 0
BITMAP
FF1000
31F000
30F000
30FDA0
30F260
31B220
3F3300
3031C0
3030E0
303220
303320
FC3EC0
ENDCHAR
STARTCHAR 20AA
ENCODING 8362
SWIDTH 771 0
DWIDTH 15 0
BBX 13 10 1 0
BITMAP
FF08
8088
8088
8088
8888
8888
8808
8808
8808
8FF0
ENDCHAR
STARTCHAR 20AB
ENCODING 8363
SWIDTH 514 0
DWIDTH 10 0
BBX 6 11 2 2
BITMAP
08
3C
08
78
88
88
88
48
38
00
FC
ENDCHAR
STARTCHAR 20AC
ENCODING 8364
SWIDTH 462 0
DWIDTH 9 0
BBX 10 12 -1 0
BITMAP
07C0
18C0
1040
3000
FF80
3000
FF00
3000
3000
1840
1880
0F00
ENDCHAR
STARTCHAR 2105
ENCODING 8453
SWIDTH 822 0
DWIDTH 16 0
BBX 14 12 1 0
BITMAP
7010
C820
8040
8080
8880
D978
728C
0484
0484
0884
10C8
2078
ENDCHAR
STARTCHAR 2113
ENCODING 8467
SWIDTH 462 0
DWIDTH 9 0
BBX 8 12 1 0
BITMAP
1C
32
32
32
34
38
30
70
B0
31
32
1C
ENDCHAR
STARTCHAR 2116
ENCODING 8470
SWIDTH 925 0
DWIDTH 18 0
BBX 18 12 0 0
BITMAP
783800
1C5800
1C4000
164780
1648C0
134840
134840
11CC40
11C780
10C000
D04000
E04FC0
ENDCHAR
STARTCHAR 2122
ENCODING 8482
SWIDTH 1028 0
DWIDTH 20 0
BBX 19 7 0 5
BITMAP
FF70E0
9931C0
1839C0
182AC0
182EC0
1824C0
3C75E0
ENDCHAR
STARTCHAR 2126
ENCODING 8486
SWIDTH 771 0
DWIDTH 15 0
BBX 13 12 1 0
BITMAP
1FC0
3060
6030
C018
C018
C018
E038
7070
18C0
8888
F8F8
F8F8
ENDCHAR
STARTCHAR 212E
ENCODING 8494
SWIDTH 565 0
DWIDTH 11 0
BBX 10 10 1 0
BITMAP
1E00
6180
4080
C0C0
FFC0
C000
C000
4080
6100
1E00
ENDCHAR
STARTCHAR 2153
ENCODING 8531
SWIDTH 720 0
DWIDTH 14 0
BBX 12 13 1 0
BITMAP
0020
4040
C080
4080
4100
4200
4260
E490
0820
1060
1010
2010
40E0
ENDCHAR
STARTCHAR 2154
ENCODING 8532
SWIDTH 720 0
DWIDTH 14 0
BBX 13 13 0 0
BITMAP
0010
7020
8840
0840
1080
2100
4130
FA48
0410
0830
0808
1008
2070
ENDCHAR
STARTCHAR 215B
ENCODING 8539
SWIDTH 720 0
DWIDTH 14 0
BBX 12 12 1 0
BITMAP
4040
C040
4080
4100
4100
4260
E490
0890
0860
1090
2090
2060
ENDCHAR
STARTCHAR 215C
ENCODING 8540
SWIDTH 720 0
DWIDTH 14 0
BBX 13 12 0 0
BITMAP
6020
9040
1040
6080
1100
1130
E248
0448
0830
0848
1048
2030
ENDCHAR
STARTCHAR 215D
ENCODING 8541
SWIDTH 720 0
DWIDTH 14 0
BBX 13 12 0 0
BITMAP
7020
8040
E040
1080
1100
1130
E248
0448
0830
0848
1048
2030
ENDCHAR
STARTCHAR 215E
ENCODING 8542
SWIDTH 720 0
DWIDTH 14 0
BBX 13 12 0 0
BITMAP
7820
8840
1040
1080
2100
2130
2248
0448
0830
0848
1048
2030
ENDCHAR
STARTCHAR 2190
ENCODING 8592
SWIDTH 977 0
DWIDTH 19 0
BBX 18 7 1 2
BITMAP
100000
200000
400000
FFFFC0
400000
200000
100000
ENDCHAR
STARTCHAR 2191
ENCODING 8593
SWIDTH 514 0
DWIDTH 10 0
BBX 7 16 1 -4
BITMAP
10
38
54
92
10
10
10
10
10
10
10
10
10
10
10
10
ENDCHAR
STARTCHAR 2192
ENCODING 8594
SWIDTH 977 0
DWIDTH 19 0
BBX 18 7 1 2
BITMAP
000200
000100
000080
FFFFC0
000080
000100
000200
ENDCHAR
STARTCHAR 2193
ENCODING 8595
SWIDTH 462 0
DWIDTH 9 0
BBX 7 16 1 -4
BITMAP
10
10
10
10
10
10
10
10
10
10
10
10
92
54
38
10
ENDCHAR
STARTCHAR 2194
ENCODING 8596
SWIDTH 977 0
DWIDTH 19 0
BBX 17 7 1 2
BITMAP
100400
200200
400100
FFFF80
400100
200200
100400
ENDCHAR
STARTCHAR 2195
ENCODING 8597
SWIDTH 462 0
DWIDTH 9 0
BBX 7 18 1 -6
BITMAP
10
38
54
92
10
10
10
10
10
10
10
10
10
10
92
54
38
10
ENDCHAR
STARTCHAR 21A8
ENCODING 8616
SWIDTH 462 0
DWIDTH 9 0
BBX 7 20 1 -8
BITMAP
10
38
54
92
10
10
10
10
10
10
10
10
10
10
92
54
38
10
00
FE
ENDCHAR
STARTCHAR 2202
ENCODING 8706
SWIDTH 462 0
DWIDTH 9 0
BBX 9 13 0 0
BITMAP
0E00
1F00
3180
0080
0080
1E80
3180
6080
C100
C100
C200
C600
7800
ENDCHAR
STARTCHAR 2206
ENCODING 8710
SWIDTH 617 0
DWIDTH 12 0
BBX 11 12 0 0
BITMAP
0600
0600
0E00
0B00
1300
1380
2180
2180
40C0
40C0
80C0
FFE0
ENDCHAR
STARTCHAR 220F
ENCODING 8719
SWIDTH 822 0
DWIDTH 16 0
BBX 16 17 0 -4
BITMAP
FFFF
300C
300C
300C
300C
300C
300C
300C
300C
300C
300C
300C
300C
300C
300C
300C
FC3F
ENDCHAR
STARTCHAR 2211
ENCODING 8721
SWIDTH 720 0
DWIDTH 14 0
BBX 13 17 0 -4
BITMAP
FFF0
6010
3000
1800
0C00
0E00
0600
0300
0200
0400
0400
0800
1000
2000
2008
7FF8
FFF8
ENDCHAR
STARTCHAR 2212
ENCODING 8722
SWIDTH 565 0
DWIDTH 11 0
BBX 10 1 0 6
BITMAP
FFC0
ENDCHAR
STARTCHAR 2215
ENCODING 8725
SWIDTH 154 0
DWIDTH 3 0
BBX 10 13 -3 0
BITMAP
0040
0080
0100
0100
0200
0400
0400
0800
1000
2000
2000
4000
8000
ENDCHAR
STARTCHAR 2219
ENCODING 8729
SWIDTH 257 0
DWIDTH 5 0
BBX 2 2 1 5
BITMAP
C0
C0
ENDCHAR
STARTCHAR 221A
ENCODING 8730
SWIDTH 514 0
DWIDTH 10 0
BBX 10 18 0 -1
BITMAP
0040
0040
0040
0040
0080
0080
0080
0080
6080
A080
1080
1100
0900
0500
0500
0300
0100
0100
ENDCHAR
STARTCHAR 221E
ENCODING 8734
SWIDTH 720 0
DWIDTH 14 0
BBX 13 8 0 1
BITMAP
00E0
3110
4B08
8608
8608
8608
4D10
38E0
ENDCHAR
STARTCHAR 221F
ENCODING 8735
SWIDTH 977 0
DWIDTH 19 0
BBX 12 12 3 0
BITMAP
8000
8000
8000
8000
8000
8000
8000
8000
8000
8000
8000
FFF0
ENDCHAR
STARTCHAR 2229
ENCODING 8745
SWIDTH 720 0
DWIDTH 14 0
BBX 10 13 2 0
BITMAP
1E00
6180
4080
8040
8040
8040
8040
8040
8040
8040
8040
8040
8040
ENDCHAR
STARTCHAR 222B
ENCODING 8747
SWIDTH 257 0
DWIDTH 5 0
BBX 6 19 0 -2
BITMAP
1C
1C
20
20
20
30
30
30
30
30
30
30
30
30
10
10
10
E0
E0
ENDCHAR
STARTCHAR 2248
ENCODING 8776
SWIDTH 514 0
DWIDTH 10 0
BBX 9 8 0 2
BITMAP
7080
9C80
8700
0000
0000
7080
9C80
8700
ENDCHAR
STARTCHAR 2260
ENCODING 8800
SWIDTH 514 0
DWIDTH 10 0
BBX 9 15 0 -3
BITMAP
0100
0100
0200
0200
FF80
0400
0800
0800
0800
FF80
1000
2000
2000
4000
4000
ENDCHAR
STARTCHAR 2261
ENCODING 8801
SWIDTH 565 0
DWIDTH 11 0
BBX 10 7 0 3
BITMAP
FFC0
0000
0000
FFC0
0000
0000
FFC0
ENDCHAR
STARTCHAR 2264
ENCODING 8804
SWIDTH 514 0
DWIDTH 10 0
BBX 9 13 0 -2
BITMAP
0080
0300
1C00
6000
8000
6000
1C00
0300
0080
0000
0000
0000
FF80
ENDCHAR
STARTCHAR 2265
ENCODING 8805
SWIDTH 514 0
DWIDTH 10 0
BBX 9 13 0 -2
BITMAP
8000
6000
1C00
0300
0080
0300
1C00
6000
8000
0000
0000
0000
FF80
ENDCHAR
STARTCHAR 2302
ENCODING 8962
SWIDTH 565 0
DWIDTH 11 0
BBX 9 11 1 0
BITMAP
0800
1400
2200
4100
8080
8080
8080
8080
8080
8080
FF80
ENDCHAR
STARTCHAR 2310
ENCODING 8976
SWIDTH 565 0
DWIDTH 11 0
BBX 10 4 0 4
BITMAP
FFC0
8000
8000
8000
ENDCHAR
STARTCHAR 2320
ENCODING 8992
SWIDTH 565 0
DWIDTH 11 0
BBX 5 21 5 -5
BITMAP
38
58
C0
C0
C0
C0
C0
C0
C0
C0
C0
C0
C0
C0
C0
C0
C0
C0
C0
C0
C0
ENDCHAR
STARTCHAR 2321
ENCODING 8993
SWIDTH 565 0
DWIDTH 11 0
BBX 5 21 2 -5
BITMAP
18
18
18
18
18
18
18
18
18
18
18
18
18
18
18
18
18
18
18
D0
E0
ENDCHAR
STARTCHAR 2500
ENCODING 9472
SWIDTH 668 0
DWIDTH 13 0
BBX 13 2 0 5
BITMAP
FFF8
FFF8
ENDCHAR
STARTCHAR 2502
ENCODING 9474
SWIDTH 668 0
DWIDTH 13 0
BBX 2 23 6 -6
BITMAP
C0
C0
C0
C0
C0
C0
C0
C0
C0
C0
C0
C0
C0
C0
C0
C0
C0
C0
C0
C0
C0
C0
C0
ENDCHAR
STARTCHAR 250C
ENCODING 9484
SWIDTH 668 0
DWIDTH 13 0
BBX 7 13 6 -6
BITMAP
FE
FE
C0
C0
C0
C0
C0
C0
C0
C0
C0
C0
C0
ENDCHAR
STARTCHAR 2510
ENCODING 9488
SWIDTH 668 0
DWIDTH 13 0
BBX 8 13 0 -6
BITMAP
FF
FF
03
03
03
03
03
03
03
03
03
03
03
ENDCHAR
STARTCHAR 2514
ENCODING 9492
SWIDTH 668 0
DWIDTH 13 0
BBX 7 12 6 5
BITMAP
C0
C0
C0
C0
C0
C0
C0
C0
C0
C0
FE
FE
ENDCHAR
STARTCHAR 2518
ENCODING 9496
SWIDTH 668 0
DWIDTH 13 0
BBX 8 12 0 5
BITMAP
03
03
03
03
03
03
03
03
03
03
FF
FF
ENDCHAR
STARTCHAR 251C
ENCODING 9500
SWIDTH 668 0
DWIDTH 13 0
BBX 7 23 6 -6
BITMAP
C0
C0
C0
C0
C0
C0
C0
C0
C0
C0
FE
FE
C0
C0
C0
C0
C0
C0
C0
C0
C0
C0
C0
ENDCHAR
STARTCHAR 2524
ENCODING 9508
SWIDTH 668 0
DWIDTH 13 0
BBX 8 23 0 -6
BITMAP
03
03
03
03
03
03
03
03
03
03
FF
FF
03
03
03
03
03
03
03
03
03
03
03
ENDCHAR
STARTCHAR 252C
ENCODING 9516
SWIDTH 668 0
DWIDTH 13 0
BBX 13 13 0 -6
BITMAP
FFF8
FFF8
0300
0300
0300
0300
0300
0300
0300
0300
0300
0300
0300
ENDCHAR
STARTCHAR 2534
ENCODING 9524
SWIDTH 668 0
DWIDTH 13 0
BBX 13 12 0 5
BITMAP
0300
0300
0300
0300
0300
0300
0300
0300
0300
0300
FFF8
FFF8
ENDCHAR
STARTCHAR 253C
ENCODING 9532
SWIDTH 668 0
DWIDTH 13 0
BBX 13 23 0 -6
BITMAP
0300
0300
0300
0300
0300
0300
0300
0300
0300
0300
FFF8
FFF8
0300
0300
0300
0300
0300
0300
0300
0300
0300
0300
0300
ENDCHAR
STARTCHAR 2550
ENCODING 9552
SWIDTH 668 0
DWIDTH 13 0
BBX 13 6 0 3
BITMAP
FFF8
FFF8
0000
0000
FFF8
FFF8
ENDCHAR
STARTCHAR 2551
ENCODING 9553
SWIDTH 668 0
DWIDTH 13 0
BBX 6 23 4 -6
BITMAP
CC
CC
CC
CC
CC
CC
CC
CC
CC
CC
CC
CC
CC
CC
CC
CC
CC
CC
CC
CC
CC
CC
CC
ENDCHAR
STARTCHAR 2552
ENCODING 9554
SWIDTH 668 0
DWIDTH 13 0
BBX 7 15 6 -6
BITMAP
FE
FE
C0
C0
FE
FE
C0
C0
C0
C0
C0
C0
C0
C0
C0
ENDCHAR
STARTCHAR 2553
ENCODING 9555
SWIDTH 668 0
DWIDTH 13 0
BBX 9 13 4 -6
BITMAP
FF80
FF80
CC00
CC00
CC00
CC00
CC00
CC00
CC00
CC00
CC00
CC00
CC00
ENDCHAR
STARTCHAR 2554
ENCODING 9556
SWIDTH 668 0
DWIDTH 13 0
BBX 9 15 4 -6
BITMAP
FF80
FF80
C000
C000
CF80
CF80
CC00
CC00
CC00
CC00
CC00
CC00
CC00
CC00
CC00
ENDCHAR
STARTCHAR 2555
ENCODING 9557
SWIDTH 668 0
DWIDTH 13 0
BBX 8 15 0 -6
BITMAP
FF
FF
03
03
FF
FF
03
03
03
03
03
03
03
03
03
ENDCHAR
STARTCHAR 2556
ENCODING 9558
SWIDTH 668 0
DWIDTH 13 0
BBX 10 13 0 -6
BITMAP
FFC0
FFC0
0CC0
0CC0
0CC0
0CC0
0CC0
0CC0
0CC0
0CC0
0CC0
0CC0
0CC0
ENDCHAR
STARTCHAR 2557
ENCODING 9559
SWIDTH 668 0
DWIDTH 13 0
BBX 10 15 0 -6
BITMAP
FFC0
FFC0
00C0
00C0
FCC0
FCC0
0CC0
0CC0
0CC0
0CC0
0CC0
0CC0
0CC0
0CC0
0CC0
ENDCHAR
STARTCHAR 2558
ENCODING 9560
SWIDTH 668 0
DWIDTH 13 0
BBX 7 14 6 3
BITMAP
C0
C0
C0
C0
C0
C0
C0
C0
FE
FE
C0
C0
FE
FE
ENDCHAR
STARTCHAR 2559
ENCODING 9561
SWIDTH 668 0
DWIDTH 13 0
BBX 9 12 4 5
BITMAP
CC00
CC00
CC00
CC00
CC00
CC00
CC00
CC00
CC00
CC00
FF80
FF80
ENDCHAR
STARTCHAR 255A
ENCODING 9562
SWIDTH 668 0
DWIDTH 13 0
BBX 9 14 4 3
BITMAP
CC00
CC00
CC00
CC00
CC00
CC00
CC00
CC00
CF80
CF80
C000
C000
FF80
FF80
ENDCHAR
STARTCHAR 255B
ENCODING 9563
SWIDTH 668 0
DWIDTH 13 0
BBX 8 14 0 3
BITMAP
03
03
03
03
03
03
03
03
FF
FF
03
03
FF
FF
ENDCHAR
STARTCHAR 255C
ENCODING 9564
SWIDTH 668 0
DWIDTH 13 0
BBX 10 12 0 5
BITMAP
0CC0
0CC0
0CC0
0CC0
0CC0
0CC0
0CC0
0CC0
0CC0
0CC0
FFC0
FFC0
ENDCHAR
STARTCHAR 255D
ENCODING 9565
SWIDTH 668 0
DWIDTH 13 0
BBX 10 14 0 3
BITMAP
0CC0
0CC0
0CC0
0CC0
0CC0
0CC0
0CC0
0CC0
FCC0
FCC0
00C0
00C0
FFC0
FFC0
ENDCHAR
STARTCHAR 255E
ENCODING 9566
SWIDTH 668 0
DWIDTH 13 0
BBX 7 23 6 -6
BITMAP
C0
C0
C0
C0
C0
C0
C0
C0
FE
FE
C0
C0
FE
FE
C0
C0
C0
C0
C0
C0
C0
C0
C0
ENDCHAR
STARTCHAR 255F
ENCODING 9567
SWIDTH 668 0
DWIDTH 13 0
BBX 9 23 4 -6
BITMAP
CC00
CC00
CC00
CC00
CC00
CC00
CC00
CC00
CC00
CC00
CF80
CF80
CC00
CC00
CC00
CC00
CC00
CC00
CC00
CC00
CC00
CC00
CC00
ENDCHAR
STARTCHAR 2560
ENCODING 9568
SWIDTH 668 0
DWIDTH 13 0
BBX 9 23 4 -6
BITMAP
CC00
CC00
CC00
CC00
CC00
CC00
CC00
CC00
CF80
CF80
C000
C000
CF80
CF80
CC00
CC00
CC00
CC00
CC00
CC00
CC00
CC00
CC00
ENDCHAR
STARTCHAR 2561
ENCODING 9569
SWIDTH 668 0
DWIDTH 13 0
BBX 8 23 0 -6
BITMAP
03
03
03
03
03
03
03
03
FF
FF
03
03
FF
FF
03
03
03
03
03
03
03
03
03
ENDCHAR
STARTCHAR 2562
ENCODING 9570
SWIDTH 668 0
DWIDTH 13 0
BBX 10 23 0 -6
BITMAP
0CC0
0CC0
0CC0
0CC0
0CC0
0CC0
0CC0
0CC0
0CC0
0CC0
FCC0
FCC0
0CC0
0CC0
0CC0
0CC0
0CC0
0CC0
0CC0
0CC0
0CC0
0CC0
0CC0
ENDCHAR
STARTCHAR 2563
ENCODING 9571
SWIDTH 668 0
DWIDTH 13 0
BBX 10 23 0 -6
BITMAP
0CC0
0CC0
0CC0
0CC0
0CC0
0CC0
0CC0
0CC0
FCC0
FCC0
00C0
00C0
FCC0
FCC0
0CC0
0CC0
0CC0
0CC0
0CC0
0CC0
0CC0
0CC0
0CC0
ENDCHAR
STARTCHAR 2564
ENCODING 9572
SWIDTH 668 0
DWIDTH 13 0
BBX 13 15 0 -6
BITMAP
FFF8
FFF8
0000
0000
FFF8
FFF8
0300
0300
0300
0300
0300
0300
0300
0300
0300
ENDCHAR
STARTCHAR 2565
ENCODING 9573
SWIDTH 668 0
DWIDTH 13 0
BBX 13 13 0 -6
BITMAP
FFF8
FFF8
0CC0
0CC0
0CC0
0CC0
0CC0
0CC0
0CC0
0CC0
0CC0
0CC0
0CC0
ENDCHAR
STARTCHAR 2566
ENCODING 9574
SWIDTH 668 0
DWIDTH 13 0
BBX 13 15 0 -6
BITMAP
FFF8
FFF8
0000
0000
FCF8
FCF8
0CC0
0CC0
0CC0
0CC0
0CC0
0CC0
0CC0
0CC0
0CC0
ENDCHAR
STARTCHAR 2567
ENCODING 9575
SWIDTH 668 0
DWIDTH 13 0
BBX 13 14 0 3
BITMAP
0300
0300
0300
0300
0300
0300
0300
0300
FFF8
FFF8
0000
0000
FFF8
FFF8
ENDCHAR
STARTCHAR 2568
ENCODING 9576
SWIDTH 668 0
DWIDTH 13 0
BBX 13 12 0 5
BITMAP
0CC0
0CC0
0CC0
0CC0
0CC0
0CC0
0CC0
0CC0
0CC0
0CC0
FFF8
FFF8
ENDCHAR
STARTCHAR 2569
ENCODING 9577
SWIDTH 668 0
DWIDTH 13 0
BBX 13 14 0 3
BITMAP
0CC0
0CC0
0CC0
0CC0
0CC0
0CC0
0CC0
0CC0
FCF8
FCF8
0000
0000
FFF8
FFF8
ENDCHAR
STARTCHAR 256A
ENCODING 9578
SWIDTH 668 0
DWIDTH 13 0
BBX 13 23 0 -6
BITMAP
0300
0300
0300
0300
0300
0300
0300
0300
FFF8
FFF8
0300
0300
FFF8
FFF8
0300
0300
0300
0300
0300
0300
0300
0300
0300
ENDCHAR
STARTCHAR 256B
ENCODING 9579
SWIDTH 668 0
DWIDTH 13 0
BBX 13 23 0 -6
BITMAP
0CC0
0CC0
0CC0
0CC0
0CC0
0CC0
0CC0
0CC0
0CC0
0CC0
FFF8
FFF8
0CC0
0CC0
0CC0
0CC0
0CC0
0CC0
0CC0
0CC0
0CC0
0CC0
0CC0
ENDCHAR
STARTCHAR 256C
ENCODING 9580
SWIDTH 668 0
DWIDTH 13 0
BBX 13 23 0 -6
BITMAP
0CC0
0CC0
0CC0
0CC0
0CC0
0CC0
0CC0
0CC0
FCF8
FCF8
0000
0000
FCF8
FCF8
0CC0
0CC0
0CC0
0CC0
0CC0
0CC0
0CC0
0CC0
0CC0
ENDCHAR
STARTCHAR 2580
ENCODING 9600
SWIDTH 668 0
DWIDTH 13 0
BBX 13 12 0 5
BITMAP
FFF8
FFF8
FFF8
FFF8
FFF8
FFF8
FFF8
FFF8
FFF8
FFF8
FFF8
FFF8
ENDCHAR
STARTCHAR 2584
ENCODING 9604
SWIDTH 668 0
DWIDTH 13 0
BBX 13 12 0 -6
BITMAP
FFF8
FFF8
FFF8
FFF8
FFF8
FFF8
FFF8
FFF8
FFF8
FFF8
FFF8
FFF8
ENDCHAR
STARTCHAR 2588
ENCODING 9608
SWIDTH 668 0
DWIDTH 13 0
BBX 13 23 0 -6
BITMAP
FFF8
FFF8
FFF8
FFF8
FFF8
FFF8
FFF8
FFF8
FFF8
FFF8
FFF8
FFF8
FFF8
FFF8
FFF8
FFF8
FFF8
FFF8
FFF8
FFF8
FFF8
FFF8
FFF8
ENDCHAR
STARTCHAR 258C
ENCODING 9612
SWIDTH 668 0
DWIDTH 13 0
BBX 6 23 0 -6
BITMAP
FC
FC
FC
FC
FC
FC
FC
FC
FC
FC
FC
FC
FC
FC
FC
FC
FC
FC
FC
FC
FC
FC
FC
ENDCHAR
STARTCHAR 2590
ENCODING 9616
SWIDTH 668 0
DWIDTH 13 0
BBX 6 23 7 -6
BITMAP
FC
FC
FC
FC
FC
FC
FC
FC
FC
FC
FC
FC
FC
FC
FC
FC
FC
FC
FC
FC
FC
FC
FC
ENDCHAR
STARTCHAR 2591
ENCODING 9617
SWIDTH 617 0
DWIDTH 12 0
BBX 11 19 1 -5
BITMAP
8880
0000
2220
0000
8880
0000
2220
0000
8880
0000
2220
0000
8880
0000
2220
0000
8880
0000
2220
ENDCHAR
STARTCHAR 2592
ENCODING 9618
SWIDTH 617 0
DWIDTH 12 0
BBX 12 19 0 -5
BITMAP
5550
0000
AAA0
0000
5550
0000
AAA0
0000
5550
0000
AAA0
0000
5550
0000
AAA0
0000
5550
0000
AAA0
ENDCHAR
STARTCHAR 2593
ENCODING 9619
SWIDTH 617 0
DWIDTH 12 0
BBX 12 20 0 -6
BITMAP
5550
FFF0
AAA0
FFF0
5550
FFF0
AAA0
FFF0
5550
FFF0
AAA0
FFF0
5550
FFF0
AAA0
FFF0
5550
FFF0
AAA0
FFF0
ENDCHAR
STARTCHAR 25A0
ENCODING 9632
SWIDTH 617 0
DWIDTH 12 0
BBX 9 9 1 0
BITMAP
FF80
FF80
FF80
FF80
FF80
FF80
FF80
FF80
FF80
ENDCHAR
STARTCHAR 25A1
ENCODING 9633
SWIDTH 565 0
DWIDTH 11 0
BBX 9 9 1 0
BITMAP
FF80
8080
8080
8080
8080
8080
8080
8080
FF80
ENDCHAR
STARTCHAR 25AA
ENCODING 9642
SWIDTH 308 0
DWIDTH 6 0
BBX 4 4 1 4
BITMAP
F0
F0
F0
F0
ENDCHAR
STARTCHAR 25AB
ENCODING 9643
SWIDTH 308 0
DWIDTH 6 0
BBX 4 4 1 4
BITMAP
F0
90
90
F0
ENDCHAR
STARTCHAR 25AC
ENCODING 9644
SWIDTH 977 0
DWIDTH 19 0
BBX 19 4 0 3
BITMAP
FFFFE0
FFFFE0
FFFFE0
FFFFE0
ENDCHAR
STARTCHAR 25B2
ENCODING 9650
SWIDTH 977 0
DWIDTH 19 0
BBX 13 13 3 0
BITMAP
0200
0200
0700
0700
0F80
0F80
1FC0
1FC0
3FE0
3FE0
7FF0
7FF0
FFF8
ENDCHAR
STARTCHAR 25BA
ENCODING 9658
SWIDTH 977 0
DWIDTH 19 0
BBX 13 13 2 0
BITMAP
8000
E000
F800
FE00
FF80
FFE0
FFF8
FFE0
FF80
FE00
F800
E000
8000
ENDCHAR
STARTCHAR 25BC
ENCODING 9660
SWIDTH 977 0
DWIDTH 19 0
BBX 13 13 3 0
BITMAP
FFF8
7FF0
7FF0
3FE0
3FE0
1FC0
1FC0
0F80
0F80
0700
0700
0200
0200
ENDCHAR
STARTCHAR 25C4
ENCODING 9668
SWIDTH 977 0
DWIDTH 19 0
BBX 13 13 2 0
BITMAP
0008
0038
00F8
03F8
0FF8
3FF8
FFF8
3FF8
0FF8
03F8
00F8
0038
0008
ENDCHAR
STARTCHAR 25CA
ENCODING 9674
SWIDTH 462 0
DWIDTH 9 0
BBX 9 13 0 0
BITMAP
0800
1400
2200
2200
4100
4100
8080
4100
4100
2200
2200
1400
0800
ENDCHAR
STARTCHAR 25CB
ENCODING 9675
SWIDTH 565 0
DWIDTH 11 0
BBX 8 8 2 1
BITMAP
3C
42
81
81
81
81
42
3C
ENDCHAR
STARTCHAR 25CF
ENCODING 9679
SWIDTH 617 0
DWIDTH 12 0
BBX 8 8 2 1
BITMAP
3C
7E
FF
FF
FF
FF
7E
3C
ENDCHAR
STARTCHAR 25D8
ENCODING 9688
SWIDTH 617 0
DWIDTH 12 0
BBX 9 9 1 0
BITMAP
FF80
FF80
E380
C180
C180
C180
E380
FF80
FF80
ENDCHAR
STARTCHAR 25D9
ENCODING 9689
SWIDTH 565 0
DWIDTH 11 0
BBX 11 11 0 0
BITMAP
FFE0
E0E0
CE60
9F20
BFA0
BFA0
BFA0
9F20
CE60
E0E0
FFE0
ENDCHAR
STARTCHAR 25E6
ENCODING 9702
SWIDTH 360 0
DWIDTH 7 0
BBX 5 5 1 4
BITMAP
70
88
88
88
70
ENDCHAR
STARTCHAR 263A
ENCODING 9786
SWIDTH 977 0
DWIDTH 19 0
BBX 12 12 4 -1
BITMAP
0F00
30C0
4020
4020
9990
9990
8010
8010
50A0
4F20
30C0
0F00
ENDCHAR
STARTCHAR 263B
ENCODING 9787
SWIDTH 1028 0
DWIDTH 20 0
BBX 12 12 4 -1
BITMAP
0F00
3FC0
7FE0
7FE0
E670
E670
FFF0
FFF0
6F60
70E0
3FC0
0F00
ENDCHAR
STARTCHAR 263C
ENCODING 9788
SWIDTH 874 0
DWIDTH 17 0
BBX 17 17 0 -2
BITMAP
008000
008000
208200
13E400
0C1800
080800
100400
100400
F00780
100400
100400
080800
0C1800
13E400
208200
008000
008000
ENDCHAR
STARTCHAR 2640
ENCODING 9792
SWIDTH 720 0
DWIDTH 14 0
BBX 10 19 2 -4
BITMAP
1E00
6180
4080
8040
8040
8040
8040
4080
6180
1F00
0400
0400
0400
0400
7FC0
0400
0400
0400
0400
ENDCHAR
STARTCHAR 2642
ENCODING 9794
SWIDTH 720 0
DWIDTH 14 0
BBX 13 18 1 -3
BITMAP
0060
01A0
0650
0050
0090
0088
0108
0100
1E00
6100
4080
8040
8040
8040
8040
4080
6180
1E00
ENDCHAR
STARTCHAR 2660
ENCODING 9824
SWIDTH 514 0
DWIDTH 10 0
BBX 9 12 0 0
BITMAP
0800
0800
1C00
3E00
7F00
FF80
FF80
FF80
7F00
0800
1C00
7F00
ENDCHAR
STARTCHAR 2663
ENCODING 9827
SWIDTH 771 0
DWIDTH 15 0
BBX 13 11 1 0
BITMAP
0700
0F80
0F80
0F80
7770
FFF8
FFF8
7270
0700
0F80
3FE0
ENDCHAR
STARTCHAR 2665
ENCODING 9829
SWIDTH 565 0
DWIDTH 11 0
BBX 11 11 0 1
BITMAP
71C0
FBE0
FFE0
FFE0
7FC0
7FC0
3F80
1F00
0E00
0400
0400
ENDCHAR
STARTCHAR 2666
ENCODING 9830
SWIDTH 514 0
DWIDTH 10 0
BBX 9 11 0 0
BITMAP
0800
1C00
1C00
3E00
7F00
FF80
7F00
3E00
1C00
1C00
0800
ENDCHAR
STARTCHAR 266A
ENCODING 9834
SWIDTH 514 0
DWIDTH 10 0
BBX 8 13 1 0
BITMAP
0E
0F
0B
09
09
08
08
08
08
78
F8
F8
70
ENDCHAR
STARTCHAR 266B
ENCODING 9835
SWIDTH 720 0
DWIDTH 14 0
BBX 11 15 1 -1
BITMAP
0060
03E0
0FA0
0C20
0820
0820
0820
0820
0820
09E0
0BE0
7BE0
F9C0
F800
7000
ENDCHAR
STARTCHAR E801
ENCODING 59393
SWIDTH 257 0
DWIDTH 5 0
BBX 4 13 0 0
BITMAP
80
00
40
70
70
10
10
10
10
10
10
10
10
ENDCHAR
STARTCHAR E802
ENCODING 59394
SWIDTH 462 0
DWIDTH 9 0
BBX 7 14 1 -3
BITMAP
80
FE
FE
02
02
02
22
02
22
02
02
02
02
02
ENDCHAR
STARTCHAR E803
ENCODING 59395
SWIDTH 462 0
DWIDTH 9 0
BBX 7 14 1 -3
BITMAP
80
FE
FE
02
02
02
02
7A
22
22
02
02
02
02
ENDCHAR
STARTCHAR E804
ENCODING 59396
SWIDTH 411 0
DWIDTH 8 0
BBX 8 14 -1 0
BITMAP
40
20
A0
20
3F
3F
01
01
01
02
04
08
08
08
ENDCHAR
STARTCHAR E805
ENCODING 59397
SWIDTH 411 0
DWIDTH 8 0
BBX 8 14 -1 0
BITMAP
40
20
A0
20
3F
3F
01
01
11
02
04
08
08
08
ENDCHAR
STARTCHAR E818
ENCODING 59416
SWIDTH 205 0
DWIDTH 4 0
BBX 5 7 0 12
BITMAP
10
60
10
60
28
B8
C0
ENDCHAR
STARTCHAR E83A
ENCODING 59450
SWIDTH 617 0
DWIDTH 12 0
BBX 13 2 -1 3
BITMAP
FFF8
FFF8
ENDCHAR
STARTCHAR F001
ENCODING 61441
SWIDTH 514 0
DWIDTH 10 0
BBX 10 13 0 0
BITMAP
0F00
1180
3000
3000
FF80
3180
3180
3180
3180
3180
3180
3180
7BC0
ENDCHAR
STARTCHAR F002
ENCODING 61442
SWIDTH 514 0
DWIDTH 10 0
BBX 10 13 0 0
BITMAP
1C80
1380
3180
3180
FF80
3180
3180
3180
3180
3180
3180
3180
7BC0
ENDCHAR
STARTCHAR F004
ENCODING 61444
SWIDTH 308 0
DWIDTH 6 0
BBX 2 4 2 -5
BITMAP
C0
C0
40
80
ENDCHAR
STARTCHAR F005
ENCODING 61445
SWIDTH 308 0
DWIDTH 6 0
BBX 3 4 1 -5
BITMAP
60
20
20
C0
ENDCHAR
STARTCHAR F006
ENCODING 61446
SWIDTH 0 0
DWIDTH 0 0
BBX 2 2 -5 14
BITMAP
40
80
ENDCHAR
STARTCHAR F007
ENCODING 61447
SWIDTH 0 0
DWIDTH 0 0
BBX 3 2 -8 14
BITMAP
60
80
ENDCHAR
STARTCHAR F008
ENCODING 61448
SWIDTH 0 0
DWIDTH 0 0
BBX 3 3 -4 10
BITMAP
60
C0
80
ENDCHAR
STARTCHAR F009
ENCODING 61449
SWIDTH 0 0
DWIDTH 0 0
BBX 2 2 -5 14
BITMAP
40
80
ENDCHAR
STARTCHAR F00A
ENCODING 61450
SWIDTH 720 0
DWIDTH 14 0
BBX 10 12 2 0
BITMAP
FFC0
8040
8040
8040
8040
8040
8040
8040
8040
8040
8040
8040
ENDCHAR
STARTCHAR F00B
ENCODING 61451
SWIDTH 720 0
DWIDTH 14 0
BBX 10 12 2 0
BITMAP
FFC0
8040
8040
8040
8040
8040
8040
8040
8040
8040
8040
8040
ENDCHAR
STARTCHAR F00C
ENCODING 61452
SWIDTH 720 0
DWIDTH 14 0
BBX 10 12 2 0
BITMAP
FFC0
8040
8040
8040
8040
8040
8040
8040
8040
8040
8040
8040
ENDCHAR
STARTCHAR F00D
ENCODING 61453
SWIDTH 720 0
DWIDTH 14 0
BBX 10 12 2 0
BITMAP
FFC0
8040
8040
8040
8040
8040
8040
8040
8040
8040
8040
8040
ENDCHAR
STARTCHAR F00E
ENCODING 61454
SWIDTH 720 0
DWIDTH 14 0
BBX 10 12 2 0
BITMAP
FFC0
8040
8040
8040
8040
8040
8040
8040
8040
8040
8040
8040
ENDCHAR
STARTCHAR F00F
ENCODING 61455
SWIDTH 0 0
DWIDTH 0 0
BBX 3 3 -6 10
BITMAP
C0
40
20
ENDCHAR
STARTCHAR F010
ENCODING 61456
SWIDTH 0 0
DWIDTH 0 0
BBX 3 1 -4 15
BITMAP
E0
ENDCHAR
STARTCHAR F011
ENCODING 61457
SWIDTH 0 0
DWIDTH 0 0
BBX 3 1 -8 15
BITMAP
E0
ENDCHAR
STARTCHAR F012
ENCODING 61458
SWIDTH 0 0
DWIDTH 0 0
BBX 3 3 -4 10
BITMAP
E0
20
40
ENDCHAR
STARTCHAR F013
ENCODING 61459
SWIDTH 0 0
DWIDTH 0 0
BBX 3 3 -5 13
BITMAP
E0
20
40
ENDCHAR
STARTCHAR F014
ENCODING 61460
SWIDTH 0 0
DWIDTH 0 0
BBX 3 3 -5 10
BITMAP
E0
20
40
ENDCHAR
STARTCHAR F015
ENCODING 61461
SWIDTH 0 0
DWIDTH 0 0
BBX 7 2 -10 14
BITMAP
72
8C
ENDCHAR
STARTCHAR F016
ENCODING 61462
SWIDTH 0 0
DWIDTH 0 0
BBX 7 2 -11 15
BITMAP
72
8C
ENDCHAR
STARTCHAR F017
ENCODING 61463
SWIDTH 0 0
DWIDTH 0 0
BBX 7 2 -11 15
BITMAP
72
8C
ENDCHAR
STARTCHAR F018
ENCODING 61464
SWIDTH 0 0
DWIDTH 0 0
BBX 7 2 -12 15
BITMAP
72
8C
ENDCHAR
STARTCHAR F019
ENCODING 61465
SWIDTH 0 0
DWIDTH 0 0
BBX 7 2 -7 11
BITMAP
72
8C
ENDCHAR
STARTCHAR F01A
ENCODING 61466
SWIDTH 0 0
DWIDTH 0 0
BBX 7 2 -8 11
BITMAP
72
8C
ENDCHAR
STARTCHAR F01B
ENCODING 61467
SWIDTH 0 0
DWIDTH 0 0
BBX 7 2 -9 11
BITMAP
72
8C
ENDCHAR
STARTCHAR F01C
ENCODING 61468
SWIDTH 0 0
DWIDTH 0 0
BBX 7 2 -7 15
BITMAP
72
8C
ENDCHAR
STARTCHAR F01D
ENCODING 61469
SWIDTH 0 0
DWIDTH 0 0
BBX 7 2 -5 11
BITMAP
72
8C
ENDCHAR
STARTCHAR F01E
ENCODING 61470
SWIDTH 0 0
DWIDTH 0 0
BBX 2 2 -6 -3
BITMAP
C0
C0
ENDCHAR
STARTCHAR F01F
ENCODING 61471
SWIDTH 0 0
DWIDTH 0 0
BBX 2 2 -8 -3
BITMAP
C0
C0
ENDCHAR
STARTCHAR F020
ENCODING 61472
SWIDTH 0 0
DWIDTH 0 0
BBX 2 2 -8 -3
BITMAP
C0
C0
ENDCHAR
STARTCHAR F021
ENCODING 61473
SWIDTH 0 0
DWIDTH 0 0
BBX 2 2 -8 -3
BITMAP
C0
C0
ENDCHAR
STARTCHAR F022
ENCODING 61474
SWIDTH 0 0
DWIDTH 0 0
BBX 2 2 -9 -3
BITMAP
C0
C0
ENDCHAR
STARTCHAR F023
ENCODING 61475
SWIDTH 0 0
DWIDTH 0 0
BBX 2 2 -5 -3
BITMAP
C0
C0
ENDCHAR
STARTCHAR F024
ENCODING 61476
SWIDTH 0 0
DWIDTH 0 0
BBX 2 2 -5 -3
BITMAP
C0
C0
ENDCHAR
STARTCHAR F025
ENCODING 61477
SWIDTH 0 0
DWIDTH 0 0
BBX 2 2 -6 -3
BITMAP
C0
C0
ENDCHAR
STARTCHAR F026
ENCODING 61478
SWIDTH 0 0
DWIDTH 0 0
BBX 2 2 -6 -3
BITMAP
C0
C0
ENDCHAR
STARTCHAR F027
ENCODING 61479
SWIDTH 0 0
DWIDTH 0 0
BBX 2 2 -5 -3
BITMAP
C0
C0
ENDCHAR
STARTCHAR F028
ENCODING 61480
SWIDTH 0 0
DWIDTH 0 0
BBX 2 2 -6 -3
BITMAP
C0
C0
ENDCHAR
STARTCHAR F029
ENCODING 61481
SWIDTH 0 0
DWIDTH 0 0
BBX 2 2 -4 -3
BITMAP
C0
C0
ENDCHAR
STARTCHAR F02A
ENCODING 61482
SWIDTH 0 0
DWIDTH 0 0
BBX 2 2 -4 -3
BITMAP
C0
C0
ENDCHAR
STARTCHAR F02B
ENCODING 61483
SWIDTH 0 0
DWIDTH 0 0
BBX 2 2 -7 -3
BITMAP
C0
C0
ENDCHAR
STARTCHAR F02C
ENCODING 61484
SWIDTH 0 0
DWIDTH 0 0
BBX 2 2 -3 -3
BITMAP
C0
C0
ENDCHAR
STARTCHAR F02D
ENCODING 61485
SWIDTH 0 0
DWIDTH 0 0
BBX 7 2 -9 15
BITMAP
72
8C
ENDCHAR
STARTCHAR F02E
ENCODING 61486
SWIDTH 0 0
DWIDTH 0 0
BBX 7 2 -9 15
BITMAP
72
8C
ENDCHAR
STARTCHAR F02F
ENCODING 61487
SWIDTH 0 0
DWIDTH 0 0
BBX 7 2 -10 15
BITMAP
72
8C
ENDCHAR
STARTCHAR F030
ENCODING 61488
SWIDTH 0 0
DWIDTH 0 0
BBX 7 2 -11 15
BITMAP
72
8C
ENDCHAR
STARTCHAR F031
ENCODING 61489
SWIDTH 205 0
DWIDTH 4 0
BBX 4 9 0 0
BITMAP
60
E0
60
60
60
60
60
60
F0
ENDCHAR
STARTCHAR FB01
ENCODING 64257
SWIDTH 514 0
DWIDTH 10 0
BBX 10 13 0 0
BITMAP
0F00
1180
3000
3000
FF80
3180
3180
3180
3180
3180
3180
3180
7BC0
ENDCHAR
STARTCHAR FB02
ENCODING 64258
SWIDTH 514 0
DWIDTH 10 0
BBX 10 13 0 0
BITMAP
1C80
1380
3180
3180
FF80
3180
3180
3180
3180
3180
3180
3180
7BC0
ENDCHAR
STARTCHAR FB1D
ENCODING 64285
SWIDTH 257 0
DWIDTH 5 0
BBX 3 9 1 2
BITMAP
80
E0
E0
20
20
40
00
00
40
ENDCHAR
STARTCHAR FB1E
ENCODING 64286
SWIDTH 0 0
DWIDTH 0 0
BBX 7 2 -3 12
BITMAP
82
7C
ENDCHAR
STARTCHAR FB1F
ENCODING 64287
SWIDTH 514 0
DWIDTH 10 0
BBX 9 8 1 3
BITMAP
8400
F700
F700
1100
1100
2200
0000
3F80
ENDCHAR
STARTCHAR FB20
ENCODING 64288
SWIDTH 462 0
DWIDTH 9 0
BBX 7 11 1 0
BITMAP
88
EE
EE
42
44
64
24
24
2C
F8
F8
ENDCHAR
STARTCHAR FB2A
ENCODING 64298
SWIDTH 617 0
DWIDTH 12 0
BBX 10 13 1 0
BITMAP
0080
0000
8900
EDC0
EDC0
4440
4480
4880
4880
4900
7100
3E00
3E00
ENDCHAR
STARTCHAR FB2B
ENCODING 64299
SWIDTH 617 0
DWIDTH 12 0
BBX 10 13 1 0
BITMAP
4000
0000
8900
EDC0
EDC0
4440
4480
4880
4880
4900
7100
3E00
3E00
ENDCHAR
STARTCHAR FB2C
ENCODING 64300
SWIDTH 617 0
DWIDTH 12 0
BBX 10 13 1 0
BITMAP
0080
0000
8900
EDC0
EDC0
4440
4480
4880
4A80
4900
7100
3E00
3E00
ENDCHAR
STARTCHAR FB2D
ENCODING 64301
SWIDTH 617 0
DWIDTH 12 0
BBX 10 13 1 0
BITMAP
4000
0000
8900
EDC0
EDC0
4440
4480
4880
4A80
4900
7100
3E00
3E00
ENDCHAR
STARTCHAR FB2E
ENCODING 64302
SWIDTH 462 0
DWIDTH 9 0
BBX 7 14 1 -3
BITMAP
88
8E
CE
64
68
78
98
CC
C6
66
E2
00
00
3C
ENDCHAR
STARTCHAR FB2F
ENCODING 64303
SWIDTH 462 0
DWIDTH 9 0
BBX 7 16 1 -5
BITMAP
88
8E
CE
64
68
78
98
CC
C6
66
E2
00
00
3C
10
10
ENDCHAR
STARTCHAR FB30
ENCODING 64304
SWIDTH 462 0
DWIDTH 9 0
BBX 7 11 1 0
BITMAP
88
8E
CE
64
68
78
98
8C
C6
56
C2
ENDCHAR
STARTCHAR FB31
ENCODING 64305
SWIDTH 462 0
DWIDTH 9 0
BBX 8 11 1 0
BITMAP
80
FC
FE
02
02
22
02
02
04
FF
FF
ENDCHAR
STARTCHAR FB32
ENCODING 64306
SWIDTH 308 0
DWIDTH 6 0
BBX 6 11 0 0
BITMAP
40
78
78
08
08
48
08
0C
1C
E4
E4
ENDCHAR
STARTCHAR FB33
ENCODING 64307
SWIDTH 411 0
DWIDTH 8 0
BBX 6 11 1 0
BITMAP
80
FC
FC
08
08
28
08
08
08
08
08
ENDCHAR
STARTCHAR FB34
ENCODING 64308
SWIDTH 462 0
DWIDTH 9 0
BBX 7 11 1 0
BITMAP
80
FE
FE
04
04
24
04
84
84
84
84
ENDCHAR
STARTCHAR FB35
ENCODING 64309
SWIDTH 257 0
DWIDTH 5 0
BBX 3 11 1 0
BITMAP
80
E0
E0
20
20
A0
20
20
20
20
20
ENDCHAR
STARTCHAR FB36
ENCODING 64310
SWIDTH 308 0
DWIDTH 6 0
BBX 5 11 0 0
BITMAP
40
78
78
20
20
A0
20
20
20
20
20
ENDCHAR
STARTCHAR FB38
ENCODING 64312
SWIDTH 462 0
DWIDTH 9 0
BBX 7 11 1 0
BITMAP
80
E4
EE
4A
42
4A
42
42
24
3C
3C
ENDCHAR
STARTCHAR FB39
ENCODING 64313
SWIDTH 257 0
DWIDTH 5 0
BBX 3 6 1 5
BITMAP
80
E0
E0
20
A0
40
ENDCHAR
STARTCHAR FB3A
ENCODING 64314
SWIDTH 462 0
DWIDTH 9 0
BBX 7 14 1 -3
BITMAP
80
FE
FE
02
02
22
02
02
02
02
02
02
02
02
ENDCHAR
STARTCHAR FB3B
ENCODING 64315
SWIDTH 411 0
DWIDTH 8 0
BBX 6 11 1 0
BITMAP
80
F8
FC
0C
04
24
04
04
0C
FC
F8
ENDCHAR
STARTCHAR FB3C
ENCODING 64316
SWIDTH 411 0
DWIDTH 8 0
BBX 7 14 0 0
BITMAP
80
40
40
40
7E
7E
02
02
12
04
08
10
10
10
ENDCHAR
STARTCHAR FB3E
ENCODING 64318
SWIDTH 462 0
DWIDTH 9 0
BBX 7 11 1 0
BITMAP
80
E8
EC
36
42
4A
82
82
82
BC
BC
ENDCHAR
STARTCHAR FB40
ENCODING 64320
SWIDTH 308 0
DWIDTH 6 0
BBX 5 11 0 0
BITMAP
40
78
78
08
08
48
08
08
08
F8
F8
ENDCHAR
STARTCHAR FB41
ENCODING 64321
SWIDTH 462 0
DWIDTH 9 0
BBX 7 11 1 0
BITMAP
80
F8
FC
46
82
92
82
82
C6
7C
38
ENDCHAR
STARTCHAR FB43
ENCODING 64323
SWIDTH 462 0
DWIDTH 9 0
BBX 7 14 1 -3
BITMAP
80
FC
7E
42
82
EA
E2
02
02
02
02
02
02
02
ENDCHAR
STARTCHAR FB44
ENCODING 64324
SWIDTH 411 0
DWIDTH 8 0
BBX 6 11 1 0
BITMAP
80
F8
F8
84
84
D4
04
04
0C
FC
F8
ENDCHAR
STARTCHAR FB46
ENCODING 64326
SWIDTH 462 0
DWIDTH 9 0
BBX 7 11 1 0
BITMAP
88
EE
EE
24
28
A8
18
0C
06
FE
FE
ENDCHAR
STARTCHAR FB47
ENCODING 64327
SWIDTH 462 0
DWIDTH 9 0
BBX 7 14 1 -3
BITMAP
80
FC
FE
02
02
92
84
88
90
A0
A0
80
80
80
ENDCHAR
STARTCHAR FB48
ENCODING 64328
SWIDTH 462 0
DWIDTH 9 0
BBX 7 11 1 0
BITMAP
80
FC
FE
02
02
22
02
02
02
02
02
ENDCHAR
STARTCHAR FB49
ENCODING 64329
SWIDTH 617 0
DWIDTH 12 0
BBX 10 11 1 0
BITMAP
8900
EDC0
EDC0
4440
4480
4880
4A80
4900
7100
3E00
3E00
ENDCHAR
STARTCHAR FB4A
ENCODING 64330
SWIDTH 514 0
DWIDTH 10 0
BBX 9 11 0 0
BITMAP
4000
7F00
7F80
1080
2080
2480
2080
2080
2080
E080
E080
ENDCHAR
STARTCHAR FB4B
ENCODING 64331
SWIDTH 257 0
DWIDTH 5 0
BBX 3 13 1 0
BITMAP
40
00
80
E0
E0
20
20
20
20
20
20
20
20
ENDCHAR
STARTCHAR FB4C
ENCODING 64332
SWIDTH 462 0
DWIDTH 9 0
BBX 8 13 1 0
BITMAP
3C
00
80
FC
FE
02
02
02
02
02
04
FF
FF
ENDCHAR
STARTCHAR FB4D
ENCODING 64333
SWIDTH 411 0
DWIDTH 8 0
BBX 6 14 1 0
BITMAP
78
00
00
80
F8
FC
0C
04
04
04
04
0C
FC
F8
ENDCHAR
STARTCHAR FB4E
ENCODING 64334
SWIDTH 411 0
DWIDTH 8 0
BBX 6 13 1 0
BITMAP
78
00
80
F8
F8
84
C4
E4
04
04
0C
FC
F8
ENDCHAR
STARTCHAR FB4F
ENCODING 64335
SWIDTH 514 0
DWIDTH 10 0
BBX 9 14 0 0
BITMAP
C000
4000
4000
4200
7380
7380
1900
0E00
1600
2600
3300
3180
1980
3880
ENDCHAR
STARTCHAR FB50
ENCODING 64336
SWIDTH 205 0
DWIDTH 4 0
BBX 4 15 0 2
BITMAP
30
F0
80
20
20
20
20
20
20
20
20
20
20
20
20
ENDCHAR
STARTCHAR FB51
ENCODING 64337
SWIDTH 205 0
DWIDTH 4 0
BBX 4 14 0 3
BITMAP
30
F0
80
40
C0
C0
40
40
40
40
40
40
70
30
ENDCHAR
STARTCHAR FB52
ENCODING 64338
SWIDTH 720 0
DWIDTH 14 0
BBX 13 11 1 -2
BITMAP
4010
8018
8008
C008
FFF8
3FF8
0000
0300
0300
0180
0180
ENDCHAR
STARTCHAR FB53
ENCODING 64339
SWIDTH 720 0
DWIDTH 14 0
BBX 13 11 1 -2
BITMAP
4010
8018
8008
C008
FFF8
3FF8
0000
0300
0300
0180
0180
ENDCHAR
STARTCHAR FB54
ENCODING 64340
SWIDTH 257 0
DWIDTH 5 0
BBX 6 11 -1 -2
BITMAP
08
0C
04
04
FC
FC
00
30
30
18
18
ENDCHAR
STARTCHAR FB55
ENCODING 64341
SWIDTH 257 0
DWIDTH 5 0
BBX 6 11 -1 -2
BITMAP
08
0C
04
04
FC
FC
00
30
30
18
18
ENDCHAR
STARTCHAR FB56
ENCODING 64342
SWIDTH 720 0
DWIDTH 14 0
BBX 13 11 1 -2
BITMAP
4010
8018
8008
C008
FFF8
3FF8
0000
0180
0500
0680
0180
ENDCHAR
STARTCHAR FB57
ENCODING 64343
SWIDTH 720 0
DWIDTH 14 0
BBX 13 11 1 -2
BITMAP
4010
8018
8008
C008
FFF8
3FF8
0000
0180
0500
0680
0180
ENDCHAR
STARTCHAR FB58
ENCODING 64344
SWIDTH 257 0
DWIDTH 5 0
BBX 6 11 -1 -2
BITMAP
08
0C
04
04
FC
FC
00
18
50
68
18
ENDCHAR
STARTCHAR FB59
ENCODING 64345
SWIDTH 257 0
DWIDTH 5 0
BBX 6 11 -1 -2
BITMAP
08
0C
04
04
FC
FC
00
18
50
68
18
ENDCHAR
STARTCHAR FB5A
ENCODING 64346
SWIDTH 720 0
DWIDTH 14 0
BBX 13 12 1 -3
BITMAP
4010
8018
8008
C008
FFF8
3FF8
0000
0180
0680
0300
0580
0600
ENDCHAR
STARTCHAR FB5B
ENCODING 64347
SWIDTH 720 0
DWIDTH 14 0
BBX 13 12 1 -3
BITMAP
4010
8018
8008
C008
FFF8
3FF8
0000
0180
0680
0300
0580
0600
ENDCHAR
STARTCHAR FB5C
ENCODING 64348
SWIDTH 257 0
DWIDTH 5 0
BBX 6 12 -1 -3
BITMAP
08
0C
04
04
FC
FC
00
18
68
30
58
60
ENDCHAR
STARTCHAR FB5D
ENCODING 64349
SWIDTH 257 0
DWIDTH 5 0
BBX 6 12 -1 -3
BITMAP
08
0C
04
04
FC
FC
00
18
68
30
58
60
ENDCHAR
STARTCHAR FB5E
ENCODING 64350
SWIDTH 720 0
DWIDTH 14 0
BBX 13 11 1 3
BITMAP
0600
0600
0300
0300
0000
4010
8018
8008
C008
FFF8
3FF8
ENDCHAR
STARTCHAR FB5F
ENCODING 64351
SWIDTH 720 0
DWIDTH 14 0
BBX 13 11 1 3
BITMAP
0600
0600
0300
0300
0000
4010
8018
8008
C008
FFF8
3FF8
ENDCHAR
STARTCHAR FB60
ENCODING 64352
SWIDTH 257 0
DWIDTH 5 0
BBX 6 11 -1 3
BITMAP
30
30
18
18
00
08
0C
04
04
FC
FC
ENDCHAR
STARTCHAR FB61
ENCODING 64353
SWIDTH 257 0
DWIDTH 5 0
BBX 6 11 -1 3
BITMAP
30
30
18
18
00
08
0C
04
04
FC
FC
ENDCHAR
STARTCHAR FB62
ENCODING 64354
SWIDTH 720 0
DWIDTH 14 0
BBX 13 12 1 3
BITMAP
0300
0D00
0600
0B00
0C00
0000
4010
8018
8008
C008
FFF8
3FF8
ENDCHAR
STARTCHAR FB63
ENCODING 64355
SWIDTH 720 0
DWIDTH 14 0
BBX 13 12 1 3
BITMAP
0300
0D00
0600
0B00
0C00
0000
4010
8018
8008
C008
FFF8
3FF8
ENDCHAR
STARTCHAR FB64
ENCODING 64356
SWIDTH 257 0
DWIDTH 5 0
BBX 6 11 -1 3
BITMAP
18
68
30
58
60
08
0C
04
04
FC
FC
ENDCHAR
STARTCHAR FB65
ENCODING 64357
SWIDTH 257 0
DWIDTH 5 0
BBX 6 11 -1 3
BITMAP
18
68
30
58
60
08
0C
04
04
FC
FC
ENDCHAR
STARTCHAR FB66
ENCODING 64358
SWIDTH 720 0
DWIDTH 14 0
BBX 13 13 1 3
BITMAP
0600
0400
0400
0580
0680
0F80
0000
4010
8018
8008
C008
FFF8
3FF8
ENDCHAR
STARTCHAR FB67
ENCODING 64359
SWIDTH 720 0
DWIDTH 14 0
BBX 13 13 1 3
BITMAP
0600
0400
0400
0580
0680
0F80
0000
4010
8018
8008
C008
FFF8
3FF8
ENDCHAR
STARTCHAR FB68
ENCODING 64360
SWIDTH 257 0
DWIDTH 5 0
BBX 6 13 -1 3
BITMAP
30
20
20
2C
34
7C
00
08
0C
04
04
FC
FC
ENDCHAR
STARTCHAR FB69
ENCODING 64361
SWIDTH 257 0
DWIDTH 5 0
BBX 6 13 -1 3
BITMAP
30
20
20
2C
34
7C
00
08
0C
04
04
FC
FC
ENDCHAR
STARTCHAR FB6A
ENCODING 64362
SWIDTH 771 0
DWIDTH 15 0
BBX 15 11 0 3
BITMAP
001E
0012
0008
0018
0000
4004
800E
800A
C006
FFFE
3FFE
ENDCHAR
STARTCHAR FB6B
ENCODING 64363
SWIDTH 771 0
DWIDTH 15 0
BBX 15 11 0 3
BITMAP
001E
0012
0008
0018
0000
4004
800E
800A
C006
FFFE
3FFE
ENDCHAR
STARTCHAR FB6C
ENCODING 64364
SWIDTH 257 0
DWIDTH 5 0
BBX 6 12 -1 3
BITMAP
60
58
28
60
18
38
2C
3C
3C
04
FC
FC
ENDCHAR
STARTCHAR FB6D
ENCODING 64365
SWIDTH 257 0
DWIDTH 5 0
BBX 6 12 -1 3
BITMAP
60
58
28
60
18
3C
2C
24
3C
0C
FC
FC
ENDCHAR
STARTCHAR FB6E
ENCODING 64366
SWIDTH 771 0
DWIDTH 15 0
BBX 15 13 0 3
BITMAP
0006
001A
000C
0016
0018
0000
0000
4004
800E
800A
C006
FFFE
3FFE
ENDCHAR
STARTCHAR FB6F
ENCODING 64367
SWIDTH 771 0
DWIDTH 15 0
BBX 15 13 0 3
BITMAP
0006
001A
000C
0016
0018
0000
0000
4004
800E
800A
C006
FFFE
3FFE
ENDCHAR
STARTCHAR FB70
ENCODING 64368
SWIDTH 257 0
DWIDTH 5 0
BBX 6 14 -1 3
BITMAP
18
68
30
58
60
00
18
38
2C
3C
3C
04
FC
FC
ENDCHAR
STARTCHAR FB71
ENCODING 64369
SWIDTH 257 0
DWIDTH 5 0
BBX 6 13 -1 3
BITMAP
18
68
30
58
60
18
3C
2C
24
3C
0C
FC
FC
ENDCHAR
STARTCHAR FB72
ENCODING 64370
SWIDTH 565 0
DWIDTH 11 0
BBX 9 12 1 -4
BITMAP
7F80
FF80
1C00
2000
4000
8C00
8C00
8600
C600
F000
7F80
1F00
ENDCHAR
STARTCHAR FB73
ENCODING 64371
SWIDTH 514 0
DWIDTH 10 0
BBX 9 12 1 -4
BITMAP
7F00
FF00
1C00
2780
4780
B000
B000
9800
D800
E000
7F00
1E00
ENDCHAR
STARTCHAR FB74
ENCODING 64372
SWIDTH 514 0
DWIDTH 10 0
BBX 11 11 -1 -2
BITMAP
1C00
3E00
0700
01C0
FFE0
FFE0
0000
0C00
0C00
0600
0600
ENDCHAR
STARTCHAR FB75
ENCODING 64373
SWIDTH 514 0
DWIDTH 10 0
BBX 11 11 -1 -2
BITMAP
1C00
3E00
0700
01C0
FFE0
FFE0
0000
0C00
0C00
0600
0600
ENDCHAR
STARTCHAR FB76
ENCODING 64374
SWIDTH 565 0
DWIDTH 11 0
BBX 9 12 1 -4
BITMAP
7F80
FF80
1C00
2000
4000
8300
8F00
8C00
C000
F000
7F80
1F00
ENDCHAR
STARTCHAR FB77
ENCODING 64375
SWIDTH 514 0
DWIDTH 10 0
BBX 9 12 1 -4
BITMAP
7F00
FF00
1C00
2780
4380
8C00
BC00
B000
C000
E000
7F00
1E00
ENDCHAR
STARTCHAR FB78
ENCODING 64376
SWIDTH 514 0
DWIDTH 10 0
BBX 11 10 -1 -1
BITMAP
1C00
3E00
0700
01C0
FFE0
FFE0
0000
0300
0F00
0C00
ENDCHAR
STARTCHAR FB79
ENCODING 64377
SWIDTH 514 0
DWIDTH 10 0
BBX 11 10 -1 -1
BITMAP
1C00
3E00
0700
01C0
FFE0
FFE0
0000
0300
0F00
0C00
ENDCHAR
STARTCHAR FB7A
ENCODING 64378
SWIDTH 565 0
DWIDTH 11 0
BBX 9 12 1 -4
BITMAP
7F80
FF80
1C00
2000
4300
8A00
8D00
8300
C000
F000
7F80
1F00
ENDCHAR
STARTCHAR FB7B
ENCODING 64379
SWIDTH 514 0
DWIDTH 10 0
BBX 9 12 1 -4
BITMAP
7F00
FF00
1C00
2780
4780
8C00
A800
B400
CC00
E000
7F00
1E00
ENDCHAR
STARTCHAR FB7C
ENCODING 64380
SWIDTH 514 0
DWIDTH 10 0
BBX 11 11 -1 -2
BITMAP
1C00
3E00
0700
01C0
FFE0
FFE0
0000
0600
1400
1A00
0600
ENDCHAR
STARTCHAR FB7D
ENCODING 64381
SWIDTH 514 0
DWIDTH 10 0
BBX 11 11 -1 -2
BITMAP
1C00
3E00
0700
01C0
FFE0
FFE0
0000
0600
1400
1A00
0600
ENDCHAR
STARTCHAR FB7E
ENCODING 64382
SWIDTH 565 0
DWIDTH 11 0
BBX 9 12 1 -4
BITMAP
7F80
FF80
1C00
2000
4600
9A00
8C00
9600
D800
F000
7F80
1F00
ENDCHAR
STARTCHAR FB7F
ENCODING 64383
SWIDTH 514 0
DWIDTH 10 0
BBX 9 12 1 -4
BITMAP
7F00
FF00
1C00
2F80
7780
9800
AC00
B000
C000
E000
7F00
1E00
ENDCHAR
STARTCHAR FB80
ENCODING 64384
SWIDTH 514 0
DWIDTH 10 0
BBX 11 12 -1 -3
BITMAP
1C00
3E00
0700
01C0
FFE0
FFE0
0000
0300
0D00
0600
0B00
0C00
ENDCHAR
STARTCHAR FB81
ENCODING 64385
SWIDTH 514 0
DWIDTH 10 0
BBX 11 12 -1 -3
BITMAP
1C00
3E00
0700
01C0
FFE0
FFE0
0000
0300
0D00
0600
0B00
0C00
ENDCHAR
STARTCHAR FB82
ENCODING 64386
SWIDTH 308 0
DWIDTH 6 0
BBX 5 12 1 -1
BITMAP
20
30
10
08
08
88
F8
F8
00
18
78
60
ENDCHAR
STARTCHAR FB83
ENCODING 64387
SWIDTH 308 0
DWIDTH 6 0
BBX 5 12 1 -1
BITMAP
20
30
10
08
08
88
F8
F8
00
18
78
60
ENDCHAR
STARTCHAR FB84
ENCODING 64388
SWIDTH 308 0
DWIDTH 6 0
BBX 5 12 1 3
BITMAP
18
78
60
00
20
30
10
08
08
88
F8
F8
ENDCHAR
STARTCHAR FB85
ENCODING 64389
SWIDTH 308 0
DWIDTH 6 0
BBX 5 12 1 3
BITMAP
18
78
60
00
20
30
10
08
08
88
F8
F8
ENDCHAR
STARTCHAR FB86
ENCODING 64390
SWIDTH 308 0
DWIDTH 6 0
BBX 5 13 1 3
BITMAP
C0
B0
50
C0
00
20
30
10
08
08
88
F8
F8
ENDCHAR
STARTCHAR FB87
ENCODING 64391
SWIDTH 308 0
DWIDTH 6 0
BBX 5 13 1 3
BITMAP
C0
B0
50
C0
00
20
30
10
08
08
88
F8
F8
ENDCHAR
STARTCHAR FB88
ENCODING 64392
SWIDTH 308 0
DWIDTH 6 0
BBX 5 14 1 3
BITMAP
60
40
40
58
68
F8
00
30
10
08
08
88
F8
F8
ENDCHAR
STARTCHAR FB89
ENCODING 64393
SWIDTH 308 0
DWIDTH 6 0
BBX 5 14 1 3
BITMAP
60
40
40
58
68
F8
00
30
10
08
08
88
F8
F8
ENDCHAR
STARTCHAR FB8A
ENCODING 64394
SWIDTH 462 0
DWIDTH 9 0
BBX 8 15 1 -2
BITMAP
0C
0B
05
0C
00
02
03
03
01
01
01
03
06
8C
78
ENDCHAR
STARTCHAR FB8B
ENCODING 64395
SWIDTH 462 0
DWIDTH 9 0
BBX 8 15 1 -2
BITMAP
0C
0B
05
0C
00
02
03
03
01
01
01
03
06
8C
78
ENDCHAR
STARTCHAR FB8C
ENCODING 64396
SWIDTH 462 0
DWIDTH 9 0
BBX 8 17 1 -2
BITMAP
0C
08
08
0B
0D
1F
00
02
03
03
01
01
01
03
06
8C
78
ENDCHAR
STARTCHAR FB8D
ENCODING 64397
SWIDTH 462 0
DWIDTH 9 0
BBX 8 17 1 -2
BITMAP
0C
08
08
0B
0D
1F
00
02
03
03
01
01
01
03
06
8C
78
ENDCHAR
STARTCHAR FB8E
ENCODING 64398
SWIDTH 771 0
DWIDTH 15 0
BBX 15 11 0 3
BITMAP
0004
003C
0070
0080
00C0
00F0
4038
800C
8006
FFFE
7FFE
ENDCHAR
STARTCHAR FB8F
ENCODING 64399
SWIDTH 925 0
DWIDTH 18 0
BBX 18 11 0 3
BITMAP
000200
001E00
003800
004000
006000
007000
401C00
800E00
C01B00
FFF1C0
7FE0C0
ENDCHAR
STARTCHAR FB90
ENCODING 64400
SWIDTH 360 0
DWIDTH 7 0
BBX 8 11 -1 3
BITMAP
02
1E
38
40
60
78
1C
06
03
FF
FF
ENDCHAR
STARTCHAR FB91
ENCODING 64401
SWIDTH 514 0
DWIDTH 10 0
BBX 11 11 -1 3
BITMAP
0100
0F00
1C00
2000
3000
3800
0E00
0700
0D80
F8E0
F060
ENDCHAR
STARTCHAR FB92
ENCODING 64402
SWIDTH 771 0
DWIDTH 15 0
BBX 15 13 0 3
BITMAP
0004
001C
0038
0044
00BC
0070
0080
00E0
4070
800C
8006
FFFE
7FFE
ENDCHAR
STARTCHAR FB93
ENCODING 64403
SWIDTH 925 0
DWIDTH 18 0
BBX 18 13 0 3
BITMAP
000200
000E00
001C00
002200
005E00
003800
004000
007000
403800
800C00
C01B00
FFF1C0
7FE0C0
ENDCHAR
STARTCHAR FB94
ENCODING 64404
SWIDTH 360 0
DWIDTH 7 0
BBX 8 13 -1 3
BITMAP
02
0E
1C
62
1E
38
40
70
38
06
03
FF
FF
ENDCHAR
STARTCHAR FB95
ENCODING 64405
SWIDTH 514 0
DWIDTH 10 0
BBX 11 13 -1 3
BITMAP
0100
0700
0E00
3100
0F00
1C00
2000
3800
1C00
0600
0D80
F8E0
F060
ENDCHAR
STARTCHAR FB96
ENCODING 64406
SWIDTH 771 0
DWIDTH 15 0
BBX 15 18 0 -2
BITMAP
0004
001C
0038
0044
00BC
0070
0080
00E0
4070
800C
8006
FFFE
7FFE
0000
0300
0300
0180
0180
ENDCHAR
STARTCHAR FB97
ENCODING 64407
SWIDTH 925 0
DWIDTH 18 0
BBX 18 18 0 -2
BITMAP
000200
000E00
001C00
002200
005E00
003800
004000
007000
403800
800C00
C01B00
FFF1C0
7FE0C0
000000
060000
060000
030000
030000
ENDCHAR
STARTCHAR FB98
ENCODING 64408
SWIDTH 360 0
DWIDTH 7 0
BBX 8 18 -1 -2
BITMAP
02
0E
1C
62
1E
38
40
70
38
06
03
FF
FF
00
18
18
0C
0C
ENDCHAR
STARTCHAR FB99
ENCODING 64409
SWIDTH 514 0
DWIDTH 10 0
BBX 11 18 -1 -2
BITMAP
0100
0700
0E00
3100
0F00
1C00
2000
3800
1C00
0600
0D80
F8E0
F060
0000
3000
3000
1800
1800
ENDCHAR
STARTCHAR FB9A
ENCODING 64410
SWIDTH 771 0
DWIDTH 15 0
BBX 15 14 0 3
BITMAP
0060
0184
001C
0038
0044
00BC
0070
0080
00E0
4070
800C
8006
FFFE
7FFE
ENDCHAR
STARTCHAR FB9B
ENCODING 64411
SWIDTH 925 0
DWIDTH 18 0
BBX 18 14 0 3
BITMAP
003000
00C200
000E00
001C00
002200
005E00
003800
004000
007000
403800
800C00
C01B00
FFF1C0
7FE0C0
ENDCHAR
STARTCHAR FB9C
ENCODING 64412
SWIDTH 360 0
DWIDTH 7 0
BBX 8 14 -1 3
BITMAP
18
62
0E
1C
62
1E
38
40
70
38
06
03
FF
FF
ENDCHAR
STARTCHAR FB9D
ENCODING 64413
SWIDTH 514 0
DWIDTH 10 0
BBX 11 14 -1 3
BITMAP
0C00
3100
0700
0E00
3100
0F00
1C00
2000
3800
1C00
0600
0D80
F8E0
F060
ENDCHAR
STARTCHAR FB9E
ENCODING 64414
SWIDTH 514 0
DWIDTH 10 0
BBX 9 9 1 -1
BITMAP
0100
0180
4180
8080
8080
8080
C380
FF00
7E00
ENDCHAR
STARTCHAR FB9F
ENCODING 64415
SWIDTH 514 0
DWIDTH 10 0
BBX 9 9 1 -1
BITMAP
0100
0180
4180
8080
8080
8080
C380
FF00
7E00
ENDCHAR
STARTCHAR FBA0
ENCODING 64416
SWIDTH 514 0
DWIDTH 10 0
BBX 9 16 1 -1
BITMAP
1800
1000
1000
1600
1A00
3E00
0000
0100
0180
4180
8080
8080
8080
C380
FF00
7E00
ENDCHAR
STARTCHAR FBA1
ENCODING 64417
SWIDTH 514 0
DWIDTH 10 0
BBX 9 16 1 -1
BITMAP
1800
1000
1000
1600
1A00
3E00
0000
0100
0180
4180
8080
8080
8080
C380
FF00
7E00
ENDCHAR
STARTCHAR FBA2
ENCODING 64418
SWIDTH 257 0
DWIDTH 5 0
BBX 6 13 -1 3
BITMAP
30
20
20
2C
34
7C
00
08
0C
04
04
FC
FC
ENDCHAR
STARTCHAR FBA3
ENCODING 64419
SWIDTH 257 0
DWIDTH 5 0
BBX 6 13 -1 3
BITMAP
30
20
20
2C
34
7C
00
08
0C
04
04
FC
FC
ENDCHAR
STARTCHAR FBA4
ENCODING 64420
SWIDTH 257 0
DWIDTH 5 0
BBX 4 12 1 3
BITMAP
60
80
60
80
00
40
60
70
90
90
F0
E0
ENDCHAR
STARTCHAR FBA5
ENCODING 64421
SWIDTH 360 0
DWIDTH 7 0
BBX 7 13 0 3
BITMAP
30
40
30
48
08
18
28
48
F8
F8
04
06
06
ENDCHAR
STARTCHAR FBA6
ENCODING 64422
SWIDTH 257 0
DWIDTH 5 0
BBX 4 7 1 3
BITMAP
40
60
70
90
90
F0
E0
ENDCHAR
STARTCHAR FBA7
ENCODING 64423
SWIDTH 360 0
DWIDTH 7 0
BBX 7 5 0 2
BITMAP
18
3C
6E
46
80
ENDCHAR
STARTCHAR FBA8
ENCODING 64424
SWIDTH 257 0
DWIDTH 5 0
BBX 6 11 -1 -2
BITMAP
08
0C
04
04
FC
FC
00
10
20
30
30
ENDCHAR
STARTCHAR FBA9
ENCODING 64425
SWIDTH 308 0
DWIDTH 6 0
BBX 7 12 -1 -4
BITMAP
08
10
30
F6
DE
18
08
00
08
10
18
18
ENDCHAR
STARTCHAR FBAA
ENCODING 64426
SWIDTH 462 0
DWIDTH 9 0
BBX 9 8 -1 3
BITMAP
0800
1C00
1E00
2700
2500
1880
FF80
E300
ENDCHAR
STARTCHAR FBAB
ENCODING 64427
SWIDTH 360 0
DWIDTH 7 0
BBX 7 10 0 3
BITMAP
08
08
18
28
48
F8
F8
04
06
06
ENDCHAR
STARTCHAR FBAC
ENCODING 64428
SWIDTH 462 0
DWIDTH 9 0
BBX 9 8 -1 3
BITMAP
0800
1C00
1E00
2700
2500
1880
FF80
E300
ENDCHAR
STARTCHAR FBAD
ENCODING 64429
SWIDTH 360 0
DWIDTH 7 0
BBX 8 10 -1 -1
BITMAP
0C
1C
14
28
FF
FF
28
24
3C
1C
ENDCHAR
STARTCHAR FBAE
ENCODING 64430
SWIDTH 771 0
DWIDTH 15 0
BBX 14 7 1 0
BITMAP
0200
0F00
3900
7000
8000
FFFC
FFF0
ENDCHAR
STARTCHAR FBAF
ENCODING 64431
SWIDTH 771 0
DWIDTH 15 0
BBX 14 9 1 -4
BITMAP
00FC
07FC
1F00
3800
6000
4000
8000
FFFC
FFF0
ENDCHAR
STARTCHAR FBB0
ENCODING 64432
SWIDTH 771 0
DWIDTH 15 0
BBX 14 10 1 0
BITMAP
1800
2000
1800
2200
0F00
3900
7000
8000
FFFC
FFF0
ENDCHAR
STARTCHAR FBB1
ENCODING 64433
SWIDTH 771 0
DWIDTH 15 0
BBX 14 14 1 -4
BITMAP
0060
0080
0060
0080
0000
00FC
07FC
1F00
3800
6000
4000
8000
FFFC
FFF0
ENDCHAR
STARTCHAR FBD3
ENCODING 64467
SWIDTH 565 0
DWIDTH 11 0
BBX 11 13 0 3
BITMAP
1800
1640
0A60
1860
0240
0440
0740
0140
4320
8E20
8020
FFE0
7FE0
ENDCHAR
STARTCHAR FBD4
ENCODING 64468
SWIDTH 565 0
DWIDTH 11 0
BBX 11 13 0 3
BITMAP
1800
1640
0A60
1860
0240
0440
0740
0140
4320
8E20
8020
FFE0
7FE0
ENDCHAR
STARTCHAR FBD5
ENCODING 64469
SWIDTH 360 0
DWIDTH 7 0
BBX 8 13 -1 3
BITMAP
60
18
62
1E
38
40
60
78
1C
06
03
FF
FF
ENDCHAR
STARTCHAR FBD6
ENCODING 64470
SWIDTH 360 0
DWIDTH 7 0
BBX 8 13 -1 3
BITMAP
60
18
62
1E
38
40
60
78
1C
06
03
FF
FF
ENDCHAR
STARTCHAR FBD7
ENCODING 64471
SWIDTH 411 0
DWIDTH 8 0
BBX 8 17 0 -2
BITMAP
03
05
07
03
04
00
06
0F
09
09
0F
07
01
03
06
8C
78
ENDCHAR
STARTCHAR FBD8
ENCODING 64472
SWIDTH 411 0
DWIDTH 8 0
BBX 8 17 0 -2
BITMAP
03
05
07
03
04
00
06
0F
09
09
0F
07
01
03
06
8C
78
ENDCHAR
STARTCHAR FBD9
ENCODING 64473
SWIDTH 411 0
DWIDTH 8 0
BBX 8 14 0 -2
BITMAP
0A
04
00
06
0F
09
09
0F
07
01
03
06
8C
78
ENDCHAR
STARTCHAR FBDA
ENCODING 64474
SWIDTH 411 0
DWIDTH 8 0
BBX 8 14 0 -2
BITMAP
0A
04
00
06
0F
09
09
0F
07
01
03
06
8C
78
ENDCHAR
STARTCHAR FBDB
ENCODING 64475
SWIDTH 411 0
DWIDTH 8 0
BBX 8 18 0 -2
BITMAP
04
04
04
04
04
04
00
06
0F
09
09
0F
07
01
03
06
8C
78
ENDCHAR
STARTCHAR FBDC
ENCODING 64476
SWIDTH 411 0
DWIDTH 8 0
BBX 8 18 0 -2
BITMAP
04
04
04
04
04
04
00
06
0F
09
09
0F
07
01
03
06
8C
78
ENDCHAR
STARTCHAR FBDD
ENCODING 64477
SWIDTH 411 0
DWIDTH 8 0
BBX 9 16 0 -2
BITMAP
1980
2A00
3980
1A00
2000
0600
0F00
0900
0900
0F00
0700
0100
0300
0600
8C00
7800
ENDCHAR
STARTCHAR FBDE
ENCODING 64478
SWIDTH 411 0
DWIDTH 8 0
BBX 8 16 0 -2
BITMAP
18
16
0A
18
00
06
0F
09
09
0F
07
01
03
06
8C
78
ENDCHAR
STARTCHAR FBDF
ENCODING 64479
SWIDTH 411 0
DWIDTH 8 0
BBX 8 16 0 -2
BITMAP
18
16
0A
18
00
06
0F
09
09
0F
07
01
03
06
8C
78
ENDCHAR
STARTCHAR FBE0
ENCODING 64480
SWIDTH 411 0
DWIDTH 8 0
BBX 8 11 0 -2
BITMAP
06
0F
09
09
0F
07
31
0F
06
8C
78
ENDCHAR
STARTCHAR FBE1
ENCODING 64481
SWIDTH 411 0
DWIDTH 8 0
BBX 8 11 0 -2
BITMAP
06
0F
09
09
0F
07
31
0F
06
8C
78
ENDCHAR
STARTCHAR FBE2
ENCODING 64482
SWIDTH 411 0
DWIDTH 8 0
BBX 8 14 0 -2
BITMAP
04
0A
00
06
0F
09
09
0F
07
01
03
06
8C
78
ENDCHAR
STARTCHAR FBE3
ENCODING 64483
SWIDTH 411 0
DWIDTH 8 0
BBX 8 14 0 -2
BITMAP
04
0A
00
06
0F
09
09
0F
07
01
03
06
8C
78
ENDCHAR
STARTCHAR FBE4
ENCODING 64484
SWIDTH 617 0
DWIDTH 12 0
BBX 12 13 0 -4
BITMAP
0070
00F0
0100
4200
83E0
83E0
8020
C1C0
FF80
7E00
0000
0400
0400
ENDCHAR
STARTCHAR FBE5
ENCODING 64485
SWIDTH 565 0
DWIDTH 11 0
BBX 11 9 0 -4
BITMAP
41E0
83E0
8200
83C0
C040
FFC0
3F00
0400
0400
ENDCHAR
STARTCHAR FBE6
ENCODING 64486
SWIDTH 257 0
DWIDTH 5 0
BBX 6 11 -1 -2
BITMAP
08
0C
04
04
FC
FC
00
30
30
18
18
ENDCHAR
STARTCHAR FBE7
ENCODING 64487
SWIDTH 257 0
DWIDTH 5 0
BBX 6 11 -1 -2
BITMAP
08
0C
04
04
FC
FC
00
30
30
18
18
ENDCHAR
STARTCHAR FBFC
ENCODING 64508
SWIDTH 617 0
DWIDTH 12 0
BBX 12 10 0 -1
BITMAP
0070
00F0
0100
4200
83E0
83E0
8020
C1C0
FF80
7E00
ENDCHAR
STARTCHAR FBFD
ENCODING 64509
SWIDTH 565 0
DWIDTH 11 0
BBX 11 7 0 -2
BITMAP
41E0
83E0
8200
83C0
C040
FFC0
3F00
ENDCHAR
STARTCHAR FBFE
ENCODING 64510
SWIDTH 257 0
DWIDTH 5 0
BBX 6 10 -1 -1
BITMAP
08
0C
04
04
FC
FC
00
18
78
60
ENDCHAR
STARTCHAR FBFF
ENCODING 64511
SWIDTH 257 0
DWIDTH 5 0
BBX 6 10 -1 -1
BITMAP
08
0C
04
04
FC
FC
00
18
78
60
ENDCHAR
STARTCHAR FC5E
ENCODING 64606
SWIDTH 205 0
DWIDTH 4 0
BBX 6 8 0 12
BITMAP
0C
14
DC
54
60
28
B8
C0
ENDCHAR
STARTCHAR FC5F
ENCODING 64607
SWIDTH 205 0
DWIDTH 4 0
BBX 5 7 0 12
BITMAP
28
B8
C0
10
60
10
60
ENDCHAR
STARTCHAR FC60
ENCODING 64608
SWIDTH 205 0
DWIDTH 4 0
BBX 5 5 0 12
BITMAP
20
C0
28
B8
C0
ENDCHAR
STARTCHAR FC61
ENCODING 64609
SWIDTH 205 0
DWIDTH 4 0
BBX 5 7 0 12
BITMAP
30
50
70
C0
28
B8
C0
ENDCHAR
STARTCHAR FC62
ENCODING 64610
SWIDTH 205 0
DWIDTH 4 0
BBX 5 5 0 12
BITMAP
28
B8
C0
10
60
ENDCHAR
STARTCHAR FD3E
ENCODING 64830
SWIDTH 308 0
DWIDTH 6 0
BBX 4 19 1 -4
BITMAP
10
30
20
60
60
C0
C0
C0
C0
C0
C0
C0
C0
C0
60
60
20
30
10
ENDCHAR
STARTCHAR FD3F
ENCODING 64831
SWIDTH 308 0
DWIDTH 6 0
BBX 4 19 1 -4
BITMAP
80
C0
40
60
60
30
30
30
30
30
30
30
30
30
60
60
40
C0
80
ENDCHAR
STARTCHAR FDF2
ENCODING 65010
SWIDTH 617 0
DWIDTH 12 0
BBX 12 13 0 3
BITMAP
0800
0400
0280
0B80
0C00
0120
0920
0920
19A0
2890
4890
F7F0
E730
ENDCHAR
STARTCHAR FE80
ENCODING 65152
SWIDTH 411 0
DWIDTH 8 0
BBX 6 7 1 2
BITMAP
30
78
80
CC
FC
78
60
ENDCHAR
STARTCHAR FE81
ENCODING 65153
SWIDTH 205 0
DWIDTH 4 0
BBX 4 14 0 2
BITMAP
F0
00
20
20
20
20
20
20
20
20
20
20
20
20
ENDCHAR
STARTCHAR FE82
ENCODING 65154
SWIDTH 205 0
DWIDTH 4 0
BBX 5 13 -1 3
BITMAP
F0
00
20
60
60
20
20
20
20
20
20
38
18
ENDCHAR
STARTCHAR FE83
ENCODING 65155
SWIDTH 205 0
DWIDTH 4 0
BBX 3 14 1 2
BITMAP
60
80
60
80
00
40
40
40
40
40
40
40
40
40
ENDCHAR
STARTCHAR FE84
ENCODING 65156
SWIDTH 205 0
DWIDTH 4 0
BBX 4 13 0 3
BITMAP
60
80
60
80
00
40
C0
40
40
40
40
70
30
ENDCHAR
STARTCHAR FE85
ENCODING 65157
SWIDTH 411 0
DWIDTH 8 0
BBX 8 16 0 -2
BITMAP
18
20
18
20
00
06
0F
09
09
0F
07
01
03
06
8C
78
ENDCHAR
STARTCHAR FE86
ENCODING 65158
SWIDTH 411 0
DWIDTH 8 0
BBX 8 16 0 -2
BITMAP
18
20
18
20
00
06
0F
09
09
0F
07
01
03
06
8C
78
ENDCHAR
STARTCHAR FE87
ENCODING 65159
SWIDTH 205 0
DWIDTH 4 0
BBX 3 17 1 -3
BITMAP
40
40
40
40
40
40
40
40
40
40
40
40
00
60
80
60
80
ENDCHAR
STARTCHAR FE88
ENCODING 65160
SWIDTH 205 0
DWIDTH 4 0
BBX 4 16 0 -2
BITMAP
40
C0
C0
40
40
40
40
40
40
70
30
00
60
80
60
80
ENDCHAR
STARTCHAR FE89
ENCODING 65161
SWIDTH 617 0
DWIDTH 12 0
BBX 12 12 0 -1
BITMAP
6000
8000
6070
80F0
0100
4200
83E0
83E0
8020
C1C0
FF80
7E00
ENDCHAR
STARTCHAR FE8A
ENCODING 65162
SWIDTH 565 0
DWIDTH 11 0
BBX 11 13 0 -2
BITMAP
6000
8000
6000
8000
0000
0000
41E0
83E0
8200
83C0
C040
FFC0
3F00
ENDCHAR
STARTCHAR FE8B
ENCODING 65163
SWIDTH 257 0
DWIDTH 5 0
BBX 6 11 -1 3
BITMAP
18
20
18
20
00
08
0C
04
04
FC
FC
ENDCHAR
STARTCHAR FE8C
ENCODING 65164
SWIDTH 257 0
DWIDTH 5 0
BBX 6 11 -1 3
BITMAP
18
20
18
20
00
08
0C
04
04
FC
FC
ENDCHAR
STARTCHAR FE8D
ENCODING 65165
SWIDTH 205 0
DWIDTH 4 0
BBX 1 12 2 2
BITMAP
80
80
80
80
80
80
80
80
80
80
80
80
ENDCHAR
STARTCHAR FE8E
ENCODING 65166
SWIDTH 205 0
DWIDTH 4 0
BBX 4 11 0 3
BITMAP
40
C0
C0
40
40
40
40
40
40
70
30
ENDCHAR
STARTCHAR FE8F
ENCODING 65167
SWIDTH 720 0
DWIDTH 14 0
BBX 13 9 1 0
BITMAP
4010
8018
8008
C008
FFF8
3FF8
0000
0600
0600
ENDCHAR
STARTCHAR FE90
ENCODING 65168
SWIDTH 720 0
DWIDTH 14 0
BBX 13 9 1 0
BITMAP
4010
8018
8008
C008
FFF8
3FF8
0000
0600
0600
ENDCHAR
STARTCHAR FE91
ENCODING 65169
SWIDTH 257 0
DWIDTH 5 0
BBX 6 9 -1 0
BITMAP
08
0C
04
04
FC
FC
00
30
30
ENDCHAR
STARTCHAR FE92
ENCODING 65170
SWIDTH 257 0
DWIDTH 5 0
BBX 6 9 -1 0
BITMAP
08
0C
04
04
FC
FC
00
30
30
ENDCHAR
STARTCHAR FE93
ENCODING 65171
SWIDTH 257 0
DWIDTH 5 0
BBX 4 11 1 3
BITMAP
30
F0
C0
00
40
60
70
90
90
F0
E0
ENDCHAR
STARTCHAR FE94
ENCODING 65172
SWIDTH 360 0
DWIDTH 7 0
BBX 7 13 0 3
BITMAP
18
78
60
00
08
08
18
28
48
F8
F4
06
06
ENDCHAR
STARTCHAR FE95
ENCODING 65173
SWIDTH 720 0
DWIDTH 14 0
BBX 13 9 1 3
BITMAP
0300
0F00
0C00
4010
8018
8008
C008
FFF8
3FF8
ENDCHAR
STARTCHAR FE96
ENCODING 65174
SWIDTH 720 0
DWIDTH 14 0
BBX 13 9 1 3
BITMAP
0300
0F00
0C00
4010
8018
8008
C008
FFF8
3FF8
ENDCHAR
STARTCHAR FE97
ENCODING 65175
SWIDTH 257 0
DWIDTH 5 0
BBX 6 10 -1 3
BITMAP
18
78
60
00
08
0C
04
04
FC
FC
ENDCHAR
STARTCHAR FE98
ENCODING 65176
SWIDTH 257 0
DWIDTH 5 0
BBX 6 10 -1 3
BITMAP
18
78
60
00
08
0C
04
04
FC
FC
ENDCHAR
STARTCHAR FE99
ENCODING 65177
SWIDTH 720 0
DWIDTH 14 0
BBX 13 10 1 3
BITMAP
0C00
0B00
0500
0C00
4010
8018
8008
C008
FFF8
3FF8
ENDCHAR
STARTCHAR FE9A
ENCODING 65178
SWIDTH 720 0
DWIDTH 14 0
BBX 13 10 1 3
BITMAP
0C00
0B00
0500
0C00
4010
8018
8008
C008
FFF8
3FF8
ENDCHAR
STARTCHAR FE9B
ENCODING 65179
SWIDTH 257 0
DWIDTH 5 0
BBX 6 11 -1 3
BITMAP
60
58
28
60
00
08
0C
04
04
FC
FC
ENDCHAR
STARTCHAR FE9C
ENCODING 65180
SWIDTH 257 0
DWIDTH 5 0
BBX 6 11 -1 3
BITMAP
60
58
28
60
00
08
0C
04
04
FC
FC
ENDCHAR
STARTCHAR FE9D
ENCODING 65181
SWIDTH 565 0
DWIDTH 11 0
BBX 9 12 1 -4
BITMAP
7F80
FF80
1C00
2000
4000
8600
8600
8000
C000
F000
7F80
1F00
ENDCHAR
STARTCHAR FE9E
ENCODING 65182
SWIDTH 514 0
DWIDTH 10 0
BBX 9 12 1 -4
BITMAP
7F00
FF00
1C00
2780
4780
8000
9800
9800
C000
E000
7F00
1E00
ENDCHAR
STARTCHAR FE9F
ENCODING 65183
SWIDTH 514 0
DWIDTH 10 0
BBX 11 9 -1 0
BITMAP
1C00
3E00
0700
01C0
FFE0
FFE0
0000
0C00
0C00
ENDCHAR
STARTCHAR FEA0
ENCODING 65184
SWIDTH 514 0
DWIDTH 10 0
BBX 11 9 -1 0
BITMAP
1C00
3E00
0700
01C0
FFE0
FFE0
0000
0C00
0C00
ENDCHAR
STARTCHAR FEA1
ENCODING 65185
SWIDTH 565 0
DWIDTH 11 0
BBX 9 12 1 -4
BITMAP
7F80
FF80
1C00
2000
4000
8000
8000
8000
C000
F000
7F80
1F00
ENDCHAR
STARTCHAR FEA2
ENCODING 65186
SWIDTH 514 0
DWIDTH 10 0
BBX 9 12 1 -4
BITMAP
7F00
FF00
1C00
2780
4780
8000
8000
8000
C000
E000
7F00
1E00
ENDCHAR
STARTCHAR FEA3
ENCODING 65187
SWIDTH 514 0
DWIDTH 10 0
BBX 11 6 -1 3
BITMAP
1C00
3E00
0700
01C0
FFE0
FFE0
ENDCHAR
STARTCHAR FEA4
ENCODING 65188
SWIDTH 514 0
DWIDTH 10 0
BBX 11 6 -1 3
BITMAP
1C00
3E00
0700
01C0
FFE0
FFE0
ENDCHAR
STARTCHAR FEA5
ENCODING 65189
SWIDTH 565 0
DWIDTH 11 0
BBX 9 16 1 -4
BITMAP
0C00
0C00
0000
0000
7F80
FF80
1C00
2000
4000
8000
8000
8000
C000
F000
7F80
1F00
ENDCHAR
STARTCHAR FEA6
ENCODING 65190
SWIDTH 514 0
DWIDTH 10 0
BBX 9 16 1 -4
BITMAP
1800
1800
0000
0000
7F00
FF00
1C00
2780
4780
8000
8000
8000
C000
E000
7F00
1E00
ENDCHAR
STARTCHAR FEA7
ENCODING 65191
SWIDTH 514 0
DWIDTH 10 0
BBX 11 10 -1 3
BITMAP
0C00
0C00
0000
0000
1C00
3E00
0700
01C0
FFE0
FFE0
ENDCHAR
STARTCHAR FEA8
ENCODING 65192
SWIDTH 514 0
DWIDTH 10 0
BBX 11 10 -1 3
BITMAP
0C00
0C00
0000
0000
1C00
3E00
0700
01C0
FFE0
FFE0
ENDCHAR
STARTCHAR FEA9
ENCODING 65193
SWIDTH 308 0
DWIDTH 6 0
BBX 5 8 1 3
BITMAP
20
30
10
08
08
88
F8
F8
ENDCHAR
STARTCHAR FEAA
ENCODING 65194
SWIDTH 308 0
DWIDTH 6 0
BBX 5 8 1 3
BITMAP
20
30
10
08
08
88
F8
F8
ENDCHAR
STARTCHAR FEAB
ENCODING 65195
SWIDTH 308 0
DWIDTH 6 0
BBX 5 12 1 3
BITMAP
60
60
00
00
20
30
10
08
08
88
F8
F8
ENDCHAR
STARTCHAR FEAC
ENCODING 65196
SWIDTH 308 0
DWIDTH 6 0
BBX 5 12 1 3
BITMAP
60
60
00
00
20
30
10
08
08
88
F8
F8
ENDCHAR
STARTCHAR FEAD
ENCODING 65197
SWIDTH 462 0
DWIDTH 9 0
BBX 8 10 1 -2
BITMAP
02
03
03
01
01
01
03
06
8C
78
ENDCHAR
STARTCHAR FEAE
ENCODING 65198
SWIDTH 462 0
DWIDTH 9 0
BBX 8 10 1 -2
BITMAP
02
03
03
01
01
01
03
06
8C
78
ENDCHAR
STARTCHAR FEAF
ENCODING 65199
SWIDTH 462 0
DWIDTH 9 0
BBX 8 14 1 -2
BITMAP
06
06
00
00
02
03
03
01
01
01
03
06
8C
78
ENDCHAR
STARTCHAR FEB0
ENCODING 65200
SWIDTH 462 0
DWIDTH 9 0
BBX 8 14 1 -2
BITMAP
06
06
00
00
02
03
03
01
01
01
03
06
8C
78
ENDCHAR
STARTCHAR FEB1
ENCODING 65201
SWIDTH 822 0
DWIDTH 16 0
BBX 15 9 1 -1
BITMAP
0104
0192
4192
80FE
80FE
8080
C380
FF00
7E00
ENDCHAR
STARTCHAR FEB2
ENCODING 65202
SWIDTH 822 0
DWIDTH 16 0
BBX 15 9 1 -1
BITMAP
0104
0192
4192
80FE
80FE
8080
C380
FF00
7E00
ENDCHAR
STARTCHAR FEB3
ENCODING 65203
SWIDTH 514 0
DWIDTH 10 0
BBX 11 5 -1 3
BITMAP
0040
1160
1120
FFE0
EEE0
ENDCHAR
STARTCHAR FEB4
ENCODING 65204
SWIDTH 514 0
DWIDTH 10 0
BBX 11 5 -1 3
BITMAP
0040
1160
1120
FFE0
EEE0
ENDCHAR
STARTCHAR FEB5
ENCODING 65205
SWIDTH 822 0
DWIDTH 16 0
BBX 15 14 1 -1
BITMAP
0030
002C
0014
0030
0000
0104
0192
4192
80FE
80FE
8080
C380
FF00
7E00
ENDCHAR
STARTCHAR FEB6
ENCODING 65206
SWIDTH 822 0
DWIDTH 16 0
BBX 15 14 1 -1
BITMAP
0030
002C
0014
0030
0000
0104
0192
4192
80FE
80FE
8080
C380
FF00
7E00
ENDCHAR
STARTCHAR FEB7
ENCODING 65207
SWIDTH 514 0
DWIDTH 10 0
BBX 11 10 -1 3
BITMAP
0600
0580
0280
0600
0000
0040
1160
1120
FFE0
EEE0
ENDCHAR
STARTCHAR FEB8
ENCODING 65208
SWIDTH 514 0
DWIDTH 10 0
BBX 11 10 -1 3
BITMAP
0600
0580
0280
0600
0000
0040
1160
1120
FFE0
EEE0
ENDCHAR
STARTCHAR FEB9
ENCODING 65209
SWIDTH 1080 0
DWIDTH 21 0
BBX 20 9 1 -1
BITMAP
0080E0
00C3F0
40CE10
807FF0
807FF0
804000
C1C000
FF8000
7E0000
ENDCHAR
STARTCHAR FEBA
ENCODING 65210
SWIDTH 1080 0
DWIDTH 21 0
BBX 20 9 1 -1
BITMAP
0080E0
00C3F0
40CE10
807FF0
807FF0
804000
C1C000
FF8000
7E0000
ENDCHAR
STARTCHAR FEBB
ENCODING 65211
SWIDTH 822 0
DWIDTH 16 0
BBX 17 6 -1 3
BITMAP
000F00
101F80
103080
18C080
FFFF80
EFFF80
ENDCHAR
STARTCHAR FEBC
ENCODING 65212
SWIDTH 822 0
DWIDTH 16 0
BBX 17 6 -1 3
BITMAP
000F00
101F80
103080
18C080
FFFF80
EFFF80
ENDCHAR
STARTCHAR FEBD
ENCODING 65213
SWIDTH 1080 0
DWIDTH 21 0
BBX 20 12 1 -1
BITMAP
000600
000600
000000
0080E0
00C3F0
40CE10
807FF0
807FF0
804000
C1C000
FF8000
7E0000
ENDCHAR
STARTCHAR FEBE
ENCODING 65214
SWIDTH 1080 0
DWIDTH 21 0
BBX 20 12 1 -1
BITMAP
000600
000600
000000
0080E0
00C3F0
40CE10
807FF0
807FF0
804000
C1C000
FF8000
7E0000
ENDCHAR
STARTCHAR FEBF
ENCODING 65215
SWIDTH 822 0
DWIDTH 16 0
BBX 17 9 -1 3
BITMAP
006000
006000
000000
000F00
101F80
103080
18C080
FFFF80
EFFF80
ENDCHAR
STARTCHAR FEC0
ENCODING 65216
SWIDTH 822 0
DWIDTH 16 0
BBX 17 9 -1 3
BITMAP
006000
006000
000000
000F00
101F80
103080
18C080
FFFF80
EFFF80
ENDCHAR
STARTCHAR FEC1
ENCODING 65217
SWIDTH 565 0
DWIDTH 11 0
BBX 12 12 -1 3
BITMAP
1000
1C00
0C00
0800
0400
0400
04E0
07F0
0610
0810
FFF0
FFF0
ENDCHAR
STARTCHAR FEC2
ENCODING 65218
SWIDTH 565 0
DWIDTH 11 0
BBX 12 12 -1 3
BITMAP
1000
1C00
0C00
0800
0400
0400
04E0
07F0
0610
0810
FFF0
FFF0
ENDCHAR
STARTCHAR FEC3
ENCODING 65219
SWIDTH 565 0
DWIDTH 11 0
BBX 12 12 -1 3
BITMAP
1000
1C00
0C00
0800
0400
0400
04E0
07F0
0610
0810
FFF0
FFF0
ENDCHAR
STARTCHAR FEC4
ENCODING 65220
SWIDTH 565 0
DWIDTH 11 0
BBX 12 12 -1 3
BITMAP
1000
1C00
0C00
0800
0400
0400
04E0
07F0
0610
0810
FFF0
FFF0
ENDCHAR
STARTCHAR FEC5
ENCODING 65221
SWIDTH 565 0
DWIDTH 11 0
BBX 12 12 -1 3
BITMAP
1000
1C00
0CC0
08C0
0400
0400
04E0
07F0
0610
0810
FFF0
FFF0
ENDCHAR
STARTCHAR FEC6
ENCODING 65222
SWIDTH 565 0
DWIDTH 11 0
BBX 12 12 -1 3
BITMAP
1000
1C00
0CC0
08C0
0400
0400
04E0
07F0
0610
0810
FFF0
FFF0
ENDCHAR
STARTCHAR FEC7
ENCODING 65223
SWIDTH 565 0
DWIDTH 11 0
BBX 12 12 -1 3
BITMAP
1000
1C00
0CC0
08C0
0400
0400
04E0
07F0
0610
0810
FFF0
FFF0
ENDCHAR
STARTCHAR FEC8
ENCODING 65224
SWIDTH 565 0
DWIDTH 11 0
BBX 12 12 -1 3
BITMAP
1000
1C00
0CC0
08C0
0400
0400
04E0
07F0
0610
0810
FFF0
FFF0
ENDCHAR
STARTCHAR FEC9
ENCODING 65225
SWIDTH 514 0
DWIDTH 10 0
BBX 9 16 0 -4
BITMAP
3800
7C00
E000
8000
8100
E700
7C00
3000
4000
8000
8000
8000
C000
E000
7F80
1F00
ENDCHAR
STARTCHAR FECA
ENCODING 65226
SWIDTH 462 0
DWIDTH 9 0
BBX 9 13 1 -4
BITMAP
1C00
3E00
0C00
1E00
2700
4300
8000
8000
8000
C000
F000
7F80
1F00
ENDCHAR
STARTCHAR FECB
ENCODING 65227
SWIDTH 514 0
DWIDTH 10 0
BBX 10 6 -1 3
BITMAP
1E00
3F00
2040
33C0
FF00
FC00
ENDCHAR
STARTCHAR FECC
ENCODING 65228
SWIDTH 360 0
DWIDTH 7 0
BBX 8 6 -1 3
BITMAP
3C
3E
3E
0C
FF
E3
ENDCHAR
STARTCHAR FECD
ENCODING 65229
SWIDTH 514 0
DWIDTH 10 0
BBX 9 20 0 -4
BITMAP
3000
3000
0000
0000
3800
7C00
E000
8000
8100
E700
7C00
3000
4000
8000
8000
8000
C000
E000
7F80
1F00
ENDCHAR
STARTCHAR FECE
ENCODING 65230
SWIDTH 462 0
DWIDTH 9 0
BBX 9 17 1 -4
BITMAP
0C00
0C00
0000
0000
1C00
3E00
0C00
1E00
2700
4300
8000
8000
8000
C000
F000
7F80
1F00
ENDCHAR
STARTCHAR FECF
ENCODING 65231
SWIDTH 514 0
DWIDTH 10 0
BBX 10 9 -1 3
BITMAP
0C00
0C00
0000
1E00
3F00
2040
33C0
FF00
FC00
ENDCHAR
STARTCHAR FED0
ENCODING 65232
SWIDTH 360 0
DWIDTH 7 0
BBX 8 10 -1 3
BITMAP
18
18
00
00
3C
3E
3E
0C
FF
E3
ENDCHAR
STARTCHAR FED1
ENCODING 65233
SWIDTH 771 0
DWIDTH 15 0
BBX 15 10 0 3
BITMAP
0018
0018
0000
0000
4004
800E
800A
C006
FFFE
3FFE
ENDCHAR
STARTCHAR FED2
ENCODING 65234
SWIDTH 771 0
DWIDTH 15 0
BBX 15 10 0 3
BITMAP
0018
0018
0000
0000
4004
800E
800A
C006
FFFE
3FFE
ENDCHAR
STARTCHAR FED3
ENCODING 65235
SWIDTH 257 0
DWIDTH 5 0
BBX 6 11 -1 3
BITMAP
18
18
00
18
38
2C
3C
3C
04
FC
FC
ENDCHAR
STARTCHAR FED4
ENCODING 65236
SWIDTH 257 0
DWIDTH 5 0
BBX 6 12 -1 3
BITMAP
18
18
00
00
18
3C
2C
24
3C
0C
FC
FC
ENDCHAR
STARTCHAR FED5
ENCODING 65237
SWIDTH 565 0
DWIDTH 11 0
BBX 10 14 1 -1
BITMAP
0180
0780
0600
0000
0000
0180
03C0
42C0
83C0
83C0
8040
C0C0
FF80
3F00
ENDCHAR
STARTCHAR FED6
ENCODING 65238
SWIDTH 565 0
DWIDTH 11 0
BBX 10 14 1 -1
BITMAP
0180
0780
0600
0000
0000
0180
03C0
42C0
83C0
83C0
8040
C0C0
FF80
3F00
ENDCHAR
STARTCHAR FED7
ENCODING 65239
SWIDTH 257 0
DWIDTH 5 0
BBX 6 12 -1 3
BITMAP
0C
3C
30
00
18
38
2C
3C
3C
04
FC
FC
ENDCHAR
STARTCHAR FED8
ENCODING 65240
SWIDTH 257 0
DWIDTH 5 0
BBX 6 13 -1 3
BITMAP
18
78
60
00
00
18
3C
2C
24
3C
0C
FC
FC
ENDCHAR
STARTCHAR FED9
ENCODING 65241
SWIDTH 565 0
DWIDTH 11 0
BBX 11 12 0 3
BITMAP
0040
0060
0060
0240
0440
0740
0140
4320
8E20
8020
FFE0
7FE0
ENDCHAR
STARTCHAR FEDA
ENCODING 65242
SWIDTH 565 0
DWIDTH 11 0
BBX 11 12 0 3
BITMAP
0040
0060
0060
0240
0440
0740
0140
4320
8E20
8020
FFE0
7FE0
ENDCHAR
STARTCHAR FEDB
ENCODING 65243
SWIDTH 360 0
DWIDTH 7 0
BBX 8 11 -1 3
BITMAP
02
1E
38
40
60
78
1C
06
03
FF
FF
ENDCHAR
STARTCHAR FEDC
ENCODING 65244
SWIDTH 360 0
DWIDTH 7 0
BBX 8 11 -1 3
BITMAP
02
1E
38
40
60
78
1C
06
03
FF
FF
ENDCHAR
STARTCHAR FEDD
ENCODING 65245
SWIDTH 514 0
DWIDTH 10 0
BBX 9 15 1 0
BITMAP
0100
0180
0180
0100
0100
0100
0080
2080
4080
8080
8080
8080
C180
FF00
7E00
ENDCHAR
STARTCHAR FEDE
ENCODING 65246
SWIDTH 514 0
DWIDTH 10 0
BBX 9 15 1 0
BITMAP
0100
0180
0180
0100
0100
0100
0080
2080
4080
8080
8080
8080
C180
FF00
7E00
ENDCHAR
STARTCHAR FEDF
ENCODING 65247
SWIDTH 205 0
DWIDTH 4 0
BBX 5 12 -1 3
BITMAP
10
18
18
10
10
10
08
08
08
08
F8
F8
ENDCHAR
STARTCHAR FEE0
ENCODING 65248
SWIDTH 205 0
DWIDTH 4 0
BBX 5 12 -1 3
BITMAP
10
18
18
10
10
10
08
08
08
08
F8
F8
ENDCHAR
STARTCHAR FEE1
ENCODING 65249
SWIDTH 308 0
DWIDTH 6 0
BBX 6 12 0 -4
BITMAP
30
78
0C
3C
7C
C0
80
80
80
40
40
40
ENDCHAR
STARTCHAR FEE2
ENCODING 65250
SWIDTH 308 0
DWIDTH 6 0
BBX 6 12 0 -4
BITMAP
30
78
0C
3C
7C
C0
80
80
80
40
40
40
ENDCHAR
STARTCHAR FEE3
ENCODING 65251
SWIDTH 360 0
DWIDTH 7 0
BBX 8 5 -1 3
BITMAP
06
0A
19
FF
E7
ENDCHAR
STARTCHAR FEE4
ENCODING 65252
SWIDTH 360 0
DWIDTH 7 0
BBX 8 5 -1 3
BITMAP
06
0A
19
FF
E7
ENDCHAR
STARTCHAR FEE5
ENCODING 65253
SWIDTH 514 0
DWIDTH 10 0
BBX 9 12 1 -1
BITMAP
0C00
0C00
0000
0100
0180
4180
8080
8080
8080
C380
FF00
7E00
ENDCHAR
STARTCHAR FEE6
ENCODING 65254
SWIDTH 514 0
DWIDTH 10 0
BBX 9 12 1 -1
BITMAP
0C00
0C00
0000
0100
0180
4180
8080
8080
8080
C380
FF00
7E00
ENDCHAR
STARTCHAR FEE7
ENCODING 65255
SWIDTH 257 0
DWIDTH 5 0
BBX 6 9 -1 3
BITMAP
18
18
00
08
0C
04
04
FC
FC
ENDCHAR
STARTCHAR FEE8
ENCODING 65256
SWIDTH 257 0
DWIDTH 5 0
BBX 6 9 -1 3
BITMAP
18
18
00
08
0C
04
04
FC
FC
ENDCHAR
STARTCHAR FEE9
ENCODING 65257
SWIDTH 257 0
DWIDTH 5 0
BBX 4 7 1 3
BITMAP
40
60
70
90
90
F0
E0
ENDCHAR
STARTCHAR FEEA
ENCODING 65258
SWIDTH 360 0
DWIDTH 7 0
BBX 7 10 0 3
BITMAP
08
08
18
28
48
F8
F8
04
06
06
ENDCHAR
STARTCHAR FEEB
ENCODING 65259
SWIDTH 462 0
DWIDTH 9 0
BBX 9 8 -1 3
BITMAP
0800
1C00
1E00
2700
2500
1880
FF80
E300
ENDCHAR
STARTCHAR FEEC
ENCODING 65260
SWIDTH 360 0
DWIDTH 7 0
BBX 8 10 -1 -1
BITMAP
0C
1C
14
28
FF
FF
28
24
3C
1C
ENDCHAR
STARTCHAR FEED
ENCODING 65261
SWIDTH 411 0
DWIDTH 8 0
BBX 8 11 0 -2
BITMAP
06
0F
09
09
0F
07
01
03
06
8C
78
ENDCHAR
STARTCHAR FEEE
ENCODING 65262
SWIDTH 411 0
DWIDTH 8 0
BBX 8 11 0 -2
BITMAP
06
0F
09
09
0F
07
01
03
06
8C
78
ENDCHAR
STARTCHAR FEEF
ENCODING 65263
SWIDTH 617 0
DWIDTH 12 0
BBX 12 10 0 -1
BITMAP
0070
00F0
0100
4200
83E0
83E0
8020
C1C0
FF80
7E00
ENDCHAR
STARTCHAR FEF0
ENCODING 65264
SWIDTH 565 0
DWIDTH 11 0
BBX 11 7 0 -2
BITMAP
41E0
83E0
8200
83C0
C040
FFC0
3F00
ENDCHAR
STARTCHAR FEF1
ENCODING 65265
SWIDTH 617 0
DWIDTH 12 0
BBX 12 13 0 -4
BITMAP
0070
00F0
0100
4200
83E0
83E0
8020
C1C0
FF80
7E00
0600
1E00
1800
ENDCHAR
STARTCHAR FEF2
ENCODING 65266
SWIDTH 565 0
DWIDTH 11 0
BBX 11 9 0 -4
BITMAP
41E0
83E0
8200
83C0
C040
FFC0
3F00
1200
1E00
ENDCHAR
STARTCHAR FEF3
ENCODING 65267
SWIDTH 257 0
DWIDTH 5 0
BBX 6 10 -1 -1
BITMAP
08
0C
04
04
FC
FC
00
18
78
60
ENDCHAR
STARTCHAR FEF4
ENCODING 65268
SWIDTH 257 0
DWIDTH 5 0
BBX 6 10 -1 -1
BITMAP
08
0C
04
04
FC
FC
00
18
78
60
ENDCHAR
STARTCHAR FEF5
ENCODING 65269
SWIDTH 514 0
DWIDTH 10 0
BBX 8 15 1 1
BITMAP
F0
00
84
C7
E3
62
12
12
0A
04
04
0A
12
1E
1E
ENDCHAR
STARTCHAR FEF6
ENCODING 65270
SWIDTH 565 0
DWIDTH 11 0
BBX 10 13 1 3
BITMAP
F000
0000
C100
F100
7900
0900
0500
0100
0100
0300
0C80
3CC0
F0C0
ENDCHAR
STARTCHAR FEF7
ENCODING 65271
SWIDTH 514 0
DWIDTH 10 0
BBX 9 15 0 1
BITMAP
6000
8000
6200
8380
0180
4100
6100
3100
0900
0500
0600
0200
0500
0F00
0F00
ENDCHAR
STARTCHAR FEF8
ENCODING 65272
SWIDTH 565 0
DWIDTH 11 0
BBX 11 13 0 3
BITMAP
6000
8000
6080
8080
6080
3880
0480
0280
0080
0180
0640
1E60
7860
ENDCHAR
STARTCHAR FEF9
ENCODING 65273
SWIDTH 514 0
DWIDTH 10 0
BBX 8 18 1 -4
BITMAP
84
C7
E3
62
12
12
0A
04
04
0A
12
1E
1E
00
18
20
18
20
ENDCHAR
STARTCHAR FEFA
ENCODING 65274
SWIDTH 565 0
DWIDTH 11 0
BBX 10 16 1 -2
BITMAP
C100
F100
7900
0900
0500
0100
0100
0300
0C80
3CC0
F0C0
0000
3000
4000
3000
4000
ENDCHAR
STARTCHAR FEFB
ENCODING 65275
SWIDTH 514 0
DWIDTH 10 0
BBX 8 13 1 1
BITMAP
84
C7
E3
62
12
12
0A
04
04
0A
12
1E
1E
ENDCHAR
STARTCHAR FEFC
ENCODING 65276
SWIDTH 565 0
DWIDTH 11 0
BBX 10 11 1 3
BITMAP
C100
F100
7900
0900
0500
0100
0100
0300
0C80
3CC0
F0C0
ENDCHAR
STARTCHAR FFFC
ENCODING 65532
SWIDTH 977 0
DWIDTH 19 0
BBX 19 14 0 0
BITMAP
E71CE0
800020
800020
000000
1CF100
A28920
A2F120
A28920
A28920
1CF600
000000
800020
800020
E71CE0
ENDCHAR
ENDFONT
